{
.appVersion = "939";
DisplayStrings = (
"Modern Tinnitus\012\012"
);
copyright = "Copyright 2016, Jeremy Tribby. Released under the SIL Open Font License v1.1.";
date = "2017-01-19 02:17:38 +0000";
designer = "Jeremy Tribby";
designerURL = "https://tribby.com/";
familyName = Barlow;
fontMaster = (
{
alignmentZones = (
"{800, 16}",
"{700, 10}",
"{500, 9}",
"{0, -10}",
"{-200, -16}"
);
ascender = 800;
capHeight = 700;
customParameters = (
{
name = paramArea;
value = "488";
},
{
name = paramDepth;
value = "16";
},
{
name = paramOver;
value = "0";
}
);
descender = -200;
horizontalStems = (
22,
22
);
id = "262880E7-CFE1-4BDA-902E-E24798F3240A";
userData = {
GSCornerRadius = 8;
GSOffsetHorizontal = 11;
GSOffsetMakeStroke = 1;
GSOffsetPosition = 0.2;
GSOffsetVertical = 10;
noodleExtremesAndInflections = 1;
noodleRemoveOverlap = 1;
noodleThickness = "22.0";
};
verticalStems = (
21,
21
);
weight = Light;
weightValue = 23;
widthValue = 5;
xHeight = 500;
},
{
alignmentZones = (
"{800, 16}",
"{700, 13}",
"{520, 13}",
"{0, -13}",
"{-200, -12}"
);
ascender = 800;
capHeight = 700;
customParameters = (
{
name = paramArea;
value = "488";
},
{
name = paramDepth;
value = "16";
},
{
name = paramOver;
value = "0";
}
);
descender = -200;
horizontalStems = (
188,
188
);
id = "FFFA8D72-12AC-4CE0-B2CA-57A29829F4DA";
userData = {
GSCornerRadius = 8;
GSOffsetHorizontal = 104;
GSOffsetMakeStroke = 1;
GSOffsetVertical = 95;
noodleExtremesAndInflections = 1;
noodleRemoveOverlap = 1;
noodleThickness = "22.0";
};
verticalStems = (
170,
161
);
weight = Bold;
weightValue = 188;
widthValue = 5;
xHeight = 520;
},
{
alignmentZones = (
"{800, 16}",
"{700, 10}",
"{500, 9}",
"{0, -10}",
"{-200, -16}"
);
ascender = 800;
capHeight = 700;
customParameters = (
{
name = paramArea;
value = "488";
},
{
name = paramDepth;
value = "16";
},
{
name = paramOver;
value = "0";
}
);
descender = -200;
horizontalStems = (
22,
22
);
id = "DCBE1F7B-116A-43E0-B7B4-8657BA77D8B5";
userData = {
GSCornerRadius = 8;

glyphs = (
{
glyphname = A;
lastChange = "2017-01-20 08:41:53 +0000";
layers = (
{
layerId = "262880E7-CFE1-4BDA-902E-E24798F3240A";
paths = (
{
closed = 1;
nodes = (
"49 0 LINE",
"246 658 LINE",
"443 0 LINE",
"465 0 LINE",
"256 700 LINE",
"234 700 LINE",
"27 0 LINE"
);
},
{
closed = 1;
nodes = (
"409 155 LINE",
"409 176 LINE",
"86 176 LINE",
"86 155 LINE"
);
}
);
width = 492;
},
{
layerId = "4E2227F3-52E4-4048-A8EE-327B486EF0A4";
paths = (
{
closed = 1;
nodes = (
"194 0 LINE",
"264 458 LINE",
"321 0 LINE",
"513 0 LINE",
"365 700 LINE",
"154 700 LINE",
"6 0 LINE"
);
},
{
closed = 1;
nodes = (
"393 95 LINE",
"393 239 LINE",
"123 239 LINE",
"123 95 LINE"
);
}
);
width = 519;
},
{
layerId = "FFFA8D72-12AC-4CE0-B2CA-57A29829F4DA";
paths = (
{
closed = 1;
nodes = (
"194 0 LINE",
"306 478 LINE",
"404 0 LINE",
"596 0 LINE",
"406 700 LINE",
"196 700 LINE",
"6 0 LINE"
);
},
{
closed = 1;
nodes = (
"467 95 LINE",
"467 239 LINE",
"132 239 LINE",
"132 95 LINE"
);
}
);
width = 602;
},
{
layerId = "DCBE1F7B-116A-43E0-B7B4-8657BA77D8B5";
paths = (
{
closed = 1;
nodes = (
"43 0 LINE",
"191 658 LINE",
"338 0 LINE",
"360 0 LINE",
"201 700 LINE",
"178 700 LINE",
"21 0 LINE"
);
},
{
closed = 1;
nodes = (
"315 155 LINE",
"315 176 LINE",
"69 176 LINE",
"69 155 LINE"
);
}
);
width = 381;
}
);
leftKerningGroup = A;
rightKerningGroup = A;
unicode = 0041;
},
{
glyphname = B;
lastChange = "2017-02-08 03:37:34 +0000";
layers = (
{
layerId = "262880E7-CFE1-4BDA-902E-E24798F3240A";
paths = (
{
closed = 1;
nodes = (
"94 679 LINE",
"270 679 LINE SMOOTH",
"368 679 OFFCURVE",
"433 617 OFFCURVE",
"433 523 CURVE SMOOTH",
"433 433 OFFCURVE",
"368 373 OFFCURVE",
"270 373 CURVE SMOOTH",
"94 373 LINE"
);
},
{
closed = 1;
nodes = (
"271 352 LINE SMOOTH",
"381 352 OFFCURVE",
"455 420 OFFCURVE",
"455 523 CURVE SMOOTH",
"455 629 OFFCURVE",
"381 700 OFFCURVE",
"270 700 CURVE SMOOTH",
"72 700 LINE",
"72 352 LINE"
);
},
{
closed = 1;
nodes = (
"94 352 LINE",
"270 352 LINE SMOOTH",
"372 352 OFFCURVE",
"440 286 OFFCURVE",
"440 186 CURVE SMOOTH",
"440 88 OFFCURVE",
"374 22 OFFCURVE",
"276 22 CURVE SMOOTH",
"94 22 LINE"
);
},
{
closed = 1;
nodes = (
"276 0 LINE SMOOTH",
"388 0 OFFCURVE",
"462 74 OFFCURVE",
"462 186 CURVE SMOOTH",
"462 298 OFFCURVE",
"386 373 OFFCURVE",
"271 373 CURVE SMOOTH",
"72 373 LINE",
"72 0 LINE"
);
}
);
width = 507;
},
{
layerId = "4E2227F3-52E4-4048-A8EE-327B486EF0A4";
paths = (
{
closed = 1;
nodes = (
"204 539 LINE",
"215 539 LINE",
"245 539 OFFCURVE",
"260 520 OFFCURVE",
"260 483 CURVE SMOOTH",
"260 447 OFFCURVE",
"245 427 OFFCURVE",
"215 427 CURVE",
"204 427 LINE"
);
},
{
closed = 1;
nodes = (
"181 319 LINE SMOOTH",
"356 319 OFFCURVE",
"444 369 OFFCURVE",
"444 503 CURVE SMOOTH",
"444 640 OFFCURVE",
"351 700 OFFCURVE",
"212 700 CURVE",
"16 700 LINE",
"16 319 LINE"
);
},
{
closed = 1;
nodes = (
"204 293 LINE",
"228 293 LINE SMOOTH",
"253 293 OFFCURVE",
"270 266 OFFCURVE",
"270 225 CURVE SMOOTH",
"270 182 OFFCURVE",
"252 161 OFFCURVE",
"227 161 CURVE SMOOTH",
"204 161 LINE"
);
},
{
closed = 1;
nodes = (
"242 0 LINE SMOOTH",
"361 0 OFFCURVE",
"460 65 OFFCURVE",
"458 201 CURVE SMOOTH",
"455 368 OFFCURVE",
"310 418 OFFCURVE",
"179 418 CURVE",
"16 418 LINE",
"16 0 LINE"
);
}
);
width = 468;
},
{
layerId = "FFFA8D72-12AC-4CE0-B2CA-57A29829F4DA";
paths = (
{
closed = 1;
nodes = (
"204 539 LINE",
"264 539 LINE",
"308 539 OFFCURVE",
"337 517 OFFCURVE",
"337 483 CURVE SMOOTH",
"337 452 OFFCURVE",
"308 429 OFFCURVE",
"264 429 CURVE",
"204 429 LINE"
);
},
{
closed = 1;
nodes = (
"218 327 LINE SMOOTH",
"418 325 OFFCURVE",
"521 367 OFFCURVE",
"521 503 CURVE SMOOTH",
"521 640 OFFCURVE",
"403 700 OFFCURVE",
"241 700 CURVE",
"16 700 LINE",
"16 329 LINE"
);
},
{
closed = 1;
nodes = (
"204 276 LINE",
"274 276 LINE SMOOTH",
"316 276 OFFCURVE",
"344 249 OFFCURVE",
"344 223 CURVE SMOOTH",
"344 186 OFFCURVE",
"316 161 OFFCURVE",
"273 161 CURVE SMOOTH",
"204 161 LINE"
);
},
{
closed = 1;
nodes = (
"278 0 LINE SMOOTH",
"420 0 OFFCURVE",
"532 65 OFFCURVE",
"532 201 CURVE SMOOTH",
"532 366 OFFCURVE",
"373 410 OFFCURVE",
"216 410 CURVE",
"16 408 LINE",
"16 0 LINE"
);
}
);
width = 542;
},
{
layerId = "DCBE1F7B-116A-43E0-B7B4-8657BA77D8B5";
paths = (
{
closed = 1;
nodes = (
"78 679 LINE",
"192 679 LINE SMOOTH",
"281 679 OFFCURVE",
"334 621 OFFCURVE",
"334 523 CURVE SMOOTH",
"334 429 OFFCURVE",
"281 373 OFFCURVE",
"192 373 CURVE SMOOTH",
"78 373 LINE"
);
},
{
closed = 1;
nodes = (
"191 352 LINE SMOOTH",
"295 352 OFFCURVE",
"356 415 OFFCURVE",
"356 523 CURVE SMOOTH",
"356 635 OFFCURVE",
"295 700 OFFCURVE",
"192 700 CURVE SMOOTH",
"56 700 LINE",
"56 352 LINE"
);
},
{
closed = 1;
nodes = (
"78 352 LINE",
"192 352 LINE SMOOTH",
"282 352 OFFCURVE",
"335 291 OFFCURVE",
"335 186 CURVE SMOOTH",
"335 83 OFFCURVE",
"282 22 OFFCURVE",
"192 22 CURVE SMOOTH",
"78 22 LINE"
);
},
{
closed = 1;
nodes = (
"193 0 LINE SMOOTH",
"296 0 OFFCURVE",
"357 69 OFFCURVE",
"357 186 CURVE SMOOTH",
"357 304 OFFCURVE",
"296 373 OFFCURVE",
"191 373 CURVE SMOOTH",
"56 373 LINE",
"56 0 LINE"
);
}
);
width = 392;
}
);
leftKerningGroup = H;
rightKerningGroup = B;
unicode = 0042;
},
{
glyphname = C;
lastChange = "2017-01-20 08:41:53 +0000";
layers = (
{
layerId = "262880E7-CFE1-4BDA-902E-E24798F3240A";
paths = (
{
closed = 1;
nodes = (
"382 -9 OFFCURVE",
"460 62 OFFCURVE",
"460 168 CURVE SMOOTH",
"460 177 LINE",
"438 178 LINE",
"438 166 LINE SMOOTH",
"438 74 OFFCURVE",
"369 12 OFFCURVE",
"266 12 CURVE SMOOTH",
"162 12 OFFCURVE",
"94 74 OFFCURVE",
"94 166 CURVE SMOOTH",
"94 535 LINE SMOOTH",
"94 627 OFFCURVE",
"162 688 OFFCURVE",
"266 688 CURVE SMOOTH",
"369 688 OFFCURVE",
"438 627 OFFCURVE",
"438 535 CURVE SMOOTH",
"438 521 LINE",
"460 522 LINE",
"460 533 LINE SMOOTH",
"460 639 OFFCURVE",
"382 709 OFFCURVE",
"266 709 CURVE SMOOTH",
"149 709 OFFCURVE",
"72 639 OFFCURVE",
"72 533 CURVE SMOOTH",
"72 168 LINE SMOOTH",
"72 62 OFFCURVE",
"149 -9 OFFCURVE",
"266 -9 CURVE SMOOTH"
);
}
);
width = 505;
},
{
layerId = "4E2227F3-52E4-4048-A8EE-327B486EF0A4";
paths = (
{
closed = 1;
nodes = (
"366 -11 OFFCURVE",
"454 75 OFFCURVE",
"454 205 CURVE SMOOTH",
"454 224 LINE",
"266 231 LINE",
"266 186 LINE SMOOTH",
"266 164 OFFCURVE",
"254 150 OFFCURVE",
"235 150 CURVE SMOOTH",
"216 150 OFFCURVE",
"204 164 OFFCURVE",
"204 186 CURVE SMOOTH",
"204 515 LINE SMOOTH",
"204 537 OFFCURVE",
"216 552 OFFCURVE",
"235 552 CURVE SMOOTH",
"254 552 OFFCURVE",
"266 537 OFFCURVE",
"266 515 CURVE SMOOTH",
"266 470 LINE",
"454 477 LINE",
"454 497 LINE SMOOTH",
"454 627 OFFCURVE",
"366 713 OFFCURVE",
"235 713 CURVE SMOOTH",
"103 713 OFFCURVE",
"16 627 OFFCURVE",
"16 497 CURVE SMOOTH",
"16 205 LINE SMOOTH",
"16 75 OFFCURVE",
"103 -11 OFFCURVE",
"235 -11 CURVE SMOOTH"
);
}
);
width = 464;
},
{
layerId = "FFFA8D72-12AC-4CE0-B2CA-57A29829F4DA";
paths = (
{
closed = 1;
nodes = (
"426 -11 OFFCURVE",
"528 79 OFFCURVE",
"528 215 CURVE SMOOTH",
"528 224 LINE",
"340 231 LINE",
"340 219 LINE SMOOTH",
"340 178 OFFCURVE",
"313 150 OFFCURVE",
"272 150 CURVE SMOOTH",
"231 150 OFFCURVE",
"204 178 OFFCURVE",
"204 219 CURVE SMOOTH",
"204 482 LINE SMOOTH",
"204 524 OFFCURVE",
"231 552 OFFCURVE",
"272 552 CURVE SMOOTH",
"313 552 OFFCURVE",
"340 524 OFFCURVE",
"340 482 CURVE SMOOTH",
"340 470 LINE",
"528 477 LINE",
"528 487 LINE SMOOTH",
"528 623 OFFCURVE",
"426 713 OFFCURVE",
"272 713 CURVE SMOOTH",
"118 713 OFFCURVE",
"16 617 OFFCURVE",
"16 472 CURVE SMOOTH",
"16 230 LINE SMOOTH",
"16 85 OFFCURVE",
"118 -11 OFFCURVE",
"272 -11 CURVE SMOOTH"
);
}
);
width = 538;
},
{
layerId = "DCBE1F7B-116A-43E0-B7B4-8657BA77D8B5";
paths = (
{
closed = 1;
nodes = (
"296 -9 OFFCURVE",
"356 54 OFFCURVE",
"356 148 CURVE SMOOTH",
"356 177 LINE",
"333 178 LINE",
"333 146 LINE SMOOTH",
"333 66 OFFCURVE",
"282 12 OFFCURVE",
"205 12 CURVE SMOOTH",
"129 12 OFFCURVE",
"78 66 OFFCURVE",
"78 146 CURVE SMOOTH",
"78 555 LINE SMOOTH",
"78 635 OFFCURVE",
"129 688 OFFCURVE",
"205 688 CURVE SMOOTH",
"282 688 OFFCURVE",
"333 635 OFFCURVE",
"333 555 CURVE SMOOTH",
"333 521 LINE",
"356 522 LINE",
"356 553 LINE SMOOTH",
"356 647 OFFCURVE",
"296 709 OFFCURVE",
"205 709 CURVE SMOOTH",
"116 709 OFFCURVE",
"56 647 OFFCURVE",
"56 553 CURVE SMOOTH",
"56 148 LINE SMOOTH",
"56 54 OFFCURVE",
"116 -9 OFFCURVE",
"205 -9 CURVE SMOOTH"
);
}
);
width = 391;
}
);
leftKerningGroup = O;
rightKerningGroup = C;
unicode = 0043;
},
{
glyphname = D;
lastChange = "2017-02-02 00:45:48 +0000";
layers = (
{
layerId = "262880E7-CFE1-4BDA-902E-E24798F3240A";
paths = (
{
closed = 1;
nodes = (
"267 0 LINE SMOOTH",
"384 0 OFFCURVE",
"456 68 OFFCURVE",
"456 180 CURVE SMOOTH",
"456 520 LINE SMOOTH",
"456 632 OFFCURVE",
"384 700 OFFCURVE",
"267 700 CURVE SMOOTH",
"81 700 LINE",
"81 0 LINE"
);
},
{
closed = 1;
nodes = (
"103 679 LINE",
"269 679 LINE SMOOTH",
"371 679 OFFCURVE",
"434 619 OFFCURVE",
"434 520 CURVE SMOOTH",
"434 179 LINE SMOOTH",
"434 81 OFFCURVE",
"371 21 OFFCURVE",
"269 21 CURVE SMOOTH",
"103 21 LINE"
);
}
);
width = 519;
},
{
layerId = "4E2227F3-52E4-4048-A8EE-327B486EF0A4";
paths = (
{
closed = 1;
nodes = (
"230 0 LINE SMOOTH",
"364 0 OFFCURVE",
"453 80 OFFCURVE",
"453 200 CURVE SMOOTH",
"453 500 LINE SMOOTH",
"453 620 OFFCURVE",
"364 700 OFFCURVE",
"230 700 CURVE SMOOTH",
"18 700 LINE",
"18 0 LINE"
);
},
{
closed = 1;
nodes = (
"206 530 LINE",
"225 530 LINE SMOOTH",
"249 530 OFFCURVE",
"265 510 OFFCURVE",
"265 479 CURVE",
"265 222 LINE",
"263 192 OFFCURVE",
"247 172 OFFCURVE",
"226 171 CURVE SMOOTH",
"206 170 LINE"
);
}
);
width = 467;
},
{
layerId = "FFFA8D72-12AC-4CE0-B2CA-57A29829F4DA";
paths = (
{
closed = 1;
nodes = (
"265 0 LINE SMOOTH",
"421 0 OFFCURVE",
"524 80 OFFCURVE",
"524 205 CURVE SMOOTH",
"524 495 LINE SMOOTH",
"524 620 OFFCURVE",
"421 700 OFFCURVE",
"265 700 CURVE SMOOTH",
"18 700 LINE",
"18 0 LINE"
);
},
{
closed = 1;
nodes = (
"206 530 LINE",
"261 530 LINE SMOOTH",
"307 530 OFFCURVE",
"336 510 OFFCURVE",
"336 474 CURVE",
"336 227 LINE",
"334 192 OFFCURVE",
"305 172 OFFCURVE",
"262 171 CURVE SMOOTH",
"206 170 LINE"
);
}
);
width = 538;
},
{
layerId = "DCBE1F7B-116A-43E0-B7B4-8657BA77D8B5";
paths = (
{
closed = 1;
nodes = (
"207 0 LINE SMOOTH",
"297 0 OFFCURVE",
"353 68 OFFCURVE",
"353 180 CURVE SMOOTH",
"353 520 LINE SMOOTH",
"353 632 OFFCURVE",
"297 700 OFFCURVE",
"207 700 CURVE SMOOTH",
"63 700 LINE",
"63 0 LINE"
);
},
{
closed = 1;
nodes = (
"85 679 LINE",
"208 679 LINE SMOOTH",
"284 679 OFFCURVE",
"330 619 OFFCURVE",
"330 520 CURVE SMOOTH",
"330 179 LINE SMOOTH",
"330 81 OFFCURVE",
"283 21 OFFCURVE",
"208 21 CURVE SMOOTH",
"85 21 LINE"
);
}
);
width = 402;
}
);
leftKerningGroup = H;
rightKerningGroup = B;
unicode = 0044;
},
{
glyphname = E;
lastChange = "2017-01-20 08:41:53 +0000";
layers = (
{
layerId = "262880E7-CFE1-4BDA-902E-E24798F3240A";
paths = (
{
closed = 1;
nodes = (
"445 0 LINE",
"445 21 LINE",
"103 21 LINE",
"103 679 LINE",
"445 679 LINE",
"445 700 LINE",
"81 700 LINE",
"81 0 LINE"
);
},
{
closed = 1;
nodes = (
"338 340 LINE",
"338 361 LINE",
"92 361 LINE",
"92 340 LINE"
);
}
);
width = 481;
},
{
layerId = "4E2227F3-52E4-4048-A8EE-327B486EF0A4";
paths = (
{
closed = 1;
nodes = (
"418 0 LINE",
"418 170 LINE",
"206 170 LINE",
"206 530 LINE",
"418 530 LINE",
"418 700 LINE",
"18 700 LINE",
"18 0 LINE"
);
},
{
closed = 1;
nodes = (
"326 265 LINE",
"326 435 LINE",
"94 435 LINE",
"94 265 LINE"
);
}
);
width = 426;
},
{
layerId = "FFFA8D72-12AC-4CE0-B2CA-57A29829F4DA";
paths = (
{
closed = 1;
nodes = (
"488 0 LINE",
"488 170 LINE",
"206 170 LINE",
"206 530 LINE",
"488 530 LINE",
"488 700 LINE",
"18 700 LINE",
"18 0 LINE"
);
},
{
closed = 1;
nodes = (
"374 265 LINE",
"374 435 LINE",
"94 435 LINE",
"94 265 LINE"
);
}
);
width = 496;
},
{
layerId = "DCBE1F7B-116A-43E0-B7B4-8657BA77D8B5";
paths = (
{
closed = 1;
nodes = (
"344 0 LINE",
"344 21 LINE",
"85 21 LINE",
"85 679 LINE",
"344 679 LINE",
"344 700 LINE",
"63 700 LINE",
"63 0 LINE"
);
},
{
closed = 1;
nodes = (
"262 340 LINE",
"262 361 LINE",
"74 361 LINE",
"74 340 LINE"
);
}
);
width = 372;
}
);
leftKerningGroup = H;
unicode = 0045;
},
{
glyphname = F;
lastChange = "2017-01-20 08:41:53 +0000";
layers = (
{
layerId = "262880E7-CFE1-4BDA-902E-E24798F3240A";
paths = (
{
closed = 1;
nodes = (
"103 0 LINE",
"103 679 LINE",
"444 679 LINE",
"444 700 LINE",
"81 700 LINE",
"81 0 LINE"
);
},
{
closed = 1;
nodes = (
"337 340 LINE",
"337 361 LINE",
"92 361 LINE",
"92 340 LINE"
);
}
);
width = 471;
},
{
layerId = "4E2227F3-52E4-4048-A8EE-327B486EF0A4";
paths = (
{
closed = 1;
nodes = (
"206 0 LINE",
"206 530 LINE",
"418 530 LINE",
"418 700 LINE",
"18 700 LINE",
"18 0 LINE"
);
},
{
closed = 1;
nodes = (
"326 265 LINE",
"326 435 LINE",
"94 435 LINE",
"94 265 LINE"
);
}
);
width = 424;
},
{
layerId = "FFFA8D72-12AC-4CE0-B2CA-57A29829F4DA";
paths = (
{
closed = 1;
nodes = (
"206 0 LINE",
"206 530 LINE",
"487 530 LINE",
"487 700 LINE",
"18 700 LINE",
"18 0 LINE"
);
},
{
closed = 1;
nodes = (
"374 265 LINE",
"374 435 LINE",
"94 435 LINE",
"94 265 LINE"
);
}
);
width = 493;
},
{
layerId = "DCBE1F7B-116A-43E0-B7B4-8657BA77D8B5";
paths = (
{
closed = 1;
nodes = (
"85 0 LINE",
"85 679 LINE",
"343 679 LINE",
"343 700 LINE",
"63 700 LINE",
"63 0 LINE"
);
},
{
closed = 1;
nodes = (
"261 340 LINE",
"261 361 LINE",
"74 361 LINE",
"74 340 LINE"
);
}
);
width = 364;
}
);
leftKerningGroup = H;
unicode = 0046;
},
{
glyphname = G;
lastChange = "2017-01-20 08:41:53 +0000";
layers = (
{
layerId = "262880E7-CFE1-4BDA-902E-E24798F3240A";
paths = (
{
closed = 1;
nodes = (
"382 -9 OFFCURVE",
"459 64 OFFCURVE",
"459 174 CURVE SMOOTH",
"459 361 LINE",
"275 361 LINE",
"275 340 LINE",
"437 340 LINE",
"437 172 LINE SMOOTH",
"437 76 OFFCURVE",
"369 12 OFFCURVE",
"266 12 CURVE SMOOTH",
"163 12 OFFCURVE",
"94 76 OFFCURVE",
"94 172 CURVE SMOOTH",
"94 528 LINE SMOOTH",
"94 624 OFFCURVE",
"163 688 OFFCURVE",
"266 688 CURVE SMOOTH",
"369 688 OFFCURVE",
"437 624 OFFCURVE",
"437 528 CURVE SMOOTH",
"437 500 LINE",
"459 500 LINE",
"459 526 LINE SMOOTH",
"459 636 OFFCURVE",
"382 709 OFFCURVE",
"266 709 CURVE SMOOTH",
"150 709 OFFCURVE",
"72 636 OFFCURVE",
"72 526 CURVE SMOOTH",
"72 174 LINE SMOOTH",
"72 64 OFFCURVE",
"150 -9 OFFCURVE",
"266 -9 CURVE SMOOTH"
);
}
);
width = 504;
},
{
layerId = "4E2227F3-52E4-4048-A8EE-327B486EF0A4";
paths = (
{
closed = 1;
nodes = (
"366 -11 OFFCURVE",
"454 72 OFFCURVE",
"454 196 CURVE SMOOTH",
"454 414 LINE",
"237 414 LINE",
"237 269 LINE",
"266 269 LINE",
"266 192 LINE SMOOTH",
"266 167 OFFCURVE",
"254 150 OFFCURVE",
"235 150 CURVE SMOOTH",
"216 150 OFFCURVE",
"204 167 OFFCURVE",
"204 192 CURVE SMOOTH",
"204 509 LINE SMOOTH",
"204 534 OFFCURVE",
"216 551 OFFCURVE",
"235 551 CURVE SMOOTH",
"254 551 OFFCURVE",
"266 534 OFFCURVE",
"266 509 CURVE SMOOTH",
"266 455 LINE",
"454 455 LINE",
"454 503 LINE SMOOTH",
"454 628 OFFCURVE",
"366 712 OFFCURVE",
"235 712 CURVE SMOOTH",
"103 712 OFFCURVE",
"16 629 OFFCURVE",
"16 505 CURVE SMOOTH",
"16 196 LINE SMOOTH",
"16 72 OFFCURVE",
"103 -11 OFFCURVE",
"235 -11 CURVE SMOOTH"
);
}
);
width = 464;
},
{
layerId = "FFFA8D72-12AC-4CE0-B2CA-57A29829F4DA";
paths = (
{
closed = 1;
nodes = (
"425 -11 OFFCURVE",
"527 88 OFFCURVE",
"527 236 CURVE SMOOTH",
"527 414 LINE",
"276 414 LINE",
"276 269 LINE",
"340 269 LINE",
"340 227 LINE SMOOTH",
"340 181 OFFCURVE",
"313 150 OFFCURVE",
"272 150 CURVE SMOOTH",
"231 150 OFFCURVE",
"204 181 OFFCURVE",
"204 227 CURVE SMOOTH",
"204 474 LINE SMOOTH",
"204 520 OFFCURVE",
"231 551 OFFCURVE",
"272 551 CURVE SMOOTH",
"313 551 OFFCURVE",
"340 520 OFFCURVE",
"340 474 CURVE SMOOTH",
"340 455 LINE",
"527 455 LINE",
"527 463 LINE SMOOTH",
"527 612 OFFCURVE",
"425 712 OFFCURVE",
"272 712 CURVE SMOOTH",
"118 712 OFFCURVE",
"16 613 OFFCURVE",
"16 465 CURVE SMOOTH",
"16 236 LINE SMOOTH",
"16 88 OFFCURVE",
"118 -11 OFFCURVE",
"272 -11 CURVE SMOOTH"
);
}
);
width = 535;
},
{
layerId = "DCBE1F7B-116A-43E0-B7B4-8657BA77D8B5";
paths = (
{
closed = 1;
nodes = (
"295 -9 OFFCURVE",
"355 52 OFFCURVE",
"355 144 CURVE SMOOTH",
"355 361 LINE",
"212 361 LINE",
"212 340 LINE",
"333 340 LINE",
"333 142 LINE SMOOTH",
"333 64 OFFCURVE",
"282 12 OFFCURVE",
"205 12 CURVE SMOOTH",
"129 12 OFFCURVE",
"78 64 OFFCURVE",
"78 142 CURVE SMOOTH",
"78 558 LINE SMOOTH",
"78 636 OFFCURVE",
"129 688 OFFCURVE",
"205 688 CURVE SMOOTH",
"282 688 OFFCURVE",
"333 636 OFFCURVE",
"333 558 CURVE SMOOTH",
"333 500 LINE",
"355 500 LINE",
"355 556 LINE SMOOTH",
"355 648 OFFCURVE",
"295 709 OFFCURVE",
"205 709 CURVE SMOOTH",
"116 709 OFFCURVE",
"56 648 OFFCURVE",
"56 556 CURVE SMOOTH",
"56 144 LINE SMOOTH",
"56 52 OFFCURVE",
"116 -9 OFFCURVE",
"205 -9 CURVE SMOOTH"
);
}
);
width = 390;
}
);
leftKerningGroup = O;
rightKerningGroup = G;
unicode = 0047;
},
{
glyphname = H;
lastChange = "2017-01-20 08:41:53 +0000";
layers = (
{
layerId = "262880E7-CFE1-4BDA-902E-E24798F3240A";
paths = (
{
closed = 1;
nodes = (
"446 0 LINE",
"446 700 LINE",
"424 700 LINE",
"424 0 LINE"
);
},
{
closed = 1;
nodes = (
"103 0 LINE",
"103 700 LINE",
"81 700 LINE",
"81 0 LINE"
);
},
{
closed = 1;
nodes = (
"429 340 LINE",
"429 361 LINE",
"98 361 LINE",
"98 340 LINE"
);
}
);
width = 527;
},
{
layerId = "4E2227F3-52E4-4048-A8EE-327B486EF0A4";
paths = (
{
closed = 1;
nodes = (
"451 0 LINE",
"451 700 LINE",
"263 700 LINE",
"263 0 LINE"
);
},
{
closed = 1;
nodes = (
"206 0 LINE",
"206 700 LINE",
"18 700 LINE",
"18 0 LINE"
);
},
{
closed = 1;
nodes = (
"353 265 LINE",
"353 435 LINE",
"118 435 LINE",
"118 265 LINE"
);
}
);
width = 469;
},
{
layerId = "FFFA8D72-12AC-4CE0-B2CA-57A29829F4DA";
paths = (
{
closed = 1;
nodes = (
"520 0 LINE",
"520 700 LINE",
"332 700 LINE",
"332 0 LINE"
);
},
{
closed = 1;
nodes = (
"206 0 LINE",
"206 700 LINE",
"18 700 LINE",
"18 0 LINE"
);
},
{
closed = 1;
nodes = (
"421 265 LINE",
"421 435 LINE",
"119 435 LINE",
"119 265 LINE"
);
}
);
width = 538;
},
{
layerId = "DCBE1F7B-116A-43E0-B7B4-8657BA77D8B5";
paths = (
{
closed = 1;
nodes = (
"346 0 LINE",
"346 700 LINE",
"324 700 LINE",
"324 0 LINE"
);
},
{
closed = 1;
nodes = (
"85 0 LINE",
"85 700 LINE",
"63 700 LINE",
"63 0 LINE"
);
},
{
closed = 1;
nodes = (
"331 340 LINE",
"331 361 LINE",
"79 361 LINE",
"79 340 LINE"
);
}
);
width = 409;
}
);
unicode = 0048;
},
{
glyphname = I;
lastChange = "2017-01-20 08:41:53 +0000";
layers = (
{
layerId = "262880E7-CFE1-4BDA-902E-E24798F3240A";
paths = (
{
closed = 1;
nodes = (
"103 0 LINE",
"103 700 LINE",
"81 700 LINE",
"81 0 LINE"
);
}
);
width = 184;
},
{
layerId = "4E2227F3-52E4-4048-A8EE-327B486EF0A4";
paths = (
{
closed = 1;
nodes = (
"206 0 LINE",
"206 700 LINE",
"18 700 LINE",
"18 0 LINE"
);
}
);
width = 224;
},
{
layerId = "FFFA8D72-12AC-4CE0-B2CA-57A29829F4DA";
paths = (
{
closed = 1;
nodes = (
"206 0 LINE",
"206 700 LINE",
"18 700 LINE",
"18 0 LINE"
);
}
);
width = 224;
},
{
layerId = "DCBE1F7B-116A-43E0-B7B4-8657BA77D8B5";
paths = (
{
closed = 1;
nodes = (
"85 0 LINE",
"85 700 LINE",
"63 700 LINE",
"63 0 LINE"
);
}
);
width = 148;
}
);
unicode = 0049;
},
{
glyphname = J;
lastChange = "2017-01-20 08:41:53 +0000";
layers = (
{
layerId = "262880E7-CFE1-4BDA-902E-E24798F3240A";
paths = (
{
closed = 1;
nodes = (
"325 -9 OFFCURVE",
"400 62 OFFCURVE",
"400 168 CURVE SMOOTH",
"400 700 LINE",
"378 700 LINE",
"378 166 LINE SMOOTH",
"378 74 OFFCURVE",
"311 12 OFFCURVE",
"213 12 CURVE SMOOTH",
"115 12 OFFCURVE",
"49 74 OFFCURVE",
"49 166 CURVE SMOOTH",
"49 251 LINE",
"27 251 LINE",
"27 168 LINE SMOOTH",
"27 62 OFFCURVE",
"101 -9 OFFCURVE",
"213 -9 CURVE SMOOTH"
);
}
);
width = 481;
},
{
layerId = "4E2227F3-52E4-4048-A8EE-327B486EF0A4";
paths = (
{
closed = 1;
nodes = (
"354 -8 OFFCURVE",
"442 72 OFFCURVE",
"442 192 CURVE SMOOTH",
"442 700 LINE",
"254 700 LINE",
"254 190 LINE SMOOTH",
"254 168 OFFCURVE",
"241 153 OFFCURVE",
"223 153 CURVE SMOOTH",
"206 153 OFFCURVE",
"194 168 OFFCURVE",
"194 190 CURVE SMOOTH",
"194 265 LINE",
"6 265 LINE",
"6 192 LINE SMOOTH",
"6 72 OFFCURVE",
"93 -8 OFFCURVE",
"223 -8 CURVE SMOOTH"
);
}
);
width = 460;
},
{
layerId = "FFFA8D72-12AC-4CE0-B2CA-57A29829F4DA";
paths = (
{
closed = 1;
nodes = (
"410 -8 OFFCURVE",
"512 80 OFFCURVE",
"512 212 CURVE SMOOTH",
"512 700 LINE",
"325 700 LINE",
"325 213 LINE SMOOTH",
"325 177 OFFCURVE",
"298 153 OFFCURVE",
"258 153 CURVE SMOOTH",
"220 153 OFFCURVE",
"194 177 OFFCURVE",
"194 213 CURVE SMOOTH",
"194 280 LINE",
"6 280 LINE",
"6 212 LINE SMOOTH",
"6 80 OFFCURVE",
"107 -8 OFFCURVE",
"258 -8 CURVE SMOOTH"
);
}
);
width = 530;
},
{
layerId = "DCBE1F7B-116A-43E0-B7B4-8657BA77D8B5";
paths = (
{
closed = 1;
nodes = (
"251 -9 OFFCURVE",
"309 54 OFFCURVE",
"309 148 CURVE SMOOTH",
"309 700 LINE",
"287 700 LINE",
"287 146 LINE SMOOTH",
"287 66 OFFCURVE",
"238 12 OFFCURVE",
"165 12 CURVE SMOOTH",
"92 12 OFFCURVE",
"43 66 OFFCURVE",
"43 146 CURVE SMOOTH",
"43 251 LINE",
"21 251 LINE",
"21 148 LINE SMOOTH",
"21 54 OFFCURVE",
"79 -9 OFFCURVE",
"165 -9 CURVE SMOOTH"
);
}
);
width = 372;
}
);
leftKerningGroup = J;
rightKerningGroup = U;
unicode = 004A;
},
{
glyphname = K;
lastChange = "2017-01-20 08:41:53 +0000";
layers = (
{
layerId = "262880E7-CFE1-4BDA-902E-E24798F3240A";
paths = (
{
closed = 1;
nodes = (
"103 0 LINE",
"103 274 LINE",
"222 407 LINE",
"471 0 LINE",
"499 0 LINE",
"237 427 LINE",
"476 700 LINE",
"448 700 LINE",
"103 307 LINE",
"103 700 LINE",
"81 700 LINE",
"81 0 LINE"
);
}
);
width = 499;
},
{
layerId = "4E2227F3-52E4-4048-A8EE-327B486EF0A4";
paths = (
{
closed = 1;
nodes = (
"206 0 LINE",
"206 183 LINE",
"238 246 LINE",
"300 -4 LINE",
"498 0 LINE",
"360 392 LINE",
"500 700 LINE",
"302 700 LINE",
"206 447 LINE",
"206 700 LINE",
"18 700 LINE",
"18 0 LINE"
);
}
);
width = 500;
},
{
layerId = "FFFA8D72-12AC-4CE0-B2CA-57A29829F4DA";
paths = (
{
closed = 1;
nodes = (
"206 0 LINE",
"206 183 LINE",
"258 257 LINE",
"378 -4 LINE",
"577 0 LINE",
"385 392 LINE",
"574 700 LINE",
"375 700 LINE",
"206 447 LINE",
"206 700 LINE",
"18 700 LINE",
"18 0 LINE"
);
}
);
width = 577;
},
{
layerId = "DCBE1F7B-116A-43E0-B7B4-8657BA77D8B5";
paths = (
{
closed = 1;
nodes = (
"85 0 LINE",
"85 274 LINE",
"173 406 LINE",
"359 0 LINE",
"386 0 LINE",
"189 427 LINE",
"369 700 LINE",
"341 700 LINE",
"85 308 LINE",
"85 700 LINE",
"63 700 LINE",
"63 0 LINE"
);
}
);
width = 386;
}
);
rightKerningGroup = K;
unicode = 004B;
},
{
glyphname = L;
lastChange = "2017-01-20 08:41:53 +0000";
layers = (
{
layerId = "262880E7-CFE1-4BDA-902E-E24798F3240A";
paths = (
{
closed = 1;
nodes = (
"439 0 LINE",
"439 21 LINE",
"103 21 LINE",
"103 700 LINE",
"81 700 LINE",
"81 0 LINE"
);
}
);
width = 457;
},
{
layerId = "4E2227F3-52E4-4048-A8EE-327B486EF0A4";
paths = (
{
closed = 1;
nodes = (
"427 0 LINE",
"427 170 LINE",
"206 170 LINE",
"206 700 LINE",
"18 700 LINE",
"18 0 LINE"
);
}
);
width = 431;
},
{
layerId = "FFFA8D72-12AC-4CE0-B2CA-57A29829F4DA";
paths = (
{
closed = 1;
nodes = (
"495 0 LINE",
"495 170 LINE",
"206 170 LINE",
"206 700 LINE",
"18 700 LINE",
"18 0 LINE"
);
}
);
width = 499;
},
{
layerId = "DCBE1F7B-116A-43E0-B7B4-8657BA77D8B5";
paths = (
{
closed = 1;
nodes = (
"340 0 LINE",
"340 21 LINE",
"85 21 LINE",
"85 700 LINE",
"63 700 LINE",
"63 0 LINE"
);
}
);
width = 354;
}
);
rightKerningGroup = L;
unicode = 004C;
},
{
color = 1;
glyphname = M;
lastChange = "2017-01-20 09:20:08 +0000";
layers = (
{
layerId = "262880E7-CFE1-4BDA-902E-E24798F3240A";
paths = (
{
closed = 1;
nodes = (
"94 0 LINE",
"94 651 LINE",
"271 330 LINE",
"289 330 LINE",
"464 651 LINE",
"464 0 LINE",
"486 0 LINE",
"486 700 LINE",
"464 700 LINE",
"278 358 LINE",
"94 700 LINE",
"72 700 LINE",
"72 0 LINE"
);
}
);
width = 558;
},
{
layerId = "4E2227F3-52E4-4048-A8EE-327B486EF0A4";
paths = (
{
closed = 1;
nodes = (
"204 0 LINE",
"204 434 LINE",
"264 310 LINE",
"264 310 LINE",
"324 431 LINE",
"324 0 LINE",
"512 0 LINE",
"512 700 LINE",
"329 700 LINE",
"264 560 LINE",
"199 700 LINE",
"16 700 LINE",
"16 0 LINE"
);
}
);
width = 528;
},
{
associatedMasterId = "4E2227F3-52E4-4048-A8EE-327B486EF0A4";
layerId = "C618EEF0-F381-433B-B25F-2EDAE517ED4C";
name = "{100,3}";
paths = (
{
closed = 1;
nodes = (
"133 0 LINE",
"133 490 LINE",
"230 280 LINE",
"239 280 LINE",
"336 488 LINE",
"336 0 LINE",
"435 0 LINE",
"435 700 LINE",
"338 700 LINE",
"234 452 LINE",
"130 700 LINE",
"33 700 LINE",
"33 0 LINE"
);
}
);
width = 468;
},
{
layerId = "FFFA8D72-12AC-4CE0-B2CA-57A29829F4DA";
paths = (
{
closed = 1;
nodes = (
"204 0 LINE",
"204 414 LINE",
"279 282 LINE",
"349 282 LINE",
"424 414 LINE",
"424 0 LINE",
"612 0 LINE",
"612 700 LINE",
"429 700 LINE",
"314 512 LINE",
"199 700 LINE",
"16 700 LINE",
"16 0 LINE"
);
}
);
width = 628;
},
{
layerId = "DCBE1F7B-116A-43E0-B7B4-8657BA77D8B5";
paths = (
{
closed = 1;
nodes = (
"78 0 LINE",
"78 651 LINE",
"208 330 LINE",
"226 330 LINE",
"354 651 LINE",
"354 0 LINE",
"376 0 LINE",
"376 700 LINE",
"354 700 LINE",
"215 358 LINE",
"78 700 LINE",
"56 700 LINE",
"56 0 LINE"
);
}
);
width = 432;
},
{
associatedMasterId = "4E2227F3-52E4-4048-A8EE-327B486EF0A4";
layerId = "B75973C7-2F91-404C-BACF-1A0B6CD40DCC";
name = "{100,5}";
paths = (
{
closed = 1;
nodes = (
"145 0 LINE",
"145 516 LINE",
"271 291 LINE",
"319 291 LINE",
"445 516 LINE",
"445 0 LINE",
"544 0 LINE",
"544 700 LINE",
"447 700 LINE",
"294 427 LINE",
"142 700 LINE",
"45 700 LINE",
"45 0 LINE"
);
}
);
width = 590;
}
);
unicode = 004D;
},
{
color = 1;
glyphname = N;
lastChange = "2017-01-20 08:41:53 +0000";
layers = (
{
layerId = "262880E7-CFE1-4BDA-902E-E24798F3240A";
paths = (
{
closed = 1;
nodes = (
"94 0 LINE",
"94 648 LINE",
"433 0 LINE",
"455 0 LINE",
"455 700 LINE",
"433 700 LINE",
"433 52 LINE",
"94 700 LINE",
"72 700 LINE",
"72 0 LINE"
);
}
);
width = 527;
},
{
layerId = "4E2227F3-52E4-4048-A8EE-327B486EF0A4";
paths = (
{
closed = 1;
nodes = (
"202 0 LINE",
"200 346 LINE",
"286 0 LINE",
"492 0 LINE",
"492 700 LINE",
"306 700 LINE",
"307 356 LINE",
"220 700 LINE",
"16 700 LINE",
"16 0 LINE"
);
}
);
width = 508;
},
{
layerId = "FFFA8D72-12AC-4CE0-B2CA-57A29829F4DA";
paths = (
{
closed = 1;
nodes = (
"202 0 LINE",
"200 352 LINE",
"396 0 LINE",
"552 0 LINE",
"552 700 LINE",
"366 700 LINE",
"368 341 LINE",
"172 700 LINE",
"16 700 LINE",
"16 0 LINE"
);
}
);
width = 568;
},
{
layerId = "DCBE1F7B-116A-43E0-B7B4-8657BA77D8B5";
paths = (
{
closed = 1;
nodes = (
"78 0 LINE",
"78 648 LINE",
"330 0 LINE",
"353 0 LINE",
"353 700 LINE",
"331 700 LINE",
"331 52 LINE",
"78 700 LINE",
"56 700 LINE",
"56 0 LINE"
);
}
);
width = 409;
},
{
associatedMasterId = "4E2227F3-52E4-4048-A8EE-327B486EF0A4";
layerId = "AF700569-CAED-4344-924C-FF7EDA896D2F";
name = "{100,5}";
paths = (
{
closed = 1;
nodes = (
"144 0 LINE",
"143 490 LINE",
"404 0 LINE",
"500 0 LINE",
"500 700 LINE",
"401 700 LINE",
"402 207 LINE",
"141 700 LINE",
"45 700 LINE",
"45 0 LINE"
);
}
);
width = 545;
},
{
associatedMasterId = "4E2227F3-52E4-4048-A8EE-327B486EF0A4";
layerId = "42C43E0D-C6E2-494E-A0C1-A4C56C6C4E84";
name = "{100,3}";
paths = (
{
closed = 1;
nodes = (
"132 0 LINE",
"131 467 LINE",
"308 0 LINE",
"414 0 LINE",
"414 700 LINE",
"315 700 LINE",
"316 234 LINE",
"137 700 LINE",
"33 700 LINE",
"33 0 LINE"
);
}
);
width = 447;
}
);
leftKerningGroup = H;
rightKerningGroup = H;
unicode = 004E;
},
{
glyphname = O;
lastChange = "2017-01-20 08:41:53 +0000";
layers = (
{
layerId = "262880E7-CFE1-4BDA-902E-E24798F3240A";
paths = (
{
closed = 1;
nodes = (
"369 -9 OFFCURVE",
"448 67 OFFCURVE",
"448 180 CURVE SMOOTH",
"448 519 LINE SMOOTH",
"448 633 OFFCURVE",
"369 709 OFFCURVE",
"250 709 CURVE SMOOTH",
"132 709 OFFCURVE",
"54 633 OFFCURVE",
"54 519 CURVE SMOOTH",
"54 180 LINE SMOOTH",
"54 67 OFFCURVE",
"132 -9 OFFCURVE",
"250 -9 CURVE SMOOTH"
);
},
{
closed = 1;
nodes = (
"146 12 OFFCURVE",
"76 78 OFFCURVE",
"76 178 CURVE SMOOTH",
"76 521 LINE SMOOTH",
"76 621 OFFCURVE",
"146 688 OFFCURVE",
"250 688 CURVE SMOOTH",
"356 688 OFFCURVE",
"426 621 OFFCURVE",
"426 521 CURVE SMOOTH",
"426 178 LINE SMOOTH",
"426 78 OFFCURVE",
"356 12 OFFCURVE",
"250 12 CURVE SMOOTH"
);
}
);
width = 502;
},
{
layerId = "4E2227F3-52E4-4048-A8EE-327B486EF0A4";
paths = (
{
closed = 1;
nodes = (
"362 -12 OFFCURVE",
"450 75 OFFCURVE",
"450 206 CURVE SMOOTH",
"450 494 LINE SMOOTH",
"450 625 OFFCURVE",
"362 712 OFFCURVE",
"231 712 CURVE SMOOTH",
"99 712 OFFCURVE",
"12 625 OFFCURVE",
"12 494 CURVE SMOOTH",
"12 206 LINE SMOOTH",
"12 75 OFFCURVE",
"99 -12 OFFCURVE",
"231 -12 CURVE SMOOTH"
);
},
{
closed = 1;
nodes = (
"212 149 OFFCURVE",
"200 166 OFFCURVE",
"200 191 CURVE SMOOTH",
"200 509 LINE SMOOTH",
"200 534 OFFCURVE",
"212 551 OFFCURVE",
"231 551 CURVE SMOOTH",
"250 551 OFFCURVE",
"262 534 OFFCURVE",
"262 509 CURVE SMOOTH",
"262 191 LINE SMOOTH",
"262 166 OFFCURVE",
"250 149 OFFCURVE",
"231 149 CURVE SMOOTH"
);
}
);
width = 462;
},
{
layerId = "FFFA8D72-12AC-4CE0-B2CA-57A29829F4DA";
paths = (
{
closed = 1;
nodes = (
"422 -12 OFFCURVE",
"525 87 OFFCURVE",
"525 236 CURVE SMOOTH",
"525 464 LINE SMOOTH",
"525 613 OFFCURVE",
"422 712 OFFCURVE",
"268 712 CURVE SMOOTH",
"114 712 OFFCURVE",
"12 613 OFFCURVE",
"12 464 CURVE SMOOTH",
"12 236 LINE SMOOTH",
"12 87 OFFCURVE",
"114 -12 OFFCURVE",
"268 -12 CURVE SMOOTH"
);
},
{
closed = 1;
nodes = (
"227 149 OFFCURVE",
"200 180 OFFCURVE",
"200 226 CURVE SMOOTH",
"200 474 LINE SMOOTH",
"200 520 OFFCURVE",
"227 551 OFFCURVE",
"268 551 CURVE SMOOTH",
"309 551 OFFCURVE",
"337 520 OFFCURVE",
"337 474 CURVE SMOOTH",
"337 226 LINE SMOOTH",
"337 180 OFFCURVE",
"309 149 OFFCURVE",
"268 149 CURVE SMOOTH"
);
}
);
width = 537;
},
{
layerId = "DCBE1F7B-116A-43E0-B7B4-8657BA77D8B5";
paths = (
{
closed = 1;
nodes = (
"283 -9 OFFCURVE",
"346 56 OFFCURVE",
"346 150 CURVE SMOOTH",
"346 549 LINE SMOOTH",
"346 643 OFFCURVE",
"283 709 OFFCURVE",
"193 709 CURVE SMOOTH",
"104 709 OFFCURVE",
"42 643 OFFCURVE",
"42 549 CURVE SMOOTH",
"42 150 LINE SMOOTH",
"42 56 OFFCURVE",
"104 -9 OFFCURVE",
"193 -9 CURVE SMOOTH"
);
},
{
closed = 1;
nodes = (
"117 12 OFFCURVE",
"64 68 OFFCURVE",
"64 148 CURVE SMOOTH",
"64 551 LINE SMOOTH",
"64 632 OFFCURVE",
"117 688 OFFCURVE",
"193 688 CURVE SMOOTH",
"270 688 OFFCURVE",
"324 632 OFFCURVE",
"324 551 CURVE SMOOTH",
"324 148 LINE SMOOTH",
"324 68 OFFCURVE",
"270 12 OFFCURVE",
"193 12 CURVE SMOOTH"
);
}
);
width = 388;
}
);
leftKerningGroup = C;
rightKerningGroup = O;
unicode = 004F;
},
{
glyphname = P;
lastChange = "2017-02-08 03:34:32 +0000";
layers = (
{
layerId = "262880E7-CFE1-4BDA-902E-E24798F3240A";
paths = (
{
closed = 1;
nodes = (
"94 0 LINE",
"94 681 LINE",
"278 681 LINE SMOOTH",
"368 681 OFFCURVE",
"429 617 OFFCURVE",
"429 520 CURVE SMOOTH",
"429 425 OFFCURVE",
"368 361 OFFCURVE",
"278 361 CURVE SMOOTH",
"89 361 LINE",
"89 340 LINE",
"276 340 LINE SMOOTH",
"381 340 OFFCURVE",
"451 411 OFFCURVE",
"451 520 CURVE SMOOTH",
"451 629 OFFCURVE",
"381 702 OFFCURVE",
"276 702 CURVE SMOOTH",
"72 702 LINE",
"72 0 LINE"
);
}
);
width = 505;
},
{
layerId = "4E2227F3-52E4-4048-A8EE-327B486EF0A4";
paths = (
{
closed = 1;
nodes = (
"204 0 LINE",
"204 539 LINE",
"223 539 LINE SMOOTH",
"252 539 OFFCURVE",
"273 517 OFFCURVE",
"273 471 CURVE SMOOTH",
"273 426 OFFCURVE",
"252 405 OFFCURVE",
"223 405 CURVE SMOOTH",
"188 405 LINE",
"188 260 LINE",
"266 260 LINE SMOOTH",
"382 260 OFFCURVE",
"461 345 OFFCURVE",
"461 475 CURVE SMOOTH",
"461 608 OFFCURVE",
"378 700 OFFCURVE",
"256 700 CURVE SMOOTH",
"16 700 LINE",
"16 0 LINE"
);
}
);
width = 473;
},
{
layerId = "FFFA8D72-12AC-4CE0-B2CA-57A29829F4DA";
paths = (
{
closed = 1;
nodes = (
"204 0 LINE",
"204 539 LINE",
"263 539 LINE SMOOTH",
"311 539 OFFCURVE",
"345 517 OFFCURVE",
"345 471 CURVE SMOOTH",
"345 426 OFFCURVE",
"311 405 OFFCURVE",
"263 405 CURVE SMOOTH",
"187 405 LINE",
"187 260 LINE",
"304 260 LINE SMOOTH",
"440 260 OFFCURVE",
"532 345 OFFCURVE",
"532 475 CURVE SMOOTH",
"532 608 OFFCURVE",
"436 700 OFFCURVE",
"294 700 CURVE SMOOTH",
"16 700 LINE",
"16 0 LINE"
);
}
);
width = 544;
},
{
layerId = "DCBE1F7B-116A-43E0-B7B4-8657BA77D8B5";
paths = (
{
closed = 1;
nodes = (
"78 0 LINE",
"78 681 LINE",
"204 681 LINE SMOOTH",
"278 681 OFFCURVE",
"327 617 OFFCURVE",
"327 520 CURVE SMOOTH",
"327 425 OFFCURVE",
"278 361 OFFCURVE",
"204 361 CURVE SMOOTH",
"74 361 LINE",
"74 340 LINE",
"204 340 LINE SMOOTH",
"291 340 OFFCURVE",
"349 412 OFFCURVE",
"349 520 CURVE SMOOTH",
"349 629 OFFCURVE",
"291 702 OFFCURVE",
"204 702 CURVE SMOOTH",
"56 702 LINE",
"56 0 LINE"
);
}
);
width = 391;
}
);
leftKerningGroup = H;
unicode = 0050;
},
{
glyphname = Q;
lastChange = "2017-02-02 00:44:56 +0000";
layers = (
{
layerId = "262880E7-CFE1-4BDA-902E-E24798F3240A";
paths = (
{
closed = 1;
nodes = (
"253 -127 LINE",
"253 0 LINE",
"231 0 LINE",
"231 -127 LINE"
);
},
{
closed = 1;
nodes = (
"142 12 OFFCURVE",
"76 79 OFFCURVE",
"76 179 CURVE SMOOTH",
"76 521 LINE SMOOTH",
"76 621 OFFCURVE",
"142 688 OFFCURVE",
"242 688 CURVE SMOOTH",
"342 688 OFFCURVE",
"409 621 OFFCURVE",
"409 521 CURVE SMOOTH",
"409 179 LINE SMOOTH",
"409 79 OFFCURVE",
"342 12 OFFCURVE",
"242 12 CURVE SMOOTH"
);
},
{
closed = 1;
nodes = (
"355 -9 OFFCURVE",
"431 67 OFFCURVE",
"431 181 CURVE SMOOTH",
"431 519 LINE SMOOTH",
"431 633 OFFCURVE",
"355 709 OFFCURVE",
"242 709 CURVE SMOOTH",
"129 709 OFFCURVE",
"54 633 OFFCURVE",
"54 519 CURVE SMOOTH",
"54 181 LINE SMOOTH",
"54 67 OFFCURVE",
"129 -9 OFFCURVE",
"242 -9 CURVE SMOOTH"
);
}
);
width = 502;
},
{
layerId = "4E2227F3-52E4-4048-A8EE-327B486EF0A4";
paths = (
{
closed = 1;
nodes = (
"322 -87 LINE",
"322 113 LINE",
"134 113 LINE",
"134 -87 LINE"
);
},
{
closed = 1;
nodes = (
"211 153 OFFCURVE",
"200 170 OFFCURVE",
"200 195 CURVE SMOOTH",
"200 505 LINE SMOOTH",
"200 530 OFFCURVE",
"211 547 OFFCURVE",
"228 547 CURVE SMOOTH",
"246 547 OFFCURVE",
"257 530 OFFCURVE",
"257 505 CURVE SMOOTH",
"257 195 LINE SMOOTH",
"257 170 OFFCURVE",
"246 153 OFFCURVE",
"228 153 CURVE SMOOTH"
);
},
{
closed = 1;
nodes = (
"359 -8 OFFCURVE",
"445 81 OFFCURVE",
"445 215 CURVE SMOOTH",
"445 485 LINE SMOOTH",
"445 619 OFFCURVE",
"359 708 OFFCURVE",
"228 708 CURVE SMOOTH",
"98 708 OFFCURVE",
"12 619 OFFCURVE",
"12 485 CURVE SMOOTH",
"12 215 LINE SMOOTH",
"12 81 OFFCURVE",
"98 -8 OFFCURVE",
"228 -8 CURVE SMOOTH"
);
}
);
width = 462;
},
{
layerId = "FFFA8D72-12AC-4CE0-B2CA-57A29829F4DA";
paths = (
{
closed = 1;
nodes = (
"358 -87 LINE",
"358 113 LINE",
"170 113 LINE",
"170 -87 LINE"
);
},
{
closed = 1;
nodes = (
"226 153 OFFCURVE",
"200 184 OFFCURVE",
"200 230 CURVE SMOOTH",
"200 470 LINE SMOOTH",
"200 516 OFFCURVE",
"226 547 OFFCURVE",
"264 547 CURVE SMOOTH",
"303 547 OFFCURVE",
"329 516 OFFCURVE",
"329 470 CURVE SMOOTH",
"329 230 LINE SMOOTH",
"329 184 OFFCURVE",
"303 153 OFFCURVE",
"264 153 CURVE SMOOTH"
);
},
{
closed = 1;
nodes = (
"415 -8 OFFCURVE",
"516 85 OFFCURVE",
"516 225 CURVE SMOOTH",
"516 460 LINE SMOOTH",
"516 612 OFFCURVE",
"415 708 OFFCURVE",
"264 708 CURVE SMOOTH",
"113 708 OFFCURVE",
"12 612 OFFCURVE",
"12 460 CURVE SMOOTH",
"12 225 LINE SMOOTH",
"12 85 OFFCURVE",
"113 -8 OFFCURVE",
"264 -8 CURVE SMOOTH"
);
}
);
width = 537;
},
{
layerId = "DCBE1F7B-116A-43E0-B7B4-8657BA77D8B5";
paths = (
{
closed = 1;
nodes = (
"199 -127 LINE",
"199 0 LINE",
"176 0 LINE",
"176 -127 LINE"
);
},
{
closed = 1;
nodes = (
"115 12 OFFCURVE",
"64 68 OFFCURVE",
"64 149 CURVE SMOOTH",
"64 551 LINE SMOOTH",
"64 632 OFFCURVE",
"115 688 OFFCURVE",
"188 688 CURVE SMOOTH",
"261 688 OFFCURVE",
"311 632 OFFCURVE",
"311 551 CURVE SMOOTH",
"311 149 LINE SMOOTH",
"311 68 OFFCURVE",
"261 12 OFFCURVE",
"188 12 CURVE SMOOTH"
);
},
{
closed = 1;
nodes = (
"274 -9 OFFCURVE",
"333 57 OFFCURVE",
"333 151 CURVE SMOOTH",
"333 549 LINE SMOOTH",
"333 643 OFFCURVE",
"274 709 OFFCURVE",
"188 709 CURVE SMOOTH",
"102 709 OFFCURVE",
"42 643 OFFCURVE",
"42 549 CURVE SMOOTH",
"42 151 LINE SMOOTH",
"42 57 OFFCURVE",
"102 -9 OFFCURVE",
"188 -9 CURVE SMOOTH"
);
}
);
width = 388;
}
);
leftKerningGroup = C;
unicode = 0051;
},
{
glyphname = R;
lastChange = "2017-02-08 03:33:47 +0000";
layers = (
{
layerId = "262880E7-CFE1-4BDA-902E-E24798F3240A";
paths = (
{
closed = 1;
nodes = (
"94 0 LINE",
"94 681 LINE",
"278 681 LINE SMOOTH",
"368 681 OFFCURVE",
"429 617 OFFCURVE",
"429 522 CURVE SMOOTH",
"429 429 OFFCURVE",
"368 365 OFFCURVE",
"278 365 CURVE SMOOTH",
"89 365 LINE",
"89 344 LINE",
"276 344 LINE SMOOTH",
"381 344 OFFCURVE",
"451 415 OFFCURVE",
"451 522 CURVE SMOOTH",
"451 629 OFFCURVE",
"381 702 OFFCURVE",
"276 702 CURVE SMOOTH",
"72 702 LINE",
"72 0 LINE"
);
},
{
closed = 1;
nodes = (
"464 0 LINE",
"325 353 LINE",
"307 345 LINE",
"442 0 LINE"
);
}
);
width = 518;
},
{
layerId = "4E2227F3-52E4-4048-A8EE-327B486EF0A4";
paths = (
{
closed = 1;
nodes = (
"204 0 LINE",
"204 539 LINE",
"223 539 LINE SMOOTH",
"252 539 OFFCURVE",
"273 518 OFFCURVE",
"273 475 CURVE SMOOTH",
"273 434 OFFCURVE",
"252 412 OFFCURVE",
"223 412 CURVE SMOOTH",
"188 412 LINE",
"188 269 LINE",
"266 269 LINE SMOOTH",
"382 269 OFFCURVE",
"461 352 OFFCURVE",
"461 477 CURVE SMOOTH",
"461 608 OFFCURVE",
"378 700 OFFCURVE",
"256 700 CURVE SMOOTH",
"16 700 LINE",
"16 0 LINE"
);
},
{
closed = 1;
nodes = (
"470 0 LINE",
"371 349 LINE",
"192 349 LINE",
"276 0 LINE"
);
}
);
width = 482;
},
{
layerId = "FFFA8D72-12AC-4CE0-B2CA-57A29829F4DA";
paths = (
{
closed = 1;
nodes = (
"204 0 LINE",
"204 539 LINE",
"273 539 LINE SMOOTH",
"316 539 OFFCURVE",
"345 513 OFFCURVE",
"345 475 CURVE SMOOTH",
"345 437 OFFCURVE",
"316 412 OFFCURVE",
"273 412 CURVE SMOOTH",
"187 412 LINE",
"187 269 LINE",
"304 269 LINE SMOOTH",
"441 269 OFFCURVE",
"532 352 OFFCURVE",
"532 477 CURVE SMOOTH",
"532 611 OFFCURVE",
"441 700 OFFCURVE",
"304 700 CURVE SMOOTH",
"16 700 LINE",
"16 0 LINE"
);
},
{
closed = 1;
nodes = (
"544 0 LINE",
"417 349 LINE",
"239 349 LINE",
"351 0 LINE"
);
}
);
width = 556;
},
{
layerId = "DCBE1F7B-116A-43E0-B7B4-8657BA77D8B5";
paths = (
{
closed = 1;
nodes = (
"78 0 LINE",
"78 681 LINE",
"204 681 LINE SMOOTH",
"278 681 OFFCURVE",
"327 617 OFFCURVE",
"327 522 CURVE SMOOTH",
"327 428 OFFCURVE",
"278 365 OFFCURVE",
"204 365 CURVE SMOOTH",
"74 365 LINE",
"74 344 LINE",
"204 344 LINE SMOOTH",
"291 344 OFFCURVE",
"349 415 OFFCURVE",
"349 522 CURVE SMOOTH",
"349 630 OFFCURVE",
"291 702 OFFCURVE",
"204 702 CURVE SMOOTH",
"56 702 LINE",
"56 0 LINE"
);
},
{
closed = 1;
nodes = (
"354 0 LINE",
"240 353 LINE",
"221 345 LINE",
"332 0 LINE"
);
}
);
width = 396;
}
);
rightKerningGroup = R;
unicode = 0052;
},
{
color = 3;
glyphname = S;
lastChange = "2017-01-20 08:41:53 +0000";
layers = (
{
layerId = "262880E7-CFE1-4BDA-902E-E24798F3240A";
paths = (
{
closed = 1;
nodes = (
"363 -9 OFFCURVE",
"443 60 OFFCURVE",
"443 163 CURVE SMOOTH",
"443 273 OFFCURVE",
"344 312 OFFCURVE",
"250 364 CURVE SMOOTH",
"159 414 OFFCURVE",
"67 443 OFFCURVE",
"67 536 CURVE SMOOTH",
"67 627 OFFCURVE",
"136 688 OFFCURVE",
"240 688 CURVE SMOOTH",
"344 688 OFFCURVE",
"414 626 OFFCURVE",
"414 534 CURVE SMOOTH",
"414 500 LINE",
"436 500 LINE",
"436 535 LINE SMOOTH",
"436 639 OFFCURVE",
"358 709 OFFCURVE",
"240 709 CURVE SMOOTH",
"123 709 OFFCURVE",
"45 641 OFFCURVE",
"45 538 CURVE SMOOTH",
"45 434 OFFCURVE",
"143 400 OFFCURVE",
"235 348 CURVE SMOOTH",
"325 297 OFFCURVE",
"421 262 OFFCURVE",
"421 163 CURVE SMOOTH",
"421 72 OFFCURVE",
"349 12 OFFCURVE",
"241 12 CURVE SMOOTH",
"136 12 OFFCURVE",
"66 73 OFFCURVE",
"66 165 CURVE SMOOTH",
"66 210 LINE",
"46 210 LINE",
"46 164 LINE SMOOTH",
"46 60 OFFCURVE",
"124 -9 OFFCURVE",
"243 -9 CURVE SMOOTH"
);
}
);
width = 488;
},
{
layerId = "4E2227F3-52E4-4048-A8EE-327B486EF0A4";
paths = (
{
closed = 1;
nodes = (
"354 -8 OFFCURVE",
"441 70 OFFCURVE",
"441 187 CURVE SMOOTH",
"441 287 OFFCURVE",
"380 338 OFFCURVE",
"275 412 CURVE SMOOTH",
"212 457 OFFCURVE",
"195 470 OFFCURVE",
"195 500 CURVE SMOOTH",
"195 524 OFFCURVE",
"206 538 OFFCURVE",
"223 538 CURVE SMOOTH",
"240 538 OFFCURVE",
"252 524 OFFCURVE",
"252 504 CURVE SMOOTH",
"252 472 LINE",
"437 472 LINE",
"437 509 LINE SMOOTH",
"437 628 OFFCURVE",
"352 708 OFFCURVE",
"223 708 CURVE SMOOTH",
"95 708 OFFCURVE",
"10 628 OFFCURVE",
"10 510 CURVE SMOOTH",
"10 387 OFFCURVE",
"101 322 OFFCURVE",
"173 272 CURVE SMOOTH",
"243 224 OFFCURVE",
"256 215 OFFCURVE",
"256 194 CURVE SMOOTH",
"256 175 OFFCURVE",
"244 162 OFFCURVE",
"228 162 CURVE SMOOTH",
"212 162 OFFCURVE",
"200 176 OFFCURVE",
"200 198 CURVE SMOOTH",
"200 229 LINE",
"14 229 LINE",
"14 180 LINE SMOOTH",
"14 70 OFFCURVE",
"98 -8 OFFCURVE",
"227 -8 CURVE SMOOTH"
);
}
);
width = 451;
},
{
layerId = "FFFA8D72-12AC-4CE0-B2CA-57A29829F4DA";
paths = (
{
closed = 1;
nodes = (
"400 -8 OFFCURVE",
"498 66 OFFCURVE",
"498 190 CURVE SMOOTH",
"498 285 OFFCURVE",
"440 342 OFFCURVE",
"332 398 CURVE SMOOTH",
"246 442 OFFCURVE",
"195 451 OFFCURVE",
"195 496 CURVE SMOOTH",
"195 523 OFFCURVE",
"214 538 OFFCURVE",
"246 538 CURVE SMOOTH",
"284 538 OFFCURVE",
"309 518 OFFCURVE",
"309 488 CURVE SMOOTH",
"309 462 LINE",
"494 462 LINE",
"494 509 LINE SMOOTH",
"494 628 OFFCURVE",
"397 708 OFFCURVE",
"251 708 CURVE SMOOTH",
"107 708 OFFCURVE",
"10 631 OFFCURVE",
"10 504 CURVE SMOOTH",
"10 398 OFFCURVE",
"77 351 OFFCURVE",
"173 296 CURVE SMOOTH",
"281 234 OFFCURVE",
"313 230 OFFCURVE",
"313 200 CURVE SMOOTH",
"313 175 OFFCURVE",
"291 162 OFFCURVE",
"261 162 CURVE SMOOTH",
"223 162 OFFCURVE",
"200 183 OFFCURVE",
"200 214 CURVE SMOOTH",
"200 241 LINE",
"14 241 LINE",
"14 180 LINE SMOOTH",
"14 67 OFFCURVE",
"109 -8 OFFCURVE",
"255 -8 CURVE SMOOTH"
);
}
);
width = 508;
},
{
layerId = "DCBE1F7B-116A-43E0-B7B4-8657BA77D8B5";
paths = (
{
closed = 1;
nodes = (
"280 -9 OFFCURVE",
"342 60 OFFCURVE",
"342 163 CURVE SMOOTH",
"342 273 OFFCURVE",
"268 312 OFFCURVE",
"194 364 CURVE SMOOTH",
"125 413 OFFCURVE",
"57 443 OFFCURVE",
"57 536 CURVE SMOOTH",
"57 627 OFFCURVE",
"108 688 OFFCURVE",
"185 688 CURVE SMOOTH",
"262 688 OFFCURVE",
"314 626 OFFCURVE",
"314 534 CURVE SMOOTH",
"314 500 LINE",
"336 500 LINE",
"336 535 LINE SMOOTH",
"336 639 OFFCURVE",
"276 709 OFFCURVE",
"185 709 CURVE SMOOTH",
"95 709 OFFCURVE",
"35 641 OFFCURVE",
"35 538 CURVE SMOOTH",
"35 434 OFFCURVE",
"108 400 OFFCURVE",
"179 348 CURVE SMOOTH",
"249 297 OFFCURVE",
"320 262 OFFCURVE",
"320 163 CURVE SMOOTH",
"320 72 OFFCURVE",
"266 12 OFFCURVE",
"186 12 CURVE SMOOTH",
"108 12 OFFCURVE",
"56 73 OFFCURVE",
"56 165 CURVE SMOOTH",
"56 210 LINE",
"35 210 LINE",
"35 164 LINE SMOOTH",
"35 60 OFFCURVE",
"96 -9 OFFCURVE",
"187 -9 CURVE SMOOTH"
);
}
);
width = 377;
},
{
associatedMasterId = "4E2227F3-52E4-4048-A8EE-327B486EF0A4";
layerId = "03078EBB-6EAB-41F0-AE5D-9F8E402CC504";
name = "{100,5}";
paths = (
{
closed = 1;
nodes = (
"380 -9 OFFCURVE",
"468 68 OFFCURVE",
"468 179 CURVE SMOOTH",
"468 245 OFFCURVE",
"437 306 OFFCURVE",
"288 385 CURVE SMOOTH",
"196 434 OFFCURVE",
"126 455 OFFCURVE",
"126 527 CURVE SMOOTH",
"126 586 OFFCURVE",
"173 618 OFFCURVE",
"240 618 CURVE SMOOTH",
"317 618 OFFCURVE",
"365 576 OFFCURVE",
"365 513 CURVE SMOOTH",
"365 487 LINE",
"463 487 LINE",
"463 519 LINE SMOOTH",
"463 633 OFFCURVE",
"378 709 OFFCURVE",
"243 709 CURVE SMOOTH",
"129 709 OFFCURVE",
"28 655 OFFCURVE",
"28 522 CURVE SMOOTH",
"28 425 OFFCURVE",
"81 383 OFFCURVE",
"206 314 CURVE SMOOTH",
"305 259 OFFCURVE",
"370 234 OFFCURVE",
"370 170 CURVE SMOOTH",
"370 115 OFFCURVE",
"321 82 OFFCURVE",
"253 82 CURVE SMOOTH",
"176 82 OFFCURVE",
"128 124 OFFCURVE",
"128 188 CURVE SMOOTH",
"128 219 LINE",
"31 219 LINE",
"31 171 LINE SMOOTH",
"31 63 OFFCURVE",
"117 -9 OFFCURVE",
"247 -9 CURVE SMOOTH"
);
}
);
width = 497;
visible = 1;
}
);
leftKerningGroup = S;
rightKerningGroup = S;
unicode = 0053;
},
{
glyphname = T;
lastChange = "2017-01-20 08:41:53 +0000";
layers = (
{
layerId = "262880E7-CFE1-4BDA-902E-E24798F3240A";
paths = (
{
closed = 1;
nodes = (
"243 0 LINE",
"243 689 LINE",
"221 689 LINE",
"221 0 LINE"
);
},
{
closed = 1;
nodes = (
"438 679 LINE",
"438 700 LINE",
"36 700 LINE",
"36 679 LINE"
);
}
);
width = 456;
},
{
layerId = "4E2227F3-52E4-4048-A8EE-327B486EF0A4";
paths = (
{
closed = 1;
nodes = (
"332 0 LINE",
"332 689 LINE",
"144 689 LINE",
"144 0 LINE"
);
},
{
closed = 1;
nodes = (
"471 530 LINE",
"471 700 LINE",
"8 700 LINE",
"8 530 LINE"
);
}
);
width = 475;
},
{
layerId = "FFFA8D72-12AC-4CE0-B2CA-57A29829F4DA";
paths = (
{
closed = 1;
nodes = (
"369 0 LINE",
"369 689 LINE",
"181 689 LINE",
"181 0 LINE"
);
},
{
closed = 1;
nodes = (
"547 530 LINE",
"547 700 LINE",
"8 700 LINE",
"8 530 LINE"
);
}
);
width = 551;
},
{
layerId = "DCBE1F7B-116A-43E0-B7B4-8657BA77D8B5";
paths = (
{
closed = 1;
nodes = (
"190 0 LINE",
"190 689 LINE",
"168 689 LINE",
"168 0 LINE"
);
},
{
closed = 1;
nodes = (
"339 679 LINE",
"339 700 LINE",
"28 700 LINE",
"28 679 LINE"
);
}
);
width = 353;
}
);
leftKerningGroup = T;
rightKerningGroup = T;
unicode = 0054;
},
{
glyphname = U;
lastChange = "2017-02-02 00:45:19 +0000";
layers = (
{
layerId = "262880E7-CFE1-4BDA-902E-E24798F3240A";
paths = (
{
closed = 1;
nodes = (
"380 -9 OFFCURVE",
"460 69 OFFCURVE",
"460 185 CURVE SMOOTH",
"460 700 LINE",
"438 700 LINE",
"438 181 LINE SMOOTH",
"438 80 OFFCURVE",
"367 12 OFFCURVE",
"261 12 CURVE SMOOTH",
"155 12 OFFCURVE",
"85 80 OFFCURVE",
"85 181 CURVE SMOOTH",
"85 700 LINE",
"63 700 LINE",
"63 185 LINE SMOOTH",
"63 69 OFFCURVE",
"142 -9 OFFCURVE",
"261 -9 CURVE SMOOTH"
);
}
);
width = 523;
},
{
layerId = "4E2227F3-52E4-4048-A8EE-327B486EF0A4";
paths = (
{
closed = 1;
nodes = (
"361 -8 OFFCURVE",
"447 78 OFFCURVE",
"447 208 CURVE SMOOTH",
"447 700 LINE",
"259 700 LINE",
"259 190 LINE SMOOTH",
"259 168 OFFCURVE",
"248 153 OFFCURVE",
"231 153 CURVE SMOOTH",
"213 153 OFFCURVE",
"202 168 OFFCURVE",
"202 190 CURVE SMOOTH",
"202 700 LINE",
"14 700 LINE",
"14 208 LINE SMOOTH",
"14 78 OFFCURVE",
"100 -8 OFFCURVE",
"231 -8 CURVE SMOOTH"
);
}
);
width = 461;
},
{
layerId = "FFFA8D72-12AC-4CE0-B2CA-57A29829F4DA";
paths = (
{
closed = 1;
nodes = (
"419 -8 OFFCURVE",
"521 81 OFFCURVE",
"521 223 CURVE SMOOTH",
"521 700 LINE",
"333 700 LINE",
"333 220 LINE SMOOTH",
"333 180 OFFCURVE",
"307 153 OFFCURVE",
"267 153 CURVE SMOOTH",
"227 153 OFFCURVE",
"200 180 OFFCURVE",
"200 220 CURVE SMOOTH",
"200 700 LINE",
"12 700 LINE",
"12 223 LINE SMOOTH",
"12 81 OFFCURVE",
"114 -8 OFFCURVE",
"267 -8 CURVE SMOOTH"
);
}
);
width = 533;
},
{
layerId = "DCBE1F7B-116A-43E0-B7B4-8657BA77D8B5";
paths = (
{
closed = 1;
nodes = (
"293 -9 OFFCURVE",
"355 65 OFFCURVE",
"355 175 CURVE SMOOTH",
"355 700 LINE",
"333 700 LINE",
"333 171 LINE SMOOTH",
"333 76 OFFCURVE",
"280 12 OFFCURVE",
"201 12 CURVE SMOOTH",
"123 12 OFFCURVE",
"71 76 OFFCURVE",
"71 171 CURVE SMOOTH",
"71 700 LINE",
"49 700 LINE",
"49 175 LINE SMOOTH",
"49 65 OFFCURVE",
"110 -9 OFFCURVE",
"201 -9 CURVE SMOOTH"
);
}
);
width = 404;
}
);
rightKerningGroup = U;
unicode = 0055;
},
{
glyphname = V;
lastChange = "2017-01-20 08:41:53 +0000";
layers = (
{
layerId = "262880E7-CFE1-4BDA-902E-E24798F3240A";
paths = (
{
closed = 1;
nodes = (
"258 0 LINE",
"468 700 LINE",
"446 700 LINE",
"247 42 LINE",
"49 700 LINE",
"27 700 LINE",
"236 0 LINE"
);
}
);
width = 495;
},
{
layerId = "4E2227F3-52E4-4048-A8EE-327B486EF0A4";
paths = (
{
closed = 1;
nodes = (
"355 0 LINE",
"503 700 LINE",
"305 700 LINE",
"259 305 LINE",
"209 700 LINE",
"6 700 LINE",
"152 0 LINE"
);
}
);
width = 509;
},
{
layerId = "FFFA8D72-12AC-4CE0-B2CA-57A29829F4DA";
paths = (
{
closed = 1;
nodes = (
"397 0 LINE",
"587 700 LINE",
"389 700 LINE",
"301 296 LINE",
"208 700 LINE",
"6 700 LINE",
"194 0 LINE"
);
}
);
width = 593;
},
{
layerId = "DCBE1F7B-116A-43E0-B7B4-8657BA77D8B5";
paths = (
{
closed = 1;
nodes = (
"202 0 LINE",
"361 700 LINE",
"339 700 LINE",
"191 42 LINE",
"44 700 LINE",
"21 700 LINE",
"180 0 LINE"
);
}
);
width = 382;
}
);
leftKerningGroup = V;
rightKerningGroup = V;
unicode = 0056;
},
{
glyphname = W;
lastChange = "2017-02-08 03:31:21 +0000";
layers = (
{
layerId = "262880E7-CFE1-4BDA-902E-E24798F3240A";
paths = (
{
closed = 1;
nodes = (
"208 0 LINE",
"363 656 LINE",
"514 0 LINE",
"536 0 LINE",
"697 700 LINE",
"675 700 LINE",
"526 40 LINE",
"373 700 LINE",
"351 700 LINE",
"198 40 LINE",
"49 700 LINE",
"27 700 LINE",
"186 0 LINE"
);
}
);
width = 724;
},
{
layerId = "4E2227F3-52E4-4048-A8EE-327B486EF0A4";
paths = (
{
closed = 1;
nodes = (
"313 0 LINE",
"352 362 LINE",
"400 0 LINE",
"564 0 LINE",
"698 700 LINE",
"504 700 LINE",
"483 352 LINE",
"432 700 LINE",
"266 700 LINE",
"231 352 LINE",
"204 700 LINE",
"6 700 LINE",
"148 0 LINE"
);
}
);
width = 704;
},
{
layerId = "FFFA8D72-12AC-4CE0-B2CA-57A29829F4DA";
paths = (
{
closed = 1;
nodes = (
"333 0 LINE",
"392 372 LINE",
"464 0 LINE",
"654 0 LINE",
"777 700 LINE",
"589 700 LINE",
"548 348 LINE",
"483 700 LINE",
"300 700 LINE",
"251 348 LINE",
"204 700 LINE",
"6 700 LINE",
"155 0 LINE"
);
}
);
width = 783;
},
{
layerId = "DCBE1F7B-116A-43E0-B7B4-8657BA77D8B5";
paths = (
{
closed = 1;
nodes = (
"166 0 LINE",
"280 656 LINE",
"390 0 LINE",
"413 0 LINE",
"539 700 LINE",
"515 700 LINE",
"403 40 LINE",
"291 700 LINE",
"268 700 LINE",
"156 40 LINE",
"44 700 LINE",
"21 700 LINE",
"144 0 LINE"
);
}
);
width = 560;
}
);
leftKerningGroup = V;
rightKerningGroup = V;
unicode = 0057;
},
{
glyphname = X;
lastChange = "2017-01-20 08:41:53 +0000";
layers = (
{
layerId = "262880E7-CFE1-4BDA-902E-E24798F3240A";
paths = (
{
closed = 1;
nodes = (
"52 0 LINE",
"235 330 LINE",
"417 0 LINE",
"442 0 LINE",
"245 349 LINE",
"442 700 LINE",
"417 700 LINE",
"235 369 LINE",
"52 700 LINE",
"27 700 LINE",
"224 350 LINE",
"27 0 LINE"
);
}
);
width = 469;
},
{
layerId = "4E2227F3-52E4-4048-A8EE-327B486EF0A4";
paths = (
{
closed = 1;
nodes = (
"197 0 LINE",
"246 162 LINE",
"295 0 LINE",
"485 0 LINE",
"345 350 LINE",
"485 700 LINE",
"294 700 LINE",
"246 537 LINE",
"198 700 LINE",
"6 700 LINE",
"146 350 LINE",
"6 0 LINE"
);
}
);
width = 491;
},
{
layerId = "FFFA8D72-12AC-4CE0-B2CA-57A29829F4DA";
paths = (
{
closed = 1;
nodes = (
"197 0 LINE",
"285 196 LINE",
"373 0 LINE",
"563 0 LINE",
"384 350 LINE",
"563 700 LINE",
"372 700 LINE",
"285 503 LINE",
"198 700 LINE",
"6 700 LINE",
"186 350 LINE",
"6 0 LINE"
);
}
);
width = 569;
},
{
layerId = "DCBE1F7B-116A-43E0-B7B4-8657BA77D8B5";
paths = (
{
closed = 1;
nodes = (
"46 0 LINE",
"182 330 LINE",
"317 0 LINE",
"342 0 LINE",
"192 349 LINE",
"342 700 LINE",
"317 700 LINE",
"182 369 LINE",
"46 700 LINE",
"21 700 LINE",
"170 350 LINE",
"21 0 LINE"
);
}
);
width = 363;
}
);
rightKerningGroup = X;
unicode = 0058;
},
{
glyphname = Y;
lastChange = "2017-01-20 08:49:16 +0000";
layers = (
{
layerId = "262880E7-CFE1-4BDA-902E-E24798F3240A";
paths = (
{
closed = 1;
nodes = (
"242 0 LINE",
"242 339 LINE",
"435 700 LINE",
"413 700 LINE",
"231 358 LINE",
"49 700 LINE",
"27 700 LINE",
"220 339 LINE",
"220 0 LINE"
);
}
);
width = 462;
},
{
layerId = "4E2227F3-52E4-4048-A8EE-327B486EF0A4";
paths = (
{
closed = 1;
nodes = (
"341 2 LINE",
"341 251 LINE",
"490 700 LINE",
"292 700 LINE",
"248 471 LINE",
"204 700 LINE",
"6 700 LINE",
"153 251 LINE",
"153 2 LINE"
);
}
);
width = 496;
},
{
layerId = "FFFA8D72-12AC-4CE0-B2CA-57A29829F4DA";
paths = (
{
closed = 1;
nodes = (
"379 2 LINE",
"379 251 LINE",
"567 700 LINE",
"369 700 LINE",
"286 461 LINE",
"203 700 LINE",
"6 700 LINE",
"192 251 LINE",
"192 2 LINE"
);
}
);
width = 573;
},
{
layerId = "DCBE1F7B-116A-43E0-B7B4-8657BA77D8B5";
paths = (
{
closed = 1;
nodes = (
"190 0 LINE",
"190 339 LINE",
"336 700 LINE",
"313 700 LINE",
"179 358 LINE",
"44 700 LINE",
"21 700 LINE",
"168 339 LINE",
"168 0 LINE"
);
}
);
width = 357;
}
);
leftKerningGroup = Y;
unicode = 0059;
},
{
glyphname = Z;
lastChange = "2017-01-20 08:41:53 +0000";
layers = (
{
layerId = "262880E7-CFE1-4BDA-902E-E24798F3240A";
paths = (
{
closed = 1;
nodes = (
"406 0 LINE",
"406 21 LINE",
"52 21 LINE",
"406 679 LINE",
"406 700 LINE",
"27 700 LINE",
"27 679 LINE",
"382 679 LINE",
"27 21 LINE",
"27 0 LINE"
);
}
);
width = 442;
},
{
layerId = "4E2227F3-52E4-4048-A8EE-327B486EF0A4";
paths = (
{
closed = 1;
nodes = (
"404 0 LINE",
"404 170 LINE",
"202 170 LINE",
"404 530 LINE",
"404 700 LINE",
"6 700 LINE",
"6 530 LINE",
"206 530 LINE",
"6 170 LINE",
"6 0 LINE"
);
}
);
width = 412;
},
{
layerId = "FFFA8D72-12AC-4CE0-B2CA-57A29829F4DA";
paths = (
{
closed = 1;
nodes = (
"477 0 LINE",
"477 170 LINE",
"202 170 LINE",
"477 530 LINE",
"477 700 LINE",
"6 700 LINE",
"6 530 LINE",
"279 530 LINE",
"6 170 LINE",
"6 0 LINE"
);
}
);
width = 485;
},
{
layerId = "DCBE1F7B-116A-43E0-B7B4-8657BA77D8B5";
paths = (
{
closed = 1;
nodes = (
"313 0 LINE",
"313 21 LINE",
"46 21 LINE",
"313 679 LINE",
"313 700 LINE",
"21 700 LINE",
"21 679 LINE",
"289 679 LINE",
"21 21 LINE",
"21 0 LINE"
);
}
);
width = 341;
}
);
leftKerningGroup = Z;
rightKerningGroup = Z;
unicode = 005A;
},
{
glyphname = a;
lastChange = "2017-02-08 03:38:48 +0000";
layers = (
{
layerId = "262880E7-CFE1-4BDA-902E-E24798F3240A";
paths = (
{
closed = 1;
nodes = (
"389 0 LINE",
"389 342 LINE SMOOTH",
"389 447 OFFCURVE",
"334 508 OFFCURVE",
"230 508 CURVE SMOOTH",
"129 508 OFFCURVE",
"63 450 OFFCURVE",
"63 372 CURVE SMOOTH",
"63 371 LINE",
"85 371 LINE",
"85 375 LINE SMOOTH",
"85 438 OFFCURVE",
"143 487 OFFCURVE",
"230 487 CURVE SMOOTH",
"320 487 OFFCURVE",
"367 434 OFFCURVE",
"367 345 CURVE SMOOTH",
"367 0 LINE"
);
},
{
closed = 1;
nodes = (
"293 -8 OFFCURVE",
"384 37 OFFCURVE",
"384 142 CURVE",
"384 277 LINE",
"237 277 LINE",
"103 277 OFFCURVE",
"36 226 OFFCURVE",
"36 125 CURVE SMOOTH",
"36 18 OFFCURVE",
"122 -8 OFFCURVE",
"191 -8 CURVE SMOOTH"
);
},
{
closed = 1;
nodes = (
"120 13 OFFCURVE",
"58 45 OFFCURVE",
"58 126 CURVE SMOOTH",
"58 213 OFFCURVE",
"122 256 OFFCURVE",
"237 256 CURVE",
"367 256 LINE",
"367 142 LINE SMOOTH",
"367 52 OFFCURVE",
"281 13 OFFCURVE",
"193 13 CURVE SMOOTH"
);
}
);
width = 461;
},
{
layerId = "4E2227F3-52E4-4048-A8EE-327B486EF0A4";
paths = (
{
closed = 1;
nodes = (
"445 0 LINE",
"445 360 LINE SMOOTH",
"445 461 OFFCURVE",
"358 528 OFFCURVE",
"228 528 CURVE SMOOTH",
"101 528 OFFCURVE",
"13 450 OFFCURVE",
"13 360 CURVE SMOOTH",
"13 339 LINE",
"202 332 LINE",
"202 337 LINE SMOOTH",
"202 355 OFFCURVE",
"213 367 OFFCURVE",
"228 367 CURVE SMOOTH",
"245 367 OFFCURVE",
"257 355 OFFCURVE",
"257 337 CURVE SMOOTH",
"257 0 LINE"
);
},
{
closed = 1;
nodes = (
"260 -7 OFFCURVE",
"296 59 OFFCURVE",
"296 197 CURVE",
"296 313 LINE",
"217 313 LINE",
"91 313 OFFCURVE",
"8 297 OFFCURVE",
"8 151 CURVE SMOOTH",
"8 7 OFFCURVE",
"86 -9 OFFCURVE",
"155 -8 CURVE SMOOTH"
);
},
{
closed = 1;
nodes = (
"212 125 OFFCURVE",
"200 134 OFFCURVE",
"200 153 CURVE SMOOTH",
"200 170 OFFCURVE",
"212 185 OFFCURVE",
"231 185 CURVE",
"257 185 LINE",
"257 152 LINE SMOOTH",
"257 135 OFFCURVE",
"239 125 OFFCURVE",
"225 125 CURVE SMOOTH"
);
}
);
width = 461;
},
{
associatedMasterId = "4E2227F3-52E4-4048-A8EE-327B486EF0A4";
layerId = "ECDB5D87-04FB-4DD9-B431-22FBE4ECF321";
name = "{100,5}";
paths = (
{
closed = 1;
nodes = (
"442 0 LINE",
"442 350 LINE SMOOTH",
"442 450 OFFCURVE",
"362 517 OFFCURVE",
"241 517 CURVE SMOOTH",
"120 517 OFFCURVE",
"40 453 OFFCURVE",
"40 370 CURVE SMOOTH",
"40 354 LINE",
"139 354 LINE",
"139 359 LINE SMOOTH",
"139 397 OFFCURVE",
"181 431 OFFCURVE",
"243 431 CURVE SMOOTH",
"302 431 OFFCURVE",
"342 393 OFFCURVE",
"342 337 CURVE SMOOTH",
"342 0 LINE"
);
},
{
closed = 1;
nodes = (
"308 -5 OFFCURVE",
"380 44 OFFCURVE",
"380 181 CURVE",
"380 301 LINE",
"239 301 LINE",
"96 301 OFFCURVE",
"23 245 OFFCURVE",
"23 137 CURVE SMOOTH",
"23 38 OFFCURVE",
"84 -11 OFFCURVE",
"203 -8 CURVE SMOOTH"
);
},
{
closed = 1;
nodes = (
"151 81 OFFCURVE",
"123 104 OFFCURVE",
"123 148 CURVE SMOOTH",
"123 194 OFFCURVE",
"162 218 OFFCURVE",
"239 218 CURVE",
"342 218 LINE",
"342 183 LINE SMOOTH",
"342 123 OFFCURVE",
"286 81 OFFCURVE",
"205 81 CURVE SMOOTH"
);
}
);
width = 487;
},
{
layerId = "FFFA8D72-12AC-4CE0-B2CA-57A29829F4DA";
paths = (
{
closed = 1;
nodes = (
"503 0 LINE",
"503 360 LINE SMOOTH",
"503 456 OFFCURVE",
"395 528 OFFCURVE",
"252 528 CURVE SMOOTH",
"116 528 OFFCURVE",
"14 456 OFFCURVE",
"14 360 CURVE SMOOTH",
"14 334 LINE",
"202 327 LINE",
"202 327 LINE SMOOTH",
"202 351 OFFCURVE",
"224 367 OFFCURVE",
"258 367 CURVE SMOOTH",
"292 367 OFFCURVE",
"315 346 OFFCURVE",
"315 314 CURVE SMOOTH",
"315 0 LINE"
);
},
{
closed = 1;
nodes = (
"289 -4 OFFCURVE",
"354 40 OFFCURVE",
"354 182 CURVE",
"354 298 LINE",
"217 298 LINE",
"95 298 OFFCURVE",
"8 257 OFFCURVE",
"8 156 CURVE SMOOTH",
"8 8 OFFCURVE",
"104 -11 OFFCURVE",
"175 -8 CURVE SMOOTH"
);
},
{
closed = 1;
nodes = (
"215 115 OFFCURVE",
"196 134 OFFCURVE",
"196 158 CURVE SMOOTH",
"196 180 OFFCURVE",
"212 201 OFFCURVE",
"260 201 CURVE",
"315 201 LINE",
"315 165 LINE SMOOTH",
"315 140 OFFCURVE",
"280 115 OFFCURVE",
"246 115 CURVE SMOOTH"
);
}
);
width = 519;
},
{
layerId = "DCBE1F7B-116A-43E0-B7B4-8657BA77D8B5";
paths = (
{
closed = 1;
nodes = (
"302 0 LINE",
"302 342 LINE SMOOTH",
"302 447 OFFCURVE",
"259 508 OFFCURVE",
"178 508 CURVE SMOOTH",
"99 508 OFFCURVE",
"47 458 OFFCURVE",
"47 382 CURVE SMOOTH",
"47 381 LINE",
"70 381 LINE",
"70 385 LINE SMOOTH",
"70 446 OFFCURVE",
"113 487 OFFCURVE",
"177 487 CURVE SMOOTH",
"245 487 OFFCURVE",
"279 434 OFFCURVE",
"279 345 CURVE SMOOTH",
"279 0 LINE"
);
},
{
closed = 1;
nodes = (
"225 -8 OFFCURVE",
"294 37 OFFCURVE",
"294 142 CURVE",
"294 290 LINE",
"182 283 LINE SMOOTH",
"93 277 OFFCURVE",
"28 236 OFFCURVE",
"28 126 CURVE SMOOTH",
"28 18 OFFCURVE",
"92 -8 OFFCURVE",
"149 -8 CURVE SMOOTH"
);
},
{
closed = 1;
nodes = (
"95 13 OFFCURVE",
"50 45 OFFCURVE",
"50 127 CURVE SMOOTH",
"50 219 OFFCURVE",
"106 256 OFFCURVE",
"184 262 CURVE SMOOTH",
"279 269 LINE",
"279 142 LINE SMOOTH",
"279 52 OFFCURVE",
"215 13 OFFCURVE",
"152 13 CURVE SMOOTH"
);
}
);
width = 358;
},
{
associatedMasterId = "4E2227F3-52E4-4048-A8EE-327B486EF0A4";
layerId = "FAF4597E-2DB2-4F36-AC5C-F274557DEF62";
name = "{100,3}";
paths = (
{
closed = 1;
nodes = (
"367 0 LINE",
"367 350 LINE SMOOTH",
"367 454 OFFCURVE",
"302 517 OFFCURVE",
"201 517 CURVE SMOOTH",
"97 517 OFFCURVE",
"29 450 OFFCURVE",
"29 366 CURVE SMOOTH",
"29 355 LINE",
"129 352 LINE",
"129 357 LINE SMOOTH",
"129 399 OFFCURVE",
"158 431 OFFCURVE",
"200 431 CURVE SMOOTH",
"243 431 OFFCURVE",
"267 397 OFFCURVE",
"267 341 CURVE SMOOTH",
"267 0 LINE"
);
},
{
closed = 1;
nodes = (
"250 -8 OFFCURVE",
"303 45 OFFCURVE",
"303 178 CURVE",
"303 294 LINE",
"196 294 LINE",
"83 294 OFFCURVE",
"17 237 OFFCURVE",
"17 141 CURVE SMOOTH",
"17 47 OFFCURVE",
"68 -8 OFFCURVE",
"156 -8 CURVE SMOOTH"
);
},
{
closed = 1;
nodes = (
"149 85 OFFCURVE",
"118 102 OFFCURVE",
"118 143 CURVE SMOOTH",
"118 187 OFFCURVE",
"150 213 OFFCURVE",
"204 213 CURVE",
"267 213 LINE",
"267 167 LINE SMOOTH",
"267 111 OFFCURVE",
"225 85 OFFCURVE",
"184 85 CURVE SMOOTH"
);
}
);
width = 400;
}
);
leftKerningGroup = a;
rightKerningGroup = b;
unicode = 0061;
},
{
glyphname = b;
lastChange = "2017-01-20 08:41:53 +0000";
layers = (
{
components = (
{
name = b.bowl;
transform = "{1, 0, 0, 1, 74, 0}";
}
);
layerId = "262880E7-CFE1-4BDA-902E-E24798F3240A";
paths = (
{
closed = 1;
nodes = (
"94 0 LINE",
"94 700 LINE",
"72 700 LINE",
"72 0 LINE"
);
}
);
width = 479;
},
{
components = (
{
name = b.bowl;
transform = "{1, 0, 0, 1, 170, 0}";
}
);
layerId = "4E2227F3-52E4-4048-A8EE-327B486EF0A4";
paths = (
{
closed = 1;
nodes = (
"204 0 LINE",
"204 700 LINE",
"16 700 LINE",
"16 0 LINE"
);
}
);
width = 451;
},
{
components = (
{
name = b.bowl;
transform = "{1, 0, 0, 1, 145, 0}";
}
);
layerId = "FFFA8D72-12AC-4CE0-B2CA-57A29829F4DA";
paths = (
{
closed = 1;
nodes = (
"204 0 LINE",
"204 700 LINE",
"16 700 LINE",
"16 0 LINE"
);
}
);
width = 519;
},
{
components = (
{
name = b.bowl;
transform = "{1, 0, 0, 1, 63, 0}";
}
);
layerId = "DCBE1F7B-116A-43E0-B7B4-8657BA77D8B5";
paths = (
{
closed = 1;
nodes = (
"78 0 LINE",
"78 700 LINE",
"56 700 LINE",
"56 0 LINE"
);
}
);
width = 372;
}
);
leftKerningGroup = b;
rightKerningGroup = n;
unicode = 0062;
},
{
glyphname = c;
lastChange = "2017-02-08 03:49:57 +0000";
layers = (
{
layerId = "262880E7-CFE1-4BDA-902E-E24798F3240A";
paths = (
{
closed = 1;
nodes = (
"336 -8 OFFCURVE",
"404 50 OFFCURVE",
"404 136 CURVE SMOOTH",
"404 137 LINE",
"382 138 LINE",
"382 135 LINE SMOOTH",
"382 62 OFFCURVE",
"323 13 OFFCURVE",
"234 13 CURVE SMOOTH",
"145 13 OFFCURVE",
"85 73 OFFCURVE",
"85 162 CURVE SMOOTH",
"85 338 LINE SMOOTH",
"85 427 OFFCURVE",
"145 487 OFFCURVE",
"234 487 CURVE SMOOTH",
"323 487 OFFCURVE",
"382 438 OFFCURVE",
"382 365 CURVE SMOOTH",
"382 362 LINE",
"404 363 LINE",
"404 364 LINE SMOOTH",
"404 450 OFFCURVE",
"336 508 OFFCURVE",
"234 508 CURVE SMOOTH",
"131 508 OFFCURVE",
"63 440 OFFCURVE",
"63 337 CURVE SMOOTH",
"63 163 LINE SMOOTH",
"63 60 OFFCURVE",
"131 -8 OFFCURVE",
"234 -8 CURVE SMOOTH"
);
}
);
width = 458;
},
{
layerId = "4E2227F3-52E4-4048-A8EE-327B486EF0A4";
paths = (
{
closed = 1;
nodes = (
"363 -7 OFFCURVE",
"439 67 OFFCURVE",
"439 190 CURVE SMOOTH",
"439 207 LINE",
"251 212 LINE",
"251 185 LINE SMOOTH",
"251 164 OFFCURVE",
"243 153 OFFCURVE",
"227 153 CURVE SMOOTH",
"210 153 OFFCURVE",
"202 164 OFFCURVE",
"202 185 CURVE SMOOTH",
"202 336 LINE SMOOTH",
"202 357 OFFCURVE",
"210 368 OFFCURVE",
"227 368 CURVE SMOOTH",
"243 368 OFFCURVE",
"251 357 OFFCURVE",
"251 336 CURVE SMOOTH",
"251 307 LINE",
"439 313 LINE",
"439 330 LINE SMOOTH",
"439 454 OFFCURVE",
"363 528 OFFCURVE",
"227 528 CURVE SMOOTH",
"91 528 OFFCURVE",
"14 454 OFFCURVE",
"14 330 CURVE SMOOTH",
"14 190 LINE SMOOTH",
"14 67 OFFCURVE",
"91 -7 OFFCURVE",
"227 -7 CURVE SMOOTH"
);
}
);
width = 451;
},
{
layerId = "FFFA8D72-12AC-4CE0-B2CA-57A29829F4DA";
paths = (
{
closed = 1;
nodes = (
"405 -7 OFFCURVE",
"503 76 OFFCURVE",
"503 200 CURVE SMOOTH",
"503 200 LINE",
"315 212 LINE",
"315 210 LINE SMOOTH",
"315 176 OFFCURVE",
"293 153 OFFCURVE",
"259 153 CURVE SMOOTH",
"225 153 OFFCURVE",
"202 183 OFFCURVE",
"202 227 CURVE SMOOTH",
"202 294 LINE SMOOTH",
"202 338 OFFCURVE",
"225 368 OFFCURVE",
"259 368 CURVE SMOOTH",
"293 368 OFFCURVE",
"315 344 OFFCURVE",
"315 309 CURVE SMOOTH",
"315 307 LINE",
"503 316 LINE",
"503 330 LINE SMOOTH",
"503 449 OFFCURVE",
"405 528 OFFCURVE",
"259 528 CURVE SMOOTH",
"112 528 OFFCURVE",
"14 430 OFFCURVE",
"14 284 CURVE SMOOTH",
"14 238 LINE SMOOTH",
"14 91 OFFCURVE",
"112 -7 OFFCURVE",
"259 -7 CURVE SMOOTH"
);
}
);
width = 515;
},
{
layerId = "DCBE1F7B-116A-43E0-B7B4-8657BA77D8B5";
paths = (
{
closed = 1;
nodes = (
"260 -8 OFFCURVE",
"313 50 OFFCURVE",
"313 136 CURVE SMOOTH",
"313 137 LINE",
"291 138 LINE",
"291 135 LINE SMOOTH",
"291 62 OFFCURVE",
"247 13 OFFCURVE",
"182 13 CURVE SMOOTH",
"116 13 OFFCURVE",
"71 70 OFFCURVE",
"71 155 CURVE SMOOTH",
"71 345 LINE SMOOTH",
"71 430 OFFCURVE",
"116 487 OFFCURVE",
"182 487 CURVE SMOOTH",
"247 487 OFFCURVE",
"291 438 OFFCURVE",
"291 365 CURVE SMOOTH",
"291 362 LINE",
"313 363 LINE",
"313 364 LINE SMOOTH",
"313 450 OFFCURVE",
"260 508 OFFCURVE",
"182 508 CURVE SMOOTH",
"103 508 OFFCURVE",
"49 442 OFFCURVE",
"49 344 CURVE SMOOTH",
"49 156 LINE SMOOTH",
"49 58 OFFCURVE",
"103 -8 OFFCURVE",
"182 -8 CURVE SMOOTH"
);
}
);
width = 355;
}
);
leftKerningGroup = o;
rightKerningGroup = c;
unicode = 0063;
},
{
color = 1;
glyphname = e;
lastChange = "2017-02-08 03:50:18 +0000";
layers = (
{
layerId = "262880E7-CFE1-4BDA-902E-E24798F3240A";
paths = (
{
closed = 1;
nodes = (
"319 -8 OFFCURVE",
"385 39 OFFCURVE",
"401 109 CURVE",
"380 108 LINE",
"363 51 OFFCURVE",
"305 13 OFFCURVE",
"235 13 CURVE SMOOTH",
"145 13 OFFCURVE",
"85 73 OFFCURVE",
"85 162 CURVE SMOOTH",
"85 338 LINE SMOOTH",
"85 427 OFFCURVE",
"145 487 OFFCURVE",
"234 487 CURVE SMOOTH",
"324 487 OFFCURVE",
"384 427 OFFCURVE",
"384 338 CURVE SMOOTH",
"384 265 LINE",
"75 265 LINE",
"75 244 LINE",
"406 244 LINE",
"406 336 LINE SMOOTH",
"406 439 OFFCURVE",
"337 508 OFFCURVE",
"234 508 CURVE SMOOTH",
"131 508 OFFCURVE",
"63 440 OFFCURVE",
"63 337 CURVE SMOOTH",
"63 163 LINE SMOOTH",
"63 60 OFFCURVE",
"132 -8 OFFCURVE",
"235 -8 CURVE SMOOTH"
);
}
);
width = 460;
},
{
layerId = "FFFA8D72-12AC-4CE0-B2CA-57A29829F4DA";
paths = (
{
closed = 1;
nodes = (
"419 -7 OFFCURVE",
"500 93 OFFCURVE",
"499 175 CURVE",
"315 183 LINE",
"310 164 OFFCURVE",
"290 154 OFFCURVE",
"265 154 CURVE SMOOTH",
"222 154 OFFCURVE",
"202 184 OFFCURVE",
"202 226 CURVE SMOOTH",
"202 294 LINE SMOOTH",
"202 338 OFFCURVE",
"225 367 OFFCURVE",
"259 367 CURVE SMOOTH",
"293 367 OFFCURVE",
"315 338 OFFCURVE",
"315 294 CURVE",
"315 301 LINE",
"130 301 LINE",
"130 217 LINE",
"503 217 LINE",
"503 267 LINE SMOOTH",
"503 424 OFFCURVE",
"408 528 OFFCURVE",
"261 528 CURVE SMOOTH",
"115 528 OFFCURVE",
"14 425 OFFCURVE",
"14 271 CURVE SMOOTH",
"14 249 LINE SMOOTH",
"14 95 OFFCURVE",
"109 -7 OFFCURVE",
"261 -7 CURVE SMOOTH"
);
}
);
width = 515;
},
{
layerId = "4E2227F3-52E4-4048-A8EE-327B486EF0A4";
paths = (
{
closed = 1;
nodes = (
"359 -7 OFFCURVE",
"440 58 OFFCURVE",
"439 177 CURVE",
"251 184 LINE",
"250 160 OFFCURVE",
"240 154 OFFCURVE",
"228 154 CURVE SMOOTH",
"210 154 OFFCURVE",
"202 166 OFFCURVE",
"202 193 CURVE SMOOTH",
"202 332 LINE SMOOTH",
"202 355 OFFCURVE",
"210 367 OFFCURVE",
"227 367 CURVE SMOOTH",
"243 367 OFFCURVE",
"251 355 OFFCURVE",
"251 332 CURVE SMOOTH",
"251 306 LINE",
"130 306 LINE",
"130 215 LINE",
"439 215 LINE",
"439 331 LINE SMOOTH",
"439 457 OFFCURVE",
"363 528 OFFCURVE",
"227 528 CURVE SMOOTH",
"91 528 OFFCURVE",
"14 457 OFFCURVE",
"14 331 CURVE SMOOTH",
"14 189 LINE SMOOTH",
"14 64 OFFCURVE",
"89 -7 OFFCURVE",
"227 -7 CURVE SMOOTH"
);
}
);
width = 451;
},
{
associatedMasterId = "4E2227F3-52E4-4048-A8EE-327B486EF0A4";
layerId = "3D32F457-6CBC-401D-99A3-38ECA0E48DC0";
name = "{100,3}";
paths = (
{
closed = 1;
nodes = (
"310 -8 OFFCURVE",
"379 48 OFFCURVE",
"386 141 CURVE",
"287 143 LINE",
"279 102 OFFCURVE",
"248 79 OFFCURVE",
"211 79 CURVE SMOOTH",
"163 79 OFFCURVE",
"132 115 OFFCURVE",
"132 173 CURVE SMOOTH",
"132 339 LINE SMOOTH",
"132 395 OFFCURVE",
"163 431 OFFCURVE",
"210 431 CURVE SMOOTH",
"258 431 OFFCURVE",
"288 395 OFFCURVE",
"288 339 CURVE SMOOTH",
"288 298 LINE",
"93 298 LINE",
"93 215 LINE",
"388 215 LINE",
"388 337 LINE SMOOTH",
"388 449 OFFCURVE",
"321 517 OFFCURVE",
"210 517 CURVE SMOOTH",
"101 517 OFFCURVE",
"33 449 OFFCURVE",
"33 338 CURVE SMOOTH",
"33 171 LINE SMOOTH",
"33 61 OFFCURVE",
"100 -8 OFFCURVE",
"211 -8 CURVE SMOOTH"
);
}
);
width = 416;
},
{
layerId = "DCBE1F7B-116A-43E0-B7B4-8657BA77D8B5";
paths = (
{
closed = 1;
nodes = (
"248 -8 OFFCURVE",
"300 39 OFFCURVE",
"312 109 CURVE",
"289 108 LINE",
"277 51 OFFCURVE",
"234 13 OFFCURVE",
"182 13 CURVE SMOOTH",
"115 13 OFFCURVE",
"71 62 OFFCURVE",
"71 135 CURVE SMOOTH",
"71 365 LINE SMOOTH",
"71 438 OFFCURVE",
"115 487 OFFCURVE",
"182 487 CURVE SMOOTH",
"248 487 OFFCURVE",
"292 438 OFFCURVE",
"292 365 CURVE SMOOTH",
"292 265 LINE",
"61 265 LINE",
"61 244 LINE",
"315 244 LINE",
"315 363 LINE SMOOTH",
"315 450 OFFCURVE",
"262 508 OFFCURVE",
"182 508 CURVE SMOOTH",
"102 508 OFFCURVE",
"49 450 OFFCURVE",
"49 364 CURVE SMOOTH",
"49 136 LINE SMOOTH",
"49 50 OFFCURVE",
"102 -8 OFFCURVE",
"182 -8 CURVE SMOOTH"
);
}
);
width = 357;
},
{
associatedMasterId = "4E2227F3-52E4-4048-A8EE-327B486EF0A4";
layerId = "7684808E-3924-47D5-8253-7E3CAB4AD1BF";
name = "{100,5}";
paths = (
{
closed = 1;
nodes = (
"363 -8 OFFCURVE",
"444 53 OFFCURVE",
"452 143 CURVE",
"354 148 LINE",
"344 107 OFFCURVE",
"302 79 OFFCURVE",
"251 79 CURVE SMOOTH",
"187 79 OFFCURVE",
"143 121 OFFCURVE",
"143 183 CURVE SMOOTH",
"143 326 LINE SMOOTH",
"143 389 OFFCURVE",
"187 431 OFFCURVE",
"250 431 CURVE SMOOTH",
"313 431 OFFCURVE",
"356 389 OFFCURVE",
"356 326 CURVE SMOOTH",
"356 296 LINE",
"105 296 LINE",
"105 212 LINE",
"455 212 LINE",
"455 314 LINE SMOOTH",
"455 436 OFFCURVE",
"374 517 OFFCURVE",
"251 517 CURVE SMOOTH",
"128 517 OFFCURVE",
"44 436 OFFCURVE",
"44 315 CURVE SMOOTH",
"44 195 LINE SMOOTH",
"44 73 OFFCURVE",
"128 -8 OFFCURVE",
"252 -8 CURVE SMOOTH"
);
}
);
width = 493;
}
);
leftKerningGroup = o;
rightKerningGroup = o;
unicode = 0065;
},
{
color = 3;
glyphname = f;
lastChange = "2017-01-20 08:41:53 +0000";
layers = (
{
layerId = "262880E7-CFE1-4BDA-902E-E24798F3240A";
paths = (
{
closed = 1;
nodes = (
"112 0 LINE",
"112 550 LINE SMOOTH",
"112 637 OFFCURVE",
"130 689 OFFCURVE",
"223 689 CURVE SMOOTH",
"254 689 LINE",
"254 710 LINE",
"223 710 LINE SMOOTH",
"117 710 OFFCURVE",
"90 650 OFFCURVE",
"90 550 CURVE SMOOTH",
"90 0 LINE"
);
},
{
closed = 1;
nodes = (
"249 479 LINE",
"249 500 LINE",
"13 500 LINE",
"13 479 LINE"
);
}
);
width = 267;
},
{
layerId = "4E2227F3-52E4-4048-A8EE-327B486EF0A4";
paths = (
{
closed = 1;
nodes = (
"229 0 LINE",
"229 539 LINE SMOOTH",
"229 557 OFFCURVE",
"242 572 OFFCURVE",
"266 575 CURVE",
"273 575 LINE",
"273 700 LINE",
"266 700 LINE",
"124 707 OFFCURVE",
"41 683 OFFCURVE",
"41 556 CURVE SMOOTH",
"41 0 LINE"
);
},
{
closed = 1;
nodes = (
"287 390 LINE",
"287 520 LINE",
"0 520 LINE",
"0 390 LINE"
);
}
);
width = 291;
},
{
layerId = "FFFA8D72-12AC-4CE0-B2CA-57A29829F4DA";
paths = (
{
closed = 1;
nodes = (
"259 0 LINE",
"259 539 LINE SMOOTH",
"259 557 OFFCURVE",
"272 572 OFFCURVE",
"296 575 CURVE",
"353 575 LINE",
"353 700 LINE",
"296 700 LINE",
"154 707 OFFCURVE",
"71 683 OFFCURVE",
"71 556 CURVE SMOOTH",
"71 0 LINE"
);
},
{
closed = 1;
nodes = (
"367 370 LINE",
"367 520 LINE",
"0 520 LINE",
"0 370 LINE"
);
}
);
width = 371;
},
{
layerId = "DCBE1F7B-116A-43E0-B7B4-8657BA77D8B5";
paths = (
{
closed = 1;
nodes = (
"92 0 LINE",
"92 550 LINE SMOOTH",
"92 637 OFFCURVE",
"105 689 OFFCURVE",
"175 689 CURVE SMOOTH",
"200 689 LINE",
"200 710 LINE",
"174 710 LINE SMOOTH",
"92 710 OFFCURVE",
"70 650 OFFCURVE",
"70 550 CURVE SMOOTH",
"70 0 LINE"
);
},
{
closed = 1;
nodes = (
"196 479 LINE",
"196 500 LINE",
"10 500 LINE",
"10 479 LINE"
);
}
);
width = 210;
},
{
associatedMasterId = "FFFA8D72-12AC-4CE0-B2CA-57A29829F4DA";
layerId = "2C93A357-82AB-483E-BCC8-F28359C8C182";
name = "{100,5}";
paths = (
{
closed = 1;
nodes = (
"181 0 LINE",
"181 517 LINE",
"181 574 OFFCURVE",
"200 606 OFFCURVE",
"265 606 CURVE SMOOTH",
"299 606 LINE",
"299 700 LINE",
"255 700 LINE SMOOTH",
"142 700 OFFCURVE",
"81 645 OFFCURVE",
"81 530 CURVE",
"81 0 LINE"
);
},
{
closed = 1;
nodes = (
"299 418 LINE",
"299 510 LINE",
"0 510 LINE",
"0 418 LINE"
);
}
);
width = 309;
}
);
leftKerningGroup = t;
unicode = 0066;
},
{
glyphname = g;
lastChange = "2017-01-20 08:48:08 +0000";
layers = (
{
components = (
{
name = b.bowl;
transform = "{-1, 0, 0, 1, 405, 0}";
}
);
layerId = "262880E7-CFE1-4BDA-902E-E24798F3240A";
paths = (
{
closed = 1;
nodes = (
"335 -205 OFFCURVE",
"408 -137 OFFCURVE",
"408 0 CURVE SMOOTH",
"408 500 LINE",
"386 500 LINE",
"386 0 LINE SMOOTH",
"386 -123 OFFCURVE",
"319 -183 OFFCURVE",
"230 -179 CURVE",
"230 -200 LINE"
);
}
);
width = 479;
},
{
components = (
{
name = b.bowl;
transform = "{-1, 0, 0, 1, 281, 0}";
}
);
layerId = "4E2227F3-52E4-4048-A8EE-327B486EF0A4";
paths = (
{
closed = 1;
nodes = (
"381 -233 OFFCURVE",
"434 -115 OFFCURVE",
"434 34 CURVE SMOOTH",
"434 520 LINE",
"246 520 LINE",
"246 54 LINE SMOOTH",
"246 -14 OFFCURVE",
"239 -56 OFFCURVE",
"94 -45 CURVE",
"94 -207 LINE"
);
}
);
width = 450;
},
{
components = (
{
name = b.bowl;
transform = "{-1, 0, 0, 1, 374, 0}";
}
);
layerId = "FFFA8D72-12AC-4CE0-B2CA-57A29829F4DA";
paths = (
{
closed = 1;
nodes = (
"405 -236 OFFCURVE",
"503 -115 OFFCURVE",
"503 34 CURVE SMOOTH",
"503 520 LINE",
"315 520 LINE",
"315 24 LINE SMOOTH",
"315 -36 OFFCURVE",
"264 -59 OFFCURVE",
"103 -38 CURVE",
"103 -200 LINE"
);
}
);
width = 519;
},
{
components = (
{
name = b.bowl;
transform = "{-1, 0, 0, 1, 309, 0}";
}
);
layerId = "DCBE1F7B-116A-43E0-B7B4-8657BA77D8B5";
paths = (
{
closed = 1;
nodes = (
"260 -204 OFFCURVE",
"316 -137 OFFCURVE",
"316 0 CURVE SMOOTH",
"316 500 LINE",
"293 500 LINE",
"293 0 LINE SMOOTH",
"293 -123 OFFCURVE",
"244 -183 OFFCURVE",
"174 -179 CURVE",
"174 -200 LINE"
);
}
);
width = 372;
}
);
leftKerningGroup = d;
rightKerningGroup = g;
unicode = 0067;
},
{
glyphname = h;
lastChange = "2017-01-20 08:41:53 +0000";
layers = (
{
components = (
{
name = n.curve;
transform = "{1, 0, 0, 1, 76, 0}";
}
);
layerId = "262880E7-CFE1-4BDA-902E-E24798F3240A";
paths = (
{
closed = 1;
nodes = (
"94 0 LINE",
"94 700 LINE",
"72 700 LINE",
"72 0 LINE"
);
}
);
width = 473;
},
{
components = (
{
name = n.curve;
transform = "{1, 0, 0, 1, 168, 0}";
}
);
layerId = "4E2227F3-52E4-4048-A8EE-327B486EF0A4";
paths = (
{
closed = 1;
nodes = (
"204 0 LINE",
"204 700 LINE",
"16 700 LINE",
"16 0 LINE"
);
}
);
width = 450;
},
{
components = (
{
name = n.curve;
transform = "{1, 0, 0, 1, 165, 0}";
}
);
layerId = "FFFA8D72-12AC-4CE0-B2CA-57A29829F4DA";
paths = (
{
closed = 1;
nodes = (
"204 0 LINE",
"204 700 LINE",
"16 700 LINE",
"16 0 LINE"
);
}
);
width = 519;
},
{
components = (
{
name = n.curve;
transform = "{1, 0, 0, 1, 63, 0}";
}
);
layerId = "DCBE1F7B-116A-43E0-B7B4-8657BA77D8B5";
paths = (
{
closed = 1;
nodes = (
"78 0 LINE",
"78 700 LINE",
"56 700 LINE",
"56 0 LINE"
);
}
);
width = 366;
}
);
leftKerningGroup = b;
rightKerningGroup = n;
unicode = 0068;
},
{
glyphname = i;
lastChange = "2017-02-03 08:06:40 +0000";
layers = (
{
layerId = "262880E7-CFE1-4BDA-902E-E24798F3240A";
paths = (
{
closed = 1;
nodes = (
"107 0 LINE",
"107 500 LINE",
"85 500 LINE",
"85 0 LINE"
);
},
{
closed = 1;
nodes = (
"113 620 OFFCURVE",
"126 633 OFFCURVE",
"126 650 CURVE SMOOTH",
"126 666 OFFCURVE",
"113 679 OFFCURVE",
"96 679 CURVE SMOOTH",
"78 679 OFFCURVE",
"64 666 OFFCURVE",
"64 650 CURVE SMOOTH",
"64 633 OFFCURVE",
"78 620 OFFCURVE",
"96 620 CURVE SMOOTH"
);
}
);
width = 190;
},
{
layerId = "4E2227F3-52E4-4048-A8EE-327B486EF0A4";
paths = (
{
closed = 1;
nodes = (
"206 0 LINE",
"206 520 LINE",
"18 520 LINE",
"18 0 LINE"
);
},
{
closed = 1;
nodes = (
"175 540 OFFCURVE",
"216 582 OFFCURVE",
"216 645 CURVE SMOOTH",
"216 708 OFFCURVE",
"175 750 OFFCURVE",
"112 750 CURVE SMOOTH",
"50 750 OFFCURVE",
"8 708 OFFCURVE",
"8 645 CURVE SMOOTH",
"8 582 OFFCURVE",
"50 540 OFFCURVE",
"112 540 CURVE SMOOTH"
);
}
);
width = 224;
},
{
layerId = "FFFA8D72-12AC-4CE0-B2CA-57A29829F4DA";
paths = (
{
closed = 1;
nodes = (
"204 0 LINE",
"204 520 LINE",
"16 520 LINE",
"16 0 LINE"
);
},
{
closed = 1;
nodes = (
"175 545 OFFCURVE",
"218 587 OFFCURVE",
"218 650 CURVE SMOOTH",
"218 713 OFFCURVE",
"175 755 OFFCURVE",
"110 755 CURVE SMOOTH",
"46 755 OFFCURVE",
"2 713 OFFCURVE",
"2 650 CURVE SMOOTH",
"2 587 OFFCURVE",
"46 545 OFFCURVE",
"110 545 CURVE SMOOTH"
);
}
);
width = 220;
},
{
layerId = "DCBE1F7B-116A-43E0-B7B4-8657BA77D8B5";
paths = (
{
closed = 1;
nodes = (
"88 0 LINE",
"88 500 LINE",
"66 500 LINE",
"66 0 LINE"
);
},
{
closed = 1;
nodes = (
"91 620 OFFCURVE",
"102 633 OFFCURVE",
"102 650 CURVE SMOOTH",
"102 666 OFFCURVE",
"91 679 OFFCURVE",
"77 679 CURVE SMOOTH",
"62 679 OFFCURVE",
"50 666 OFFCURVE",
"50 650 CURVE SMOOTH",
"50 633 OFFCURVE",
"62 620 OFFCURVE",
"77 620 CURVE SMOOTH"
);
}
);
width = 152;
}
);
leftKerningGroup = i;
unicode = 0069;
},
{
glyphname = j;
lastChange = "2017-01-20 08:41:53 +0000";
layers = (
{
layerId = "262880E7-CFE1-4BDA-902E-E24798F3240A";
paths = (
{
closed = 1;
nodes = (
"78 -211 OFFCURVE",
"130 -159 OFFCURVE",
"130 -74 CURVE SMOOTH",
"130 500 LINE",
"108 500 LINE",
"108 -74 LINE SMOOTH",
"108 -146 OFFCURVE",
"65 -190 OFFCURVE",
"-7 -190 CURVE",
"-7 -211 LINE"
);
},
{
closed = 1;
nodes = (
"139 620 OFFCURVE",
"151 631 OFFCURVE",
"151 650 CURVE SMOOTH",
"151 669 OFFCURVE",
"139 679 OFFCURVE",
"119 679 CURVE SMOOTH",
"101 679 OFFCURVE",
"88 669 OFFCURVE",
"88 650 CURVE SMOOTH",
"88 631 OFFCURVE",
"101 620 OFFCURVE",
"119 620 CURVE SMOOTH"
);
}
);
width = 220;
},
{
layerId = "4E2227F3-52E4-4048-A8EE-327B486EF0A4";
paths = (
{
closed = 1;
nodes = (
"207 -210 OFFCURVE",
"212 -120 OFFCURVE",
"212 29 CURVE SMOOTH",
"212 520 LINE",
"24 520 LINE",
"24 29 LINE SMOOTH",
"24 -19 OFFCURVE",
"9 -49 OFFCURVE",
"-72 -41 CURVE",
"-72 -201 LINE"
);
},
{
closed = 1;
nodes = (
"179 540 OFFCURVE",
"222 587 OFFCURVE",
"222 645 CURVE SMOOTH",
"222 703 OFFCURVE",
"170 750 OFFCURVE",
"118 750 CURVE SMOOTH",
"65 750 OFFCURVE",
"14 703 OFFCURVE",
"14 645 CURVE SMOOTH",
"14 587 OFFCURVE",
"56 540 OFFCURVE",
"118 540 CURVE SMOOTH"
);
}
);
width = 232;
},
{
layerId = "FFFA8D72-12AC-4CE0-B2CA-57A29829F4DA";
paths = (
{
closed = 1;
nodes = (
"195 -210 OFFCURVE",
"212 -120 OFFCURVE",
"212 29 CURVE SMOOTH",
"212 520 LINE",
"24 520 LINE",
"24 29 LINE SMOOTH",
"24 -19 OFFCURVE",
"0 -49 OFFCURVE",
"-95 -41 CURVE",
"-95 -201 LINE"
);
},
{
closed = 1;
nodes = (
"181 545 OFFCURVE",
"226 592 OFFCURVE",
"226 650 CURVE SMOOTH",
"226 708 OFFCURVE",
"173 755 OFFCURVE",
"118 755 CURVE SMOOTH",
"62 755 OFFCURVE",
"10 708 OFFCURVE",
"10 650 CURVE SMOOTH",
"10 592 OFFCURVE",
"53 545 OFFCURVE",
"118 545 CURVE SMOOTH"
);
}
);
width = 232;
},
{
layerId = "DCBE1F7B-116A-43E0-B7B4-8657BA77D8B5";
paths = (
{
closed = 1;
nodes = (
"67 -211 OFFCURVE",
"106 -159 OFFCURVE",
"106 -74 CURVE SMOOTH",
"106 500 LINE",
"84 500 LINE",
"84 -74 LINE SMOOTH",
"84 -146 OFFCURVE",
"52 -190 OFFCURVE",
"-4 -190 CURVE",
"-4 -211 LINE"
);
},
{
closed = 1;
nodes = (
"111 620 OFFCURVE",
"122 631 OFFCURVE",
"122 650 CURVE SMOOTH",
"122 669 OFFCURVE",
"111 679 OFFCURVE",
"95 679 CURVE SMOOTH",
"80 679 OFFCURVE",
"69 669 OFFCURVE",
"69 650 CURVE SMOOTH",
"69 631 OFFCURVE",
"80 620 OFFCURVE",
"95 620 CURVE SMOOTH"
);
}
);
width = 176;
}
);
leftKerningGroup = j;
unicode = 006A;
},
{
glyphname = k;
lastChange = "2017-01-20 08:41:53 +0000";
layers = (
{
guideLines = (
{
angle = 180;
position = "{274, 0}";
showMeasurement = 1;
}
);
layerId = "262880E7-CFE1-4BDA-902E-E24798F3240A";
paths = (
{
closed = 1;
nodes = (
"112 0 LINE",
"112 200 LINE",
"257 347 LINE",
"406 0 LINE",
"430 0 LINE",
"273 363 LINE",
"410 500 LINE",
"382 500 LINE",
"112 227 LINE",
"112 700 LINE",
"90 700 LINE",
"90 0 LINE"
);
}
);
width = 457;
},
{
layerId = "4E2227F3-52E4-4048-A8EE-327B486EF0A4";
paths = (
{
closed = 1;
nodes = (
"208 0 LINE",
"208 137 LINE",
"221 166 LINE",
"273 0 LINE",
"467 0 LINE",
"336 315 LINE",
"461 520 LINE",
"268 520 LINE",
"208 392 LINE",
"208 700 LINE",
"20 700 LINE",
"20 0 LINE"
);
}
);
width = 473;
},
{
layerId = "FFFA8D72-12AC-4CE0-B2CA-57A29829F4DA";
paths = (
{
closed = 1;
nodes = (
"208 0 LINE",
"208 149 LINE",
"248 205 LINE",
"336 0 LINE",
"530 0 LINE",
"368 315 LINE",
"520 520 LINE",
"316 520 LINE",
"208 382 LINE",
"208 700 LINE",
"20 700 LINE",
"20 0 LINE"
);
}
);
width = 536;
},
{
guideLines = (
{
angle = 180;
position = "{276, 0}";
showMeasurement = 1;
}
);
layerId = "DCBE1F7B-116A-43E0-B7B4-8657BA77D8B5";
paths = (
{
closed = 1;
nodes = (
"92 0 LINE",
"92 200 LINE",
"199 347 LINE",
"311 0 LINE",
"335 0 LINE",
"215 363 LINE",
"319 500 LINE",
"293 500 LINE",
"92 227 LINE",
"92 700 LINE",
"70 700 LINE",
"70 0 LINE"
);
}
);
width = 356;
}
);
leftKerningGroup = b;
rightKerningGroup = k;
unicode = 006B;
},
{
glyphname = l;
lastChange = "2017-01-20 08:41:53 +0000";
layers = (
{
layerId = "262880E7-CFE1-4BDA-902E-E24798F3240A";
paths = (
{
closed = 1;
nodes = (
"94 0 LINE",
"94 700 LINE",
"72 700 LINE",
"72 0 LINE"
);
}
);
width = 166;
},
{
layerId = "4E2227F3-52E4-4048-A8EE-327B486EF0A4";
paths = (
{
closed = 1;
nodes = (
"204 0 LINE",
"204 700 LINE",
"16 700 LINE",
"16 0 LINE"
);
}
);
width = 220;
},
{
layerId = "FFFA8D72-12AC-4CE0-B2CA-57A29829F4DA";
paths = (
{
closed = 1;
nodes = (
"204 0 LINE",
"204 700 LINE",
"16 700 LINE",
"16 0 LINE"
);
}
);
width = 220;
},
{
layerId = "DCBE1F7B-116A-43E0-B7B4-8657BA77D8B5";
paths = (
{
closed = 1;
nodes = (
"78 0 LINE",
"78 700 LINE",
"56 700 LINE",
"56 0 LINE"
);
}
);
width = 134;
}
);
leftKerningGroup = l;
rightKerningGroup = l;
unicode = 006C;
},
{
glyphname = m;
lastChange = "2017-01-20 08:41:53 +0000";
layers = (
{
layerId = "262880E7-CFE1-4BDA-902E-E24798F3240A";
paths = (
{
closed = 1;
nodes = (
"94 0 LINE",
"94 500 LINE",
"72 500 LINE",
"72 0 LINE"
);
},
{
closed = 1;
nodes = (
"396 0 LINE",
"396 347 LINE SMOOTH",
"396 446 OFFCURVE",
"332 507 OFFCURVE",
"240 507 CURVE SMOOTH",
"141 507 OFFCURVE",
"77 448 OFFCURVE",
"77 346 CURVE",
"94 346 LINE",
"94 433 OFFCURVE",
"150 486 OFFCURVE",
"238 486 CURVE SMOOTH",
"318 486 OFFCURVE",
"374 432 OFFCURVE",
"374 344 CURVE SMOOTH",
"374 0 LINE"
);
},
{
closed = 1;
nodes = (
"699 0 LINE",
"699 347 LINE SMOOTH",
"699 446 OFFCURVE",
"634 507 OFFCURVE",
"542 507 CURVE SMOOTH",
"444 507 OFFCURVE",
"379 448 OFFCURVE",
"379 346 CURVE",
"396 346 LINE",
"396 433 OFFCURVE",
"453 486 OFFCURVE",
"540 486 CURVE SMOOTH",
"620 486 OFFCURVE",
"677 432 OFFCURVE",
"677 344 CURVE SMOOTH",
"677 0 LINE"
);
}
);
width = 762;
},
{
layerId = "4E2227F3-52E4-4048-A8EE-327B486EF0A4";
paths = (
{
closed = 1;
nodes = (
"204 0 LINE",
"204 520 LINE",
"16 520 LINE",
"16 0 LINE"
);
},
{
closed = 1;
nodes = (
"436 0 LINE",
"436 348 LINE SMOOTH",
"436 459 OFFCURVE",
"395 528 OFFCURVE",
"294 528 CURVE SMOOTH",
"257 528 OFFCURVE",
"157 515 OFFCURVE",
"158 335 CURVE",
"204 335 LINE",
"204 356 OFFCURVE",
"212 367 OFFCURVE",
"227 367 CURVE SMOOTH",
"241 367 OFFCURVE",
"248 356 OFFCURVE",
"248 335 CURVE SMOOTH",
"248 0 LINE"
);
},
{
closed = 1;
nodes = (
"668 0 LINE",
"668 348 LINE SMOOTH",
"668 459 OFFCURVE",
"627 528 OFFCURVE",
"526 528 CURVE SMOOTH",
"485 528 OFFCURVE",
"385 515 OFFCURVE",
"386 335 CURVE",
"436 335 LINE",
"436 356 OFFCURVE",
"444 367 OFFCURVE",
"459 367 CURVE SMOOTH",
"473 367 OFFCURVE",
"480 356 OFFCURVE",
"480 335 CURVE SMOOTH",
"480 0 LINE"
);
}
);
width = 682;
},
{
layerId = "FFFA8D72-12AC-4CE0-B2CA-57A29829F4DA";
paths = (
{
closed = 1;
nodes = (
"204 0 LINE",
"204 520 LINE",
"16 520 LINE",
"16 0 LINE"
);
},
{
closed = 1;
nodes = (
"496 0 LINE",
"496 348 LINE SMOOTH",
"496 459 OFFCURVE",
"422 528 OFFCURVE",
"304 528 CURVE SMOOTH",
"226 528 OFFCURVE",
"144 470 OFFCURVE",
"145 310 CURVE",
"204 300 LINE",
"204 340 OFFCURVE",
"226 367 OFFCURVE",
"258 367 CURVE SMOOTH",
"288 367 OFFCURVE",
"308 340 OFFCURVE",
"308 300 CURVE SMOOTH",
"308 0 LINE"
);
},
{
closed = 1;
nodes = (
"789 0 LINE",
"789 348 LINE SMOOTH",
"789 459 OFFCURVE",
"714 528 OFFCURVE",
"596 528 CURVE SMOOTH",
"518 528 OFFCURVE",
"436 470 OFFCURVE",
"437 310 CURVE",
"496 300 LINE",
"496 340 OFFCURVE",
"518 367 OFFCURVE",
"550 367 CURVE SMOOTH",
"581 367 OFFCURVE",
"601 340 OFFCURVE",
"601 300 CURVE SMOOTH",
"601 0 LINE"
);
}
);
width = 803;
},
{
layerId = "DCBE1F7B-116A-43E0-B7B4-8657BA77D8B5";
paths = (
{
closed = 1;
nodes = (
"78 0 LINE",
"78 500 LINE",
"56 500 LINE",
"56 0 LINE"
);
},
{
closed = 1;
nodes = (
"308 0 LINE",
"308 347 LINE SMOOTH",
"308 446 OFFCURVE",
"260 507 OFFCURVE",
"189 507 CURVE SMOOTH",
"115 507 OFFCURVE",
"62 448 OFFCURVE",
"62 346 CURVE",
"78 346 LINE",
"78 433 OFFCURVE",
"120 486 OFFCURVE",
"185 486 CURVE SMOOTH",
"244 486 OFFCURVE",
"286 432 OFFCURVE",
"286 344 CURVE SMOOTH",
"286 0 LINE"
);
},
{
closed = 1;
nodes = (
"538 0 LINE",
"538 347 LINE SMOOTH",
"538 446 OFFCURVE",
"489 507 OFFCURVE",
"419 507 CURVE SMOOTH",
"345 507 OFFCURVE",
"291 451 OFFCURVE",
"291 346 CURVE",
"308 346 LINE",
"308 433 OFFCURVE",
"350 486 OFFCURVE",
"414 486 CURVE SMOOTH",
"474 486 OFFCURVE",
"516 432 OFFCURVE",
"516 344 CURVE SMOOTH",
"516 0 LINE"
);
}
);
width = 587;
}
);
leftKerningGroup = n;
rightKerningGroup = h;
unicode = 006D;
},
{
glyphname = n;
lastChange = "2017-01-20 08:41:53 +0000";
layers = (
{
components = (
{
name = n.curve;
transform = "{1, 0, 0, 1, 76, 0}";
}
);
layerId = "262880E7-CFE1-4BDA-902E-E24798F3240A";
paths = (
{
closed = 1;
nodes = (
"94 0 LINE",
"94 500 LINE",
"72 500 LINE",
"72 0 LINE"
);
}
);
width = 473;
},
{
components = (
{
name = n.curve;
transform = "{1, 0, 0, 1, 168, 0}";
}
);
layerId = "4E2227F3-52E4-4048-A8EE-327B486EF0A4";
paths = (
{
closed = 1;
nodes = (
"204 0 LINE",
"204 520 LINE",
"16 520 LINE",
"16 0 LINE"
);
}
);
width = 450;
},
{
components = (
{
name = n.curve;
transform = "{1, 0, 0, 1, 165, 0}";
}
);
layerId = "FFFA8D72-12AC-4CE0-B2CA-57A29829F4DA";
paths = (
{
closed = 1;
nodes = (
"204 0 LINE",
"204 520 LINE",
"16 520 LINE",
"16 0 LINE"
);
}
);
width = 519;
},
{
components = (
{
name = n.curve;
transform = "{1, 0, 0, 1, 63, 0}";
}
);
layerId = "DCBE1F7B-116A-43E0-B7B4-8657BA77D8B5";
paths = (
{
closed = 1;
nodes = (
"78 0 LINE",
"78 500 LINE",
"56 500 LINE",
"56 0 LINE"
);
}
);
width = 366;
}
);
leftKerningGroup = n;
rightKerningGroup = n;
unicode = 006E;
},
{
glyphname = o;
lastChange = "2017-02-08 03:55:04 +0000";
layers = (
{
layerId = "262880E7-CFE1-4BDA-902E-E24798F3240A";
paths = (
{
closed = 1;
nodes = (
"331 -8 OFFCURVE",
"401 67 OFFCURVE",
"401 168 CURVE SMOOTH",
"401 332 LINE SMOOTH",
"401 433 OFFCURVE",
"331 508 OFFCURVE",
"227 508 CURVE SMOOTH",
"123 508 OFFCURVE",
"54 433 OFFCURVE",
"54 332 CURVE SMOOTH",
"54 168 LINE SMOOTH",
"54 67 OFFCURVE",
"123 -8 OFFCURVE",
"227 -8 CURVE SMOOTH"
);
},
{
closed = 1;
nodes = (
"136 13 OFFCURVE",
"76 79 OFFCURVE",
"76 167 CURVE SMOOTH",
"76 333 LINE SMOOTH",
"76 421 OFFCURVE",
"136 487 OFFCURVE",
"227 487 CURVE SMOOTH",
"318 487 OFFCURVE",
"379 421 OFFCURVE",
"379 333 CURVE SMOOTH",
"379 167 LINE SMOOTH",
"379 79 OFFCURVE",
"318 13 OFFCURVE",
"227 13 CURVE SMOOTH"
);
}
);
width = 455;
},
{
layerId = "4E2227F3-52E4-4048-A8EE-327B486EF0A4";
paths = (
{
closed = 1;
nodes = (
"361 -7 OFFCURVE",
"437 67 OFFCURVE",
"437 190 CURVE SMOOTH",
"437 330 LINE SMOOTH",
"437 456 OFFCURVE",
"361 532 OFFCURVE",
"225 532 CURVE SMOOTH",
"89 532 OFFCURVE",
"12 456 OFFCURVE",
"12 330 CURVE SMOOTH",
"12 190 LINE SMOOTH",
"12 67 OFFCURVE",
"89 -7 OFFCURVE",
"225 -7 CURVE SMOOTH"
);
},
{
closed = 1;
nodes = (
"208 154 OFFCURVE",
"200 165 OFFCURVE",
"200 186 CURVE SMOOTH",
"200 339 LINE SMOOTH",
"200 360 OFFCURVE",
"208 371 OFFCURVE",
"225 371 CURVE SMOOTH",
"241 371 OFFCURVE",
"249 360 OFFCURVE",
"249 339 CURVE SMOOTH",
"249 186 LINE SMOOTH",
"249 165 OFFCURVE",
"241 154 OFFCURVE",
"225 154 CURVE SMOOTH"
);
}
);
width = 449;
},
{
layerId = "FFFA8D72-12AC-4CE0-B2CA-57A29829F4DA";
paths = (
{
closed = 1;
nodes = (
"404 -7 OFFCURVE",
"502 93 OFFCURVE",
"502 242 CURVE SMOOTH",
"502 283 LINE SMOOTH",
"502 432 OFFCURVE",
"404 532 OFFCURVE",
"257 532 CURVE SMOOTH",
"110 532 OFFCURVE",
"12 432 OFFCURVE",
"12 283 CURVE SMOOTH",
"12 242 LINE SMOOTH",
"12 93 OFFCURVE",
"110 -7 OFFCURVE",
"257 -7 CURVE SMOOTH"
);
},
{
closed = 1;
nodes = (
"223 154 OFFCURVE",
"200 186 OFFCURVE",
"200 235 CURVE SMOOTH",
"200 290 LINE SMOOTH",
"200 339 OFFCURVE",
"223 371 OFFCURVE",
"257 371 CURVE SMOOTH",
"291 371 OFFCURVE",
"314 339 OFFCURVE",
"314 290 CURVE SMOOTH",
"314 235 LINE SMOOTH",
"314 186 OFFCURVE",
"291 154 OFFCURVE",
"257 154 CURVE SMOOTH"
);
}
);
width = 514;
},
{
guideLines = (
{
angle = 60;
position = "{224, 250}";
showMeasurement = 1;
}
);
layerId = "DCBE1F7B-116A-43E0-B7B4-8657BA77D8B5";
paths = (
{
closed = 1;
nodes = (
"256 -8 OFFCURVE",
"311 51 OFFCURVE",
"311 136 CURVE SMOOTH",
"311 364 LINE SMOOTH",
"311 449 OFFCURVE",
"256 508 OFFCURVE",
"176 508 CURVE SMOOTH",
"97 508 OFFCURVE",
"42 449 OFFCURVE",
"42 364 CURVE SMOOTH",
"42 136 LINE SMOOTH",
"42 51 OFFCURVE",
"97 -8 OFFCURVE",
"176 -8 CURVE SMOOTH"
);
},
{
closed = 1;
nodes = (
"110 13 OFFCURVE",
"64 63 OFFCURVE",
"64 135 CURVE SMOOTH",
"64 365 LINE SMOOTH",
"64 437 OFFCURVE",
"110 487 OFFCURVE",
"176 487 CURVE SMOOTH",
"243 487 OFFCURVE",
"289 437 OFFCURVE",
"289 365 CURVE SMOOTH",
"289 135 LINE SMOOTH",
"289 63 OFFCURVE",
"243 13 OFFCURVE",
"176 13 CURVE SMOOTH"
);
}
);
width = 353;
},
{
associatedMasterId = "FFFA8D72-12AC-4CE0-B2CA-57A29829F4DA";
layerId = "1C5CD2D7-2630-4115-B920-A71EC643062F";
name = "{100,5}";
paths = (
{
closed = 1;
nodes = (
"366 -8 OFFCURVE",
"449 68 OFFCURVE",
"449 183 CURVE SMOOTH",
"449 329 LINE SMOOTH",
"449 443 OFFCURVE",
"366 519 OFFCURVE",
"241 519 CURVE SMOOTH",
"117 519 OFFCURVE",
"34 443 OFFCURVE",
"34 329 CURVE SMOOTH",
"34 183 LINE SMOOTH",
"34 68 OFFCURVE",
"117 -8 OFFCURVE",
"241 -8 CURVE SMOOTH"
);
},
{
closed = 1;
nodes = (
"177 79 OFFCURVE",
"134 121 OFFCURVE",
"134 183 CURVE SMOOTH",
"134 329 LINE SMOOTH",
"134 391 OFFCURVE",
"177 433 OFFCURVE",
"241 433 CURVE SMOOTH",
"306 433 OFFCURVE",
"349 391 OFFCURVE",
"349 329 CURVE SMOOTH",
"349 183 LINE SMOOTH",
"349 121 OFFCURVE",
"306 79 OFFCURVE",
"241 79 CURVE SMOOTH"
);
}
);
width = 483;
}
);
leftKerningGroup = o;
rightKerningGroup = o;
unicode = 006F;
changeCount = 58;
},
{
color = 3;
glyphname = r;
lastChange = "2017-01-20 08:41:53 +0000";
layers = (
{
layerId = "262880E7-CFE1-4BDA-902E-E24798F3240A";
paths = (
{
closed = 1;
nodes = (
"94 331 LINE",
"94 419 OFFCURVE",
"152 479 OFFCURVE",
"235 479 CURVE SMOOTH",
"261 479 OFFCURVE",
"276 474 OFFCURVE",
"291 466 CURVE",
"302 489 LINE",
"285 498 OFFCURVE",
"267 504 OFFCURVE",
"236 504 CURVE SMOOTH",
"141 504 OFFCURVE",
"79 438 OFFCURVE",
"79 331 CURVE"
);
},
{
closed = 1;
nodes = (
"94 0 LINE",
"94 500 LINE",
"72 500 LINE",
"72 0 LINE"
);
}
);
width = 302;
},
{
layerId = "4E2227F3-52E4-4048-A8EE-327B486EF0A4";
paths = (
{
closed = 1;
nodes = (
"204 273 LINE",
"204 294 OFFCURVE",
"216 318 OFFCURVE",
"235 327 CURVE SMOOTH",
"259 338 OFFCURVE",
"298 333 OFFCURVE",
"308 325 CURVE",
"337 510 LINE",
"328 519 OFFCURVE",
"312 527 OFFCURVE",
"287 527 CURVE SMOOTH",
"170 527 OFFCURVE",
"176 352 OFFCURVE",
"176 273 CURVE"
);
},
{
closed = 1;
nodes = (
"204 1 LINE",
"204 520 LINE",
"16 520 LINE",
"16 1 LINE"
);
}
);
width = 337;
},
{
layerId = "FFFA8D72-12AC-4CE0-B2CA-57A29829F4DA";
paths = (
{
closed = 1;
nodes = (
"204 273 LINE",
"204 294 OFFCURVE",
"216 318 OFFCURVE",
"235 327 CURVE SMOOTH",
"259 338 OFFCURVE",
"328 333 OFFCURVE",
"338 325 CURVE",
"367 507 LINE",
"358 516 OFFCURVE",
"339 527 OFFCURVE",
"306 527 CURVE SMOOTH",
"191 527 OFFCURVE",
"156 394 OFFCURVE",
"156 273 CURVE"
);
},
{
closed = 1;
nodes = (
"204 1 LINE",
"204 520 LINE",
"16 520 LINE",
"16 1 LINE"
);
}
);
width = 367;
},
{
layerId = "DCBE1F7B-116A-43E0-B7B4-8657BA77D8B5";
paths = (
{
closed = 1;
nodes = (
"78 331 LINE",
"78 419 OFFCURVE",
"121 479 OFFCURVE",
"182 479 CURVE SMOOTH",
"203 479 OFFCURVE",
"214 474 OFFCURVE",
"225 466 CURVE",
"235 489 LINE",
"222 498 OFFCURVE",
"209 504 OFFCURVE",
"185 504 CURVE SMOOTH",
"112 504 OFFCURVE",
"65 438 OFFCURVE",
"65 331 CURVE"
);
},
{
closed = 1;
nodes = (
"78 0 LINE",
"78 500 LINE",
"56 500 LINE",
"56 0 LINE"
);
}
);
width = 235;
},
{
associatedMasterId = "4E2227F3-52E4-4048-A8EE-327B486EF0A4";
layerId = "0231DC7A-BAB0-489B-A1F9-3A50B9D86C74";
name = "{100,5}";
paths = (
{
closed = 1;
nodes = (
"141 304 LINE",
"141 360 OFFCURVE",
"176 402 OFFCURVE",
"224 408 CURVE SMOOTH",
"247 411 OFFCURVE",
"270 405 OFFCURVE",
"279 400 CURVE",
"312 499 LINE",
"299 508 OFFCURVE",
"283 515 OFFCURVE",
"250 515 CURVE SMOOTH",
"153 515 OFFCURVE",
"101 412 OFFCURVE",
"101 304 CURVE"
);
},
{
closed = 1;
nodes = (
"141 0 LINE",
"141 510 LINE",
"42 510 LINE",
"42 0 LINE"
);
}
);
width = 312;
}
);
leftKerningGroup = n;
rightKerningGroup = r;
unicode = 0072;
},
{
color = 1;
glyphname = s;
lastChange = "2017-01-20 08:41:53 +0000";
layers = (
{
layerId = "262880E7-CFE1-4BDA-902E-E24798F3240A";
paths = (
{
closed = 1;
nodes = (
"310 -4 OFFCURVE",
"375 47 OFFCURVE",
"375 123 CURVE SMOOTH",
"375 212 OFFCURVE",
"289 238 OFFCURVE",
"209 264 CURVE SMOOTH",
"138 287 OFFCURVE",
"69 310 OFFCURVE",
"69 378 CURVE SMOOTH",
"69 441 OFFCURVE",
"124 483 OFFCURVE",
"209 483 CURVE SMOOTH",
"294 483 OFFCURVE",
"351 437 OFFCURVE",
"351 369 CURVE SMOOTH",
"351 344 LINE",
"373 344 LINE",
"373 369 LINE SMOOTH",
"373 450 OFFCURVE",
"308 504 OFFCURVE",
"210 504 CURVE SMOOTH",
"113 504 OFFCURVE",
"47 454 OFFCURVE",
"47 378 CURVE SMOOTH",
"47 294 OFFCURVE",
"125 268 OFFCURVE",
"204 243 CURVE SMOOTH",
"279 219 OFFCURVE",
"353 196 OFFCURVE",
"353 123 CURVE SMOOTH",
"353 59 OFFCURVE",
"296 17 OFFCURVE",
"212 17 CURVE SMOOTH",
"124 17 OFFCURVE",
"67 61 OFFCURVE",
"67 126 CURVE SMOOTH",
"67 157 LINE",
"45 157 LINE",
"45 126 LINE SMOOTH",
"45 48 OFFCURVE",
"112 -4 OFFCURVE",
"212 -4 CURVE SMOOTH"
);
}
);
width = 420;
},
{
layerId = "4E2227F3-52E4-4048-A8EE-327B486EF0A4";
paths = (
{
closed = 1;
nodes = (
"344 -8 OFFCURVE",
"427 52 OFFCURVE",
"427 151 CURVE SMOOTH",
"427 253 OFFCURVE",
"338 285 OFFCURVE",
"267 306 CURVE SMOOTH",
"240 314 OFFCURVE",
"197 327 OFFCURVE",
"197 357 CURVE SMOOTH",
"197 368 OFFCURVE",
"203 383 OFFCURVE",
"218 383 CURVE SMOOTH",
"230 383 OFFCURVE",
"240 374 OFFCURVE",
"240 357 CURVE SMOOTH",
"240 346 LINE",
"415 346 LINE",
"415 346 LINE SMOOTH",
"415 455 OFFCURVE",
"336 528 OFFCURVE",
"213 528 CURVE SMOOTH",
"96 528 OFFCURVE",
"17 463 OFFCURVE",
"17 358 CURVE SMOOTH",
"17 258 OFFCURVE",
"89 215 OFFCURVE",
"145 197 CURVE SMOOTH",
"188 183 OFFCURVE",
"238 177 OFFCURVE",
"238 149 CURVE SMOOTH",
"238 138 OFFCURVE",
"231 130 OFFCURVE",
"219 130 CURVE SMOOTH",
"207 130 OFFCURVE",
"190 139 OFFCURVE",
"190 161 CURVE SMOOTH",
"190 162 LINE",
"10 162 LINE",
"10 156 LINE",
"10 58 OFFCURVE",
"93 -8 OFFCURVE",
"221 -8 CURVE SMOOTH"
);
}
);
width = 437;
},
{
layerId = "FFFA8D72-12AC-4CE0-B2CA-57A29829F4DA";
paths = (
{
closed = 1;
nodes = (
"391 -8 OFFCURVE",
"487 50 OFFCURVE",
"487 154 CURVE SMOOTH",
"487 220 OFFCURVE",
"448 264 OFFCURVE",
"376 289 CURVE SMOOTH",
"290 319 OFFCURVE",
"193 312 OFFCURVE",
"193 353 CURVE SMOOTH",
"193 373 OFFCURVE",
"216 383 OFFCURVE",
"245 383 CURVE SMOOTH",
"279 383 OFFCURVE",
"300 369 OFFCURVE",
"300 347 CURVE SMOOTH",
"300 346 LINE",
"475 346 LINE",
"475 347 LINE SMOOTH",
"475 456 OFFCURVE",
"383 528 OFFCURVE",
"241 528 CURVE SMOOTH",
"106 528 OFFCURVE",
"13 462 OFFCURVE",
"13 361 CURVE SMOOTH",
"13 297 OFFCURVE",
"51 252 OFFCURVE",
"99 226 CURVE SMOOTH",
"183 180 OFFCURVE",
"298 191 OFFCURVE",
"298 156 CURVE SMOOTH",
"298 142 OFFCURVE",
"279 130 OFFCURVE",
"247 130 CURVE SMOOTH",
"213 130 OFFCURVE",
"186 144 OFFCURVE",
"186 166 CURVE SMOOTH",
"186 167 LINE",
"6 167 LINE",
"6 153 LINE",
"6 56 OFFCURVE",
"100 -8 OFFCURVE",
"249 -8 CURVE SMOOTH"
);
}
);
width = 493;
},
{
layerId = "DCBE1F7B-116A-43E0-B7B4-8657BA77D8B5";
paths = (
{
closed = 1;
nodes = (
"241 -4 OFFCURVE",
"291 47 OFFCURVE",
"291 123 CURVE SMOOTH",
"291 212 OFFCURVE",
"225 238 OFFCURVE",
"163 264 CURVE SMOOTH",
"109 287 OFFCURVE",
"59 310 OFFCURVE",
"59 378 CURVE SMOOTH",
"59 441 OFFCURVE",
"100 483 OFFCURVE",
"162 483 CURVE SMOOTH",
"226 483 OFFCURVE",
"268 437 OFFCURVE",
"268 369 CURVE SMOOTH",
"268 344 LINE",
"289 344 LINE",
"289 369 LINE SMOOTH",
"289 450 OFFCURVE",
"240 504 OFFCURVE",
"163 504 CURVE SMOOTH",
"88 504 OFFCURVE",
"37 454 OFFCURVE",
"37 378 CURVE SMOOTH",
"37 294 OFFCURVE",
"96 268 OFFCURVE",
"157 243 CURVE SMOOTH",
"215 219 OFFCURVE",
"269 196 OFFCURVE",
"269 123 CURVE SMOOTH",
"269 59 OFFCURVE",
"228 17 OFFCURVE",
"165 17 CURVE SMOOTH",
"98 17 OFFCURVE",
"57 61 OFFCURVE",
"57 126 CURVE SMOOTH",
"57 157 LINE",
"35 157 LINE",
"35 126 LINE SMOOTH",
"35 48 OFFCURVE",
"87 -4 OFFCURVE",
"165 -4 CURVE SMOOTH"
);
}
);
width = 326;
},
{
associatedMasterId = "4E2227F3-52E4-4048-A8EE-327B486EF0A4";
layerId = "85F9CC44-E494-4B9A-8AA4-6569A0BE88A1";
name = "{100,5}";
paths = (
{
closed = 1;
nodes = (
"350 -6 OFFCURVE",
"429 48 OFFCURVE",
"429 138 CURVE SMOOTH",
"429 232 OFFCURVE",
"344 276 OFFCURVE",
"266 294 CURVE SMOOTH",
"214 306 OFFCURVE",
"128 314 OFFCURVE",
"128 370 CURVE SMOOTH",
"128 408 OFFCURVE",
"168 436 OFFCURVE",
"227 436 CURVE SMOOTH",
"288 436 OFFCURVE",
"329 406 OFFCURVE",
"329 358 CURVE SMOOTH",
"329 345 LINE",
"422 345 LINE",
"422 358 LINE SMOOTH",
"422 452 OFFCURVE",
"345 515 OFFCURVE",
"225 515 CURVE SMOOTH",
"111 515 OFFCURVE",
"33 458 OFFCURVE",
"33 369 CURVE SMOOTH",
"33 282 OFFCURVE",
"106 238 OFFCURVE",
"176 216 CURVE SMOOTH",
"250 193 OFFCURVE",
"329 189 OFFCURVE",
"329 135 CURVE SMOOTH",
"329 97 OFFCURVE",
"289 70 OFFCURVE",
"229 70 CURVE SMOOTH",
"166 70 OFFCURVE",
"124 100 OFFCURVE",
"124 141 CURVE SMOOTH",
"124 158 LINE",
"28 158 LINE",
"28 139 LINE SMOOTH",
"28 52 OFFCURVE",
"108 -6 OFFCURVE",
"231 -6 CURVE SMOOTH"
);
}
);
width = 457;
},
{
associatedMasterId = "4E2227F3-52E4-4048-A8EE-327B486EF0A4";
layerId = "785EF2C0-A975-4A92-811F-C78DC21C62C7";
name = "{100,3}";
paths = (
{
closed = 1;
nodes = (
"288 -6 OFFCURVE",
"352 49 OFFCURVE",
"352 136 CURVE SMOOTH",
"352 233 OFFCURVE",
"271 268 OFFCURVE",
"215 292 CURVE SMOOTH",
"165 314 OFFCURVE",
"121 330 OFFCURVE",
"121 373 CURVE SMOOTH",
"121 405 OFFCURVE",
"144 436 OFFCURVE",
"186 436 CURVE SMOOTH",
"225 436 OFFCURVE",
"252 408 OFFCURVE",
"252 363 CURVE SMOOTH",
"252 345 LINE",
"345 345 LINE",
"345 358 LINE SMOOTH",
"345 458 OFFCURVE",
"284 515 OFFCURVE",
"184 515 CURVE SMOOTH",
"88 515 OFFCURVE",
"25 462 OFFCURVE",
"25 370 CURVE SMOOTH",
"25 269 OFFCURVE",
"103 236 OFFCURVE",
"156 214 CURVE SMOOTH",
"204 194 OFFCURVE",
"252 177 OFFCURVE",
"252 131 CURVE SMOOTH",
"252 97 OFFCURVE",
"227 70 OFFCURVE",
"187 70 CURVE SMOOTH",
"146 70 OFFCURVE",
"116 97 OFFCURVE",
"116 142 CURVE SMOOTH",
"116 159 LINE",
"21 159 LINE",
"21 140 LINE",
"21 47 OFFCURVE",
"84 -6 OFFCURVE",
"185 -6 CURVE SMOOTH"
);
}
);
width = 372;
}
);
leftKerningGroup = s;
rightKerningGroup = s;
unicode = 0073;
},
{
color = 3;
glyphname = t;
lastChange = "2017-01-20 08:41:53 +0000";
layers = (
{
layerId = "262880E7-CFE1-4BDA-902E-E24798F3240A";
paths = (
{
closed = 1;
nodes = (
"249 0 LINE",
"249 21 LINE",
"220 21 LINE SMOOTH",
"149 21 OFFCURVE",
"112 43 OFFCURVE",
"112 123 CURVE SMOOTH",
"112 626 LINE",
"90 626 LINE",
"90 124 LINE SMOOTH",
"90 23 OFFCURVE",
"144 0 OFFCURVE",
"220 0 CURVE SMOOTH"
);
},
{
closed = 1;
nodes = (
"247 479 LINE",
"247 500 LINE",
"16 500 LINE",
"16 479 LINE"
);
}
);
width = 267;
},
{
layerId = "4E2227F3-52E4-4048-A8EE-327B486EF0A4";
paths = (
{
closed = 1;
nodes = (
"276 7 LINE",
"276 169 LINE",
"259 169 LINE",
"241 168 OFFCURVE",
"228 173 OFFCURVE",
"228 199 CURVE",
"228 660 LINE",
"48 660 LINE",
"48 116 LINE",
"48 17 OFFCURVE",
"115 -11 OFFCURVE",
"213 0 CURVE SMOOTH"
);
},
{
closed = 1;
nodes = (
"291 390 LINE",
"291 520 LINE",
"0 520 LINE",
"0 390 LINE"
);
}
);
width = 295;
},
{
layerId = "FFFA8D72-12AC-4CE0-B2CA-57A29829F4DA";
paths = (
{
closed = 1;
nodes = (
"346 7 LINE",
"346 169 LINE",
"289 169 LINE",
"271 168 OFFCURVE",
"258 190 OFFCURVE",
"258 219 CURVE",
"258 660 LINE",
"78 660 LINE",
"78 136 LINE",
"78 37 OFFCURVE",
"145 -7 OFFCURVE",
"243 0 CURVE SMOOTH"
);
},
{
closed = 1;
nodes = (
"361 370 LINE",
"361 520 LINE",
"0 520 LINE",
"0 370 LINE"
);
}
);
width = 365;
},
{
layerId = "DCBE1F7B-116A-43E0-B7B4-8657BA77D8B5";
paths = (
{
closed = 1;
nodes = (
"194 0 LINE",
"194 21 LINE",
"173 21 LINE SMOOTH",
"120 21 OFFCURVE",
"93 43 OFFCURVE",
"93 123 CURVE SMOOTH",
"93 626 LINE",
"70 626 LINE",
"70 124 LINE SMOOTH",
"70 23 OFFCURVE",
"111 0 OFFCURVE",
"171 0 CURVE SMOOTH"
);
},
{
closed = 1;
nodes = (
"194 479 LINE",
"194 500 LINE",
"14 500 LINE",
"14 479 LINE"
);
}
);
width = 208;
},
{
associatedMasterId = "4E2227F3-52E4-4048-A8EE-327B486EF0A4";
layerId = "5104D358-2B42-4ACD-AAB6-4ADE7FFA9119";
name = "{100,5}";
paths = (
{
closed = 1;
nodes = (
"259 0 LINE",
"259 92 LINE",
"237 92 LINE SMOOTH",
"185 92 OFFCURVE",
"165 114 OFFCURVE",
"165 169 CURVE SMOOTH",
"165 648 LINE",
"65 648 LINE",
"65 152 LINE SMOOTH",
"65 42 OFFCURVE",
"109 0 OFFCURVE",
"211 0 CURVE SMOOTH"
);
},
{
closed = 1;
nodes = (
"263 417 LINE",
"263 509 LINE",
"3 509 LINE",
"3 417 LINE"
);
}
);
width = 274;
}
);
leftKerningGroup = t;
rightKerningGroup = t;
unicode = 0074;
},
{
glyphname = v;
lastChange = "2017-01-20 08:41:53 +0000";
layers = (
{
layerId = "262880E7-CFE1-4BDA-902E-E24798F3240A";
paths = (
{
closed = 1;
nodes = (
"221 0 LINE",
"392 500 LINE",
"367 500 LINE",
"210 33 LINE",
"52 500 LINE",
"27 500 LINE",
"199 0 LINE"
);
}
);
width = 428;
},
{
layerId = "4E2227F3-52E4-4048-A8EE-327B486EF0A4";
paths = (
{
closed = 1;
nodes = (
"339 -2 LINE",
"464 518 LINE",
"260 520 LINE",
"235 256 LINE",
"210 520 LINE",
"6 520 LINE",
"131 0 LINE"
);
}
);
width = 472;
},
{
layerId = "FFFA8D72-12AC-4CE0-B2CA-57A29829F4DA";
paths = (
{
closed = 1;
nodes = (
"373 -2 LINE",
"532 518 LINE",
"328 520 LINE",
"269 256 LINE",
"210 520 LINE",
"6 520 LINE",
"166 0 LINE"
);
}
);
width = 540;
},
{
layerId = "DCBE1F7B-116A-43E0-B7B4-8657BA77D8B5";
paths = (
{
closed = 1;
nodes = (
"175 0 LINE",
"304 500 LINE",
"279 500 LINE",
"163 33 LINE",
"46 500 LINE",
"21 500 LINE",
"152 0 LINE"
);
}
);
width = 332;
}
);
leftKerningGroup = v;
rightKerningGroup = v;
unicode = 0076;
},
{
glyphname = w;
lastChange = "2017-01-20 05:07:06 +0000";
layers = (
{
layerId = "262880E7-CFE1-4BDA-902E-E24798F3240A";
paths = (
{
closed = 1;
nodes = (
"191 0 LINE",
"323 461 LINE",
"455 0 LINE",
"477 0 LINE",
"621 500 LINE",
"599 500 LINE",
"466 27 LINE",
"334 500 LINE",
"312 500 LINE",
"180 27 LINE",
"49 500 LINE",
"27 500 LINE",
"169 0 LINE"
);
}
);
width = 657;
},
{
layerId = "4E2227F3-52E4-4048-A8EE-327B486EF0A4";
paths = (
{
closed = 1;
nodes = (
"294 -2 LINE",
"321 211 LINE",
"350 0 LINE",
"531 -2 LINE",
"643 518 LINE",
"465 520 LINE",
"438 256 LINE",
"404 520 LINE",
"243 520 LINE",
"215 256 LINE",
"187 520 LINE",
"6 520 LINE",
"120 0 LINE"
);
}
);
width = 651;
},
{
associatedMasterId = "4E2227F3-52E4-4048-A8EE-327B486EF0A4";
layerId = "6BA1A2A9-BE91-41BC-8363-5886C86B1880";
name = "{100,100}";
paths = (
{
closed = 1;
nodes = (
"242 -1 LINE",
"314 361 LINE",
"392 0 LINE",
"487 -1 LINE",
"614 508 LINE",
"510 509 LINE",
"440 150 LINE",
"360 509 LINE",
"261 509 LINE",
"192 150 LINE",
"119 509 LINE",
"16 509 LINE",
"142 0 LINE"
);
}
);
width = 634;
},
{
associatedMasterId = "262880E7-CFE1-4BDA-902E-E24798F3240A";
layerId = "0E71CFCD-0B5B-44D0-B25D-1766045E780E";
name = "{100,100}";
paths = (
{
closed = 1;
nodes = (
"242 -1 LINE",
"314 361 LINE",
"392 0 LINE",
"487 -1 LINE",
"614 508 LINE",
"510 509 LINE",
"440 150 LINE",
"360 509 LINE",
"261 509 LINE",
"192 150 LINE",
"119 509 LINE",
"16 509 LINE",
"142 0 LINE"
);
}
);
width = 634;
},
{
associatedMasterId = "FFFA8D72-12AC-4CE0-B2CA-57A29829F4DA";
layerId = "663890CE-879E-4110-A274-BE1D7F03E044";
name = "{100,100}";
paths = (
{
closed = 1;
nodes = (
"242 -1 LINE",
"314 361 LINE",
"392 0 LINE",
"487 -1 LINE",
"614 508 LINE",
"510 509 LINE",
"440 150 LINE",
"360 509 LINE",
"261 509 LINE",
"192 150 LINE",
"119 509 LINE",
"16 509 LINE",
"142 0 LINE"
);
}
);
width = 634;
},
{
layerId = "FFFA8D72-12AC-4CE0-B2CA-57A29829F4DA";
paths = (
{
closed = 1;
nodes = (
"348 -2 LINE",
"375 211 LINE",
"424 0 LINE",
"615 -2 LINE",
"751 518 LINE",
"573 520 LINE",
"522 256 LINE",
"458 520 LINE",
"287 520 LINE",
"239 256 LINE",
"187 520 LINE",
"6 520 LINE",
"144 0 LINE"
);
}
);
width = 759;
},
{
layerId = "DCBE1F7B-116A-43E0-B7B4-8657BA77D8B5";
paths = (
{
closed = 1;
nodes = (
"152 0 LINE",
"248 461 LINE",
"346 0 LINE",
"368 0 LINE",
"478 500 LINE",
"456 500 LINE",
"357 27 LINE",
"259 500 LINE",
"237 500 LINE",
"140 27 LINE",
"43 500 LINE",
"21 500 LINE",
"129 0 LINE"
);
}
);
width = 506;
}
);
leftKerningGroup = v;
rightKerningGroup = v;
unicode = 0077;
},
{
glyphname = x;
lastChange = "2017-01-20 08:41:53 +0000";
layers = (
{
layerId = "262880E7-CFE1-4BDA-902E-E24798F3240A";
paths = (
{
closed = 1;
nodes = (
"52 0 LINE",
"214 233 LINE",
"375 0 LINE",
"401 0 LINE",
"225 250 LINE",
"401 500 LINE",
"375 500 LINE",
"214 267 LINE",
"52 500 LINE",
"27 500 LINE",
"203 250 LINE",
"27 0 LINE"
);
}
);
width = 437;
},
{
layerId = "4E2227F3-52E4-4048-A8EE-327B486EF0A4";
paths = (
{
closed = 1;
nodes = (
"200 0 LINE",
"231 105 LINE",
"262 0 LINE",
"456 0 LINE",
"326 260 LINE",
"456 520 LINE",
"262 520 LINE",
"231 420 LINE",
"200 520 LINE",
"6 520 LINE",
"136 260 LINE",
"6 0 LINE"
);
}
);
width = 464;
},
{
layerId = "FFFA8D72-12AC-4CE0-B2CA-57A29829F4DA";
paths = (
{
closed = 1;
nodes = (
"200 0 LINE",
"266 105 LINE",
"332 0 LINE",
"526 0 LINE",
"361 260 LINE",
"526 520 LINE",
"332 520 LINE",
"266 420 LINE",
"200 520 LINE",
"6 520 LINE",
"171 260 LINE",
"6 0 LINE"
);
}
);
width = 534;
},
{
layerId = "DCBE1F7B-116A-43E0-B7B4-8657BA77D8B5";
paths = (
{
closed = 1;
nodes = (
"46 0 LINE",
"166 233 LINE",
"286 0 LINE",
"310 0 LINE",
"177 250 LINE",
"310 500 LINE",
"286 500 LINE",
"166 267 LINE",
"46 500 LINE",
"21 500 LINE",
"155 250 LINE",
"21 0 LINE"
);
}
);
width = 338;
}
);
leftKerningGroup = x;
unicode = 0078;
},
{
glyphname = y;
lastChange = "2017-01-20 08:41:53 +0000";
layers = (
{
layerId = "262880E7-CFE1-4BDA-902E-E24798F3240A";
paths = (
{
closed = 1;
nodes = (
"69 -200 LINE",
"134 -200 OFFCURVE",
"160 -185 OFFCURVE",
"202 -62 CURVE SMOOTH",
"396 500 LINE",
"374 500 LINE",
"213 27 LINE",
"49 500 LINE",
"27 500 LINE",
"202 0 LINE",
"155 -147 OFFCURVE",
"142 -178 OFFCURVE",
"69 -179 CURVE",
"55 -179 LINE",
"55 -200 LINE"
);
}
);
width = 432;
},
{
layerId = "4E2227F3-52E4-4048-A8EE-327B486EF0A4";
paths = (
{
closed = 1;
nodes = (
"40 -199 LINE",
"247 -199 OFFCURVE",
"284 -140 OFFCURVE",
"323 -2 CURVE",
"453 518 LINE",
"251 520 LINE",
"230 252 LINE",
"207 520 LINE",
"6 520 LINE",
"135 0 LINE",
"143 -40 OFFCURVE",
"105 -45 OFFCURVE",
"37 -45 CURVE",
"28 -45 LINE",
"28 -199 LINE"
);
}
);
width = 461;
},
{
layerId = "FFFA8D72-12AC-4CE0-B2CA-57A29829F4DA";
paths = (
{
closed = 1;
nodes = (
"48 -199 LINE",
"264 -199 OFFCURVE",
"306 -140 OFFCURVE",
"353 -2 CURVE",
"522 518 LINE",
"321 520 LINE",
"265 252 LINE",
"206 520 LINE",
"6 520 LINE",
"170 0 LINE",
"167 -40 OFFCURVE",
"128 -45 OFFCURVE",
"45 -45 CURVE",
"34 -45 LINE",
"34 -199 LINE"
);
}
);
width = 530;
},
{
layerId = "DCBE1F7B-116A-43E0-B7B4-8657BA77D8B5";
paths = (
{
closed = 1;
nodes = (
"53 -200 LINE",
"107 -200 OFFCURVE",
"128 -185 OFFCURVE",
"161 -62 CURVE SMOOTH",
"308 500 LINE",
"285 500 LINE",
"165 27 LINE",
"44 500 LINE",
"21 500 LINE",
"154 0 LINE",
"119 -147 OFFCURVE",
"109 -178 OFFCURVE",
"53 -179 CURVE",
"42 -179 LINE",
"42 -200 LINE"
);
}
);
width = 336;
}
);
leftKerningGroup = v;
rightKerningGroup = v;
unicode = 0079;
},
{
glyphname = z;
lastChange = "2017-01-20 08:41:53 +0000";
layers = (
{
layerId = "262880E7-CFE1-4BDA-902E-E24798F3240A";
paths = (
{
closed = 1;
nodes = (
"381 0 LINE",
"381 21 LINE",
"60 21 LINE",
"384 479 LINE",
"384 500 LINE",
"39 500 LINE",
"39 479 LINE",
"360 479 LINE",
"36 21 LINE",
"36 0 LINE"
);
}
);
width = 420;
},
{
layerId = "4E2227F3-52E4-4048-A8EE-327B486EF0A4";
paths = (
{
closed = 1;
nodes = (
"373 0 LINE",
"373 170 LINE",
"222 170 LINE",
"364 350 LINE",
"364 520 LINE",
"15 520 LINE",
"15 350 LINE",
"140 350 LINE",
"8 170 LINE",
"8 0 LINE"
);
}
);
width = 381;
},
{
layerId = "FFFA8D72-12AC-4CE0-B2CA-57A29829F4DA";
paths = (
{
closed = 1;
nodes = (
"439 0 LINE",
"439 170 LINE",
"222 170 LINE",
"431 350 LINE",
"431 520 LINE",
"15 520 LINE",
"15 350 LINE",
"208 350 LINE",
"8 170 LINE",
"8 0 LINE"
);
}
);
width = 447;
},
{
layerId = "DCBE1F7B-116A-43E0-B7B4-8657BA77D8B5";
paths = (
{
closed = 1;
nodes = (
"294 0 LINE",
"294 21 LINE",
"53 21 LINE",
"296 479 LINE",
"296 500 LINE",
"30 500 LINE",
"30 479 LINE",
"271 479 LINE",
"28 21 LINE",
"28 0 LINE"
);
}
);
width = 324;
}
);
leftKerningGroup = z;
unicode = 007A;
},
{
glyphname = a.alt;
lastChange = "2017-01-20 08:41:53 +0000";
layers = (
{
components = (
{
name = b.bowl;
transform = "{-1, 0, 0, 1, 415, 0}";
}
);
layerId = "262880E7-CFE1-4BDA-902E-E24798F3240A";
paths = (
{
closed = 1;
nodes = (
"418 0 LINE",
"418 500 LINE",
"396 500 LINE",
"396 0 LINE"
);
}
);
width = 455;
},
{
components = (
{
name = b.bowl;
transform = "{-1, 0, 0, 1, 281, 0}";
}
);
layerId = "4E2227F3-52E4-4048-A8EE-327B486EF0A4";
paths = (
{
closed = 1;
nodes = (
"433 0 LINE",
"433 520 LINE",
"245 520 LINE",
"245 0 LINE"
);
}
);
width = 449;
},
{
components = (
{
name = b.bowl;
transform = "{-1, 0, 0, 1, 365, 0}";
}
);
layerId = "FFFA8D72-12AC-4CE0-B2CA-57A29829F4DA";
paths = (
{
closed = 1;
nodes = (
"514 0 LINE",
"514 520 LINE",
"326 520 LINE",
"326 0 LINE"
);
}
);
width = 449;
},
{
components = (
{
name = b.bowl;
transform = "{-1, 0, 0, 1, 315, 0}";
}
);
layerId = "DCBE1F7B-116A-43E0-B7B4-8657BA77D8B5";
paths = (
{
closed = 1;
nodes = (
"321 0 LINE",
"321 500 LINE",
"299 500 LINE",
"299 0 LINE"
);
}
);
width = 455;
}
);
leftKerningGroup = a;
rightKerningGroup = a;
},
{
color = 3;
export = 0;
glyphname = b.bowl;
lastChange = "2017-02-08 03:57:19 +0000";
layers = (
{
layerId = "262880E7-CFE1-4BDA-902E-E24798F3240A";
paths = (
{
closed = 1;
nodes = (
"277 -8 OFFCURVE",
"342 62 OFFCURVE",
"342 165 CURVE SMOOTH",
"342 335 LINE SMOOTH",
"342 438 OFFCURVE",
"279 508 OFFCURVE",
"172 508 CURVE SMOOTH",
"65 508 OFFCURVE",
"0 434 OFFCURVE",
"0 335 CURVE SMOOTH",
"0 165 LINE SMOOTH",
"0 60 OFFCURVE",
"70 -8 OFFCURVE",
"170 -8 CURVE SMOOTH"
);
},
{
closed = 1;
nodes = (
"79 13 OFFCURVE",
"19 74 OFFCURVE",
"19 162 CURVE SMOOTH",
"19 338 LINE SMOOTH",
"19 426 OFFCURVE",
"79 487 OFFCURVE",
"170 487 CURVE SMOOTH",
"264 487 OFFCURVE",
"320 426 OFFCURVE",
"320 338 CURVE SMOOTH",
"320 162 LINE SMOOTH",
"320 74 OFFCURVE",
"264 13 OFFCURVE",
"170 13 CURVE SMOOTH"
);
}
);
width = 342;
},
{
layerId = "4E2227F3-52E4-4048-A8EE-327B486EF0A4";
paths = (
{
closed = 1;
nodes = (
"237 -8 OFFCURVE",
"267 56 OFFCURVE",
"267 177 CURVE SMOOTH",
"267 343 LINE SMOOTH",
"267 464 OFFCURVE",
"237 528 OFFCURVE",
"126 528 CURVE SMOOTH",
"91 528 OFFCURVE",
"0 513 OFFCURVE",
"0 323 CURVE SMOOTH",
"0 197 LINE",
"-4 7 OFFCURVE",
"91 -8 OFFCURVE",
"126 -8 CURVE SMOOTH"
);
},
{
closed = 1;
nodes = (
"42 153 OFFCURVE",
"34 164 OFFCURVE",
"34 186 CURVE SMOOTH",
"34 334 LINE SMOOTH",
"34 356 OFFCURVE",
"42 367 OFFCURVE",
"56 367 CURVE SMOOTH",
"71 367 OFFCURVE",
"79 356 OFFCURVE",
"79 334 CURVE SMOOTH",
"79 186 LINE SMOOTH",
"79 164 OFFCURVE",
"71 153 OFFCURVE",
"56 153 CURVE SMOOTH"
);
}
);
width = 267;
},
{
associatedMasterId = "262880E7-CFE1-4BDA-902E-E24798F3240A";
layerId = "49A4F55C-B681-47B2-A21D-C788909AF142";
name = "{100,5}";
paths = (
{
closed = 1;
nodes = (
"274 -8 OFFCURVE",
"350 64 OFFCURVE",
"350 172 CURVE SMOOTH",
"350 338 LINE SMOOTH",
"350 445 OFFCURVE",
"276 517 OFFCURVE",
"164 517 CURVE SMOOTH",
"55 517 OFFCURVE",
"-17 435 OFFCURVE",
"-17 313 CURVE SMOOTH",
"-17 196 LINE SMOOTH",
"-17 74 OFFCURVE",
"54 -8 OFFCURVE",
"161 -8 CURVE SMOOTH"
);
},
{
closed = 1;
nodes = (
"81 78 OFFCURVE",
"38 120 OFFCURVE",
"38 183 CURVE SMOOTH",
"38 326 LINE SMOOTH",
"38 389 OFFCURVE",
"81 431 OFFCURVE",
"145 431 CURVE SMOOTH",
"209 431 OFFCURVE",
"251 389 OFFCURVE",
"251 326 CURVE SMOOTH",
"251 183 LINE SMOOTH",
"251 120 OFFCURVE",
"209 78 OFFCURVE",
"145 78 CURVE SMOOTH"
);
}
);
width = 350;
},
{
layerId = "FFFA8D72-12AC-4CE0-B2CA-57A29829F4DA";
paths = (
{
closed = 1;
nodes = (
"286 -8 OFFCURVE",
"360 74 OFFCURVE",
"360 232 CURVE SMOOTH",
"360 288 LINE SMOOTH",
"360 446 OFFCURVE",
"287 528 OFFCURVE",
"166 528 CURVE SMOOTH",
"56 528 OFFCURVE",
"0 420 OFFCURVE",
"0 280 CURVE SMOOTH",
"0 240 LINE SMOOTH",
"0 136 OFFCURVE",
"35 -8 OFFCURVE",
"162 -8 CURVE SMOOTH"
);
},
{
closed = 1;
nodes = (
"82 153 OFFCURVE",
"59 182 OFFCURVE",
"59 225 CURVE SMOOTH",
"59 295 LINE SMOOTH",
"59 338 OFFCURVE",
"82 367 OFFCURVE",
"116 367 CURVE SMOOTH",
"150 367 OFFCURVE",
"172 338 OFFCURVE",
"172 295 CURVE SMOOTH",
"172 225 LINE SMOOTH",
"172 182 OFFCURVE",
"150 153 OFFCURVE",
"116 153 CURVE SMOOTH"
);
}
);
width = 360;
},
{
layerId = "DCBE1F7B-116A-43E0-B7B4-8657BA77D8B5";
paths = (
{
closed = 1;
nodes = (
"207 -8 OFFCURVE",
"260 50 OFFCURVE",
"260 138 CURVE SMOOTH",
"260 362 LINE SMOOTH",
"260 450 OFFCURVE",
"208 508 OFFCURVE",
"130 508 CURVE SMOOTH",
"51 508 OFFCURVE",
"-2 450 OFFCURVE",
"-2 362 CURVE SMOOTH",
"-2 138 LINE SMOOTH",
"-2 50 OFFCURVE",
"50 -8 OFFCURVE",
"128 -8 CURVE SMOOTH"
);
},
{
closed = 1;
nodes = (
"60 13 OFFCURVE",
"15 62 OFFCURVE",
"15 135 CURVE SMOOTH",
"15 365 LINE SMOOTH",
"15 438 OFFCURVE",
"60 487 OFFCURVE",
"127 487 CURVE SMOOTH",
"194 487 OFFCURVE",
"238 438 OFFCURVE",
"238 365 CURVE SMOOTH",
"238 135 LINE SMOOTH",
"238 62 OFFCURVE",
"194 13 OFFCURVE",
"127 13 CURVE SMOOTH"
);
}
);
width = 260;
}
);
changeCount = 24;
},
{
export = 0;
glyphname = n.curve;
lastChange = "2017-02-08 03:50:56 +0000";
layers = (
{
layerId = "262880E7-CFE1-4BDA-902E-E24798F3240A";
paths = (
{
closed = 1;
nodes = (
"334 0 LINE",
"334 340 LINE SMOOTH",
"334 439 OFFCURVE",
"267 507 OFFCURVE",
"171 507 CURVE SMOOTH",
"68 507 OFFCURVE",
"0 441 OFFCURVE",
"0 339 CURVE",
"18 339 LINE",
"18 426 OFFCURVE",
"77 486 OFFCURVE",
"168 486 CURVE SMOOTH",
"253 486 OFFCURVE",
"312 425 OFFCURVE",
"312 337 CURVE SMOOTH",
"312 0 LINE"
);
}
);
width = 334;
},
{
layerId = "4E2227F3-52E4-4048-A8EE-327B486EF0A4";
paths = (
{
closed = 1;
nodes = (
"268 0 LINE",
"268 348 LINE SMOOTH",
"268 459 OFFCURVE",
"227 528 OFFCURVE",
"126 528 CURVE SMOOTH",
"89 528 OFFCURVE",
"-1 515 OFFCURVE",
"0 335 CURVE",
"36 335 LINE",
"36 356 OFFCURVE",
"44 367 OFFCURVE",
"59 367 CURVE SMOOTH",
"73 367 OFFCURVE",
"80 356 OFFCURVE",
"80 335 CURVE SMOOTH",
"80 0 LINE"
);
}
);
width = 268;
},
{
layerId = "FFFA8D72-12AC-4CE0-B2CA-57A29829F4DA";
paths = (
{
closed = 1;
nodes = (
"340 0 LINE",
"340 348 LINE SMOOTH",
"340 459 OFFCURVE",
"265 528 OFFCURVE",
"147 528 CURVE SMOOTH",
"69 528 OFFCURVE",
"-21 470 OFFCURVE",
"-20 310 CURVE",
"39 300 LINE",
"39 340 OFFCURVE",
"62 367 OFFCURVE",
"96 367 CURVE SMOOTH",
"130 367 OFFCURVE",
"152 340 OFFCURVE",
"152 300 CURVE SMOOTH",
"152 0 LINE"
);
}
);
width = 332;
},
{
layerId = "DCBE1F7B-116A-43E0-B7B4-8657BA77D8B5";
paths = (
{
closed = 1;
nodes = (
"254 0 LINE",
"254 357 LINE SMOOTH",
"254 451 OFFCURVE",
"208 507 OFFCURVE",
"129 507 CURVE SMOOTH",
"51 507 OFFCURVE",
"-1 448 OFFCURVE",
"-1 346 CURVE",
"15 346 LINE",
"15 433 OFFCURVE",
"58 486 OFFCURVE",
"126 486 CURVE SMOOTH",
"193 486 OFFCURVE",
"232 437 OFFCURVE",
"232 354 CURVE SMOOTH",
"232 0 LINE"
);
}
);
width = 254;
}
);
},
{
glyphname = zero;
lastChange = "2017-01-20 08:41:53 +0000";
layers = (
{
layerId = "262880E7-CFE1-4BDA-902E-E24798F3240A";
paths = (
{
closed = 1;
nodes = (
"386 -9 OFFCURVE",
"466 56 OFFCURVE",
"466 154 CURVE SMOOTH",
"466 546 LINE SMOOTH",
"466 644 OFFCURVE",
"386 709 OFFCURVE",
"268 709 CURVE SMOOTH",
"150 709 OFFCURVE",
"72 644 OFFCURVE",
"72 546 CURVE SMOOTH",
"72 154 LINE SMOOTH",
"72 56 OFFCURVE",
"150 -9 OFFCURVE",
"268 -9 CURVE SMOOTH"
);
},
{
closed = 1;
nodes = (
"163 12 OFFCURVE",
"94 68 OFFCURVE",
"94 152 CURVE SMOOTH",
"94 548 LINE SMOOTH",
"94 632 OFFCURVE",
"163 688 OFFCURVE",
"268 688 CURVE SMOOTH",
"375 688 OFFCURVE",
"444 632 OFFCURVE",
"444 548 CURVE SMOOTH",
"444 152 LINE SMOOTH",
"444 68 OFFCURVE",
"375 12 OFFCURVE",
"268 12 CURVE SMOOTH"
);
}
);
width = 538;
},
{
layerId = "4E2227F3-52E4-4048-A8EE-327B486EF0A4";
paths = (
{
closed = 1;
nodes = (
"358 -12 OFFCURVE",
"443 75 OFFCURVE",
"443 206 CURVE SMOOTH",
"443 494 LINE SMOOTH",
"443 625 OFFCURVE",
"358 712 OFFCURVE",
"229 712 CURVE SMOOTH",
"101 712 OFFCURVE",
"16 625 OFFCURVE",
"16 494 CURVE SMOOTH",
"16 206 LINE SMOOTH",
"16 75 OFFCURVE",
"101 -12 OFFCURVE",
"229 -12 CURVE SMOOTH"
);
},
{
closed = 1;
nodes = (
"214 149 OFFCURVE",
"204 167 OFFCURVE",
"204 195 CURVE SMOOTH",
"204 505 LINE SMOOTH",
"204 533 OFFCURVE",
"214 551 OFFCURVE",
"229 551 CURVE SMOOTH",
"245 551 OFFCURVE",
"255 533 OFFCURVE",
"255 505 CURVE SMOOTH",
"255 195 LINE SMOOTH",
"255 167 OFFCURVE",
"245 149 OFFCURVE",
"229 149 CURVE SMOOTH"
);
}
);
width = 459;
},
{
layerId = "FFFA8D72-12AC-4CE0-B2CA-57A29829F4DA";
paths = (
{
closed = 1;
nodes = (
"418 -12 OFFCURVE",
"518 75 OFFCURVE",
"518 206 CURVE SMOOTH",
"518 494 LINE SMOOTH",
"518 625 OFFCURVE",
"418 712 OFFCURVE",
"266 712 CURVE SMOOTH",
"116 712 OFFCURVE",
"16 625 OFFCURVE",
"16 494 CURVE SMOOTH",
"16 206 LINE SMOOTH",
"16 75 OFFCURVE",
"116 -12 OFFCURVE",
"266 -12 CURVE SMOOTH"
);
},
{
closed = 1;
nodes = (
"229 149 OFFCURVE",
"204 179 OFFCURVE",
"204 207 CURVE SMOOTH",
"204 493 LINE SMOOTH",
"204 521 OFFCURVE",
"229 551 OFFCURVE",
"266 551 CURVE SMOOTH",
"306 551 OFFCURVE",
"331 521 OFFCURVE",
"331 493 CURVE SMOOTH",
"331 207 LINE SMOOTH",
"331 179 OFFCURVE",
"306 149 OFFCURVE",
"266 149 CURVE SMOOTH"
);
}
);
width = 534;
},
{
layerId = "DCBE1F7B-116A-43E0-B7B4-8657BA77D8B5";
paths = (
{
closed = 1;
nodes = (
"298 -9 OFFCURVE",
"360 56 OFFCURVE",
"360 154 CURVE SMOOTH",
"360 546 LINE SMOOTH",
"360 644 OFFCURVE",
"298 709 OFFCURVE",
"207 709 CURVE SMOOTH",
"116 709 OFFCURVE",
"56 644 OFFCURVE",
"56 546 CURVE SMOOTH",
"56 154 LINE SMOOTH",
"56 56 OFFCURVE",
"116 -9 OFFCURVE",
"207 -9 CURVE SMOOTH"
);
},
{
closed = 1;
nodes = (
"130 12 OFFCURVE",
"78 68 OFFCURVE",
"78 152 CURVE SMOOTH",
"78 548 LINE SMOOTH",
"78 632 OFFCURVE",
"130 688 OFFCURVE",
"207 688 CURVE SMOOTH",
"286 688 OFFCURVE",
"338 632 OFFCURVE",
"338 548 CURVE SMOOTH",
"338 152 LINE SMOOTH",
"338 68 OFFCURVE",
"286 12 OFFCURVE",
"207 12 CURVE SMOOTH"
);
}
);
width = 416;
}
);
unicode = 0030;
},
{
glyphname = one;
lastChange = "2017-01-20 08:41:53 +0000";
layers = (
{
layerId = "262880E7-CFE1-4BDA-902E-E24798F3240A";
paths = (
{
closed = 1;
nodes = (
"195 0 LINE",
"195 700 LINE",
"173 700 LINE",
"173 0 LINE"
);
},
{
closed = 1;
nodes = (
"81 637 LINE",
"173 669 LINE",
"173 700 LINE",
"81 658 LINE"
);
}
);
width = 285;
},
{
layerId = "4E2227F3-52E4-4048-A8EE-327B486EF0A4";
paths = (
{
closed = 1;
nodes = (
"253 0 LINE",
"253 700 LINE",
"65 700 LINE",
"65 0 LINE"
);
},
{
closed = 1;
nodes = (
"18 529 LINE",
"65 529 LINE",
"65 700 LINE",
"18 673 LINE"
);
}
);
width = 273;
},
{
layerId = "FFFA8D72-12AC-4CE0-B2CA-57A29829F4DA";
paths = (
{
closed = 1;
nodes = (
"272 0 LINE",
"272 700 LINE",
"84 700 LINE",
"84 0 LINE"
);
},
{
closed = 1;
nodes = (
"18 529 LINE",
"84 529 LINE",
"84 700 LINE",
"18 673 LINE"
);
}
);
width = 292;
},
{
layerId = "DCBE1F7B-116A-43E0-B7B4-8657BA77D8B5";
paths = (
{
closed = 1;
nodes = (
"154 0 LINE",
"154 700 LINE",
"132 700 LINE",
"132 0 LINE"
);
},
{
closed = 1;
nodes = (
"63 637 LINE",
"132 669 LINE",
"132 700 LINE",
"63 658 LINE"
);
}
);
width = 224;
}
);
unicode = 0031;
},
{
glyphname = two;
lastChange = "2017-01-20 08:49:33 +0000";
layers = (
{
layerId = "262880E7-CFE1-4BDA-902E-E24798F3240A";
paths = (
{
closed = 1;
nodes = (
"414 0 LINE",
"414 21 LINE",
"89 21 LINE",
"310 323 LINE SMOOTH",
"374 410 OFFCURVE",
"406 485 OFFCURVE",
"406 544 CURVE SMOOTH",
"406 642 OFFCURVE",
"336 708 OFFCURVE",
"232 708 CURVE SMOOTH",
"131 708 OFFCURVE",
"63 642 OFFCURVE",
"63 544 CURVE SMOOTH",
"63 500 LINE",
"85 500 LINE",
"85 544 LINE",
"84 630 OFFCURVE",
"143 687 OFFCURVE",
"232 687 CURVE SMOOTH",
"323 687 OFFCURVE",
"384 630 OFFCURVE",
"384 544 CURVE SMOOTH",
"384 490 OFFCURVE",
"353 420 OFFCURVE",
"291 335 CURVE SMOOTH",
"63 21 LINE",
"63 0 LINE"
);
}
);
width = 459;
},
{
layerId = "4E2227F3-52E4-4048-A8EE-327B486EF0A4";
paths = (
{
closed = 1;
nodes = (
"453 0 LINE",
"453 170 LINE",
"275 170 LINE",
"393 311 LINE",
"442 382 OFFCURVE",
"447 425 OFFCURVE",
"447 520 CURVE SMOOTH",
"447 639 OFFCURVE",
"356 708 OFFCURVE",
"230 708 CURVE SMOOTH",
"108 708 OFFCURVE",
"21 640 OFFCURVE",
"14 520 CURVE",
"14 455 LINE",
"204 455 LINE",
"204 503 LINE",
"204 524 OFFCURVE",
"215 538 OFFCURVE",
"231 538 CURVE SMOOTH",
"246 538 OFFCURVE",
"257 524 OFFCURVE",
"257 503 CURVE SMOOTH",
"257 457 OFFCURVE",
"244 423 OFFCURVE",
"193 361 CURVE",
"18 170 LINE",
"18 0 LINE"
);
}
);
width = 463;
},
{
layerId = "FFFA8D72-12AC-4CE0-B2CA-57A29829F4DA";
paths = (
{
closed = 1;
nodes = (
"518 0 LINE",
"518 170 LINE",
"274 170 LINE",
"437 311 LINE",
"499 382 OFFCURVE",
"511 425 OFFCURVE",
"511 520 CURVE SMOOTH",
"511 639 OFFCURVE",
"407 708 OFFCURVE",
"261 708 CURVE SMOOTH",
"120 708 OFFCURVE",
"21 640 OFFCURVE",
"14 520 CURVE",
"14 455 LINE",
"204 455 LINE",
"204 503 LINE",
"204 524 OFFCURVE",
"227 538 OFFCURVE",
"262 538 CURVE SMOOTH",
"297 538 OFFCURVE",
"321 524 OFFCURVE",
"321 503 CURVE SMOOTH",
"321 457 OFFCURVE",
"302 423 OFFCURVE",
"238 361 CURVE",
"18 170 LINE",
"18 0 LINE"
);
}
);
width = 528;
},
{
layerId = "DCBE1F7B-116A-43E0-B7B4-8657BA77D8B5";
paths = (
{
closed = 1;
nodes = (
"321 0 LINE",
"321 21 LINE",
"76 21 LINE",
"243 323 LINE SMOOTH",
"291 410 OFFCURVE",
"315 485 OFFCURVE",
"315 544 CURVE SMOOTH",
"315 642 OFFCURVE",
"261 708 OFFCURVE",
"180 708 CURVE SMOOTH",
"102 708 OFFCURVE",
"49 642 OFFCURVE",
"49 544 CURVE SMOOTH",
"49 500 LINE",
"72 500 LINE",
"72 544 LINE",
"71 630 OFFCURVE",
"114 687 OFFCURVE",
"180 687 CURVE SMOOTH",
"248 687 OFFCURVE",
"293 630 OFFCURVE",
"293 544 CURVE SMOOTH",
"293 490 OFFCURVE",
"269 420 OFFCURVE",
"222 335 CURVE SMOOTH",
"49 21 LINE",
"49 0 LINE"
);
}
);
width = 356;
}
);
unicode = 0032;
},
{
glyphname = three;
lastChange = "2017-01-20 08:41:53 +0000";
layers = (
{
layerId = "262880E7-CFE1-4BDA-902E-E24798F3240A";
paths = (
{
closed = 1;
nodes = (
"63 700 LINE",
"63 679 LINE",
"385 679 LINE",
"193 416 LINE",
"204 404 LINE",
"214 406 OFFCURVE",
"225 407 OFFCURVE",
"236 407 CURVE SMOOTH",
"326 407 OFFCURVE",
"386 350 OFFCURVE",
"386 265 CURVE SMOOTH",
"386 155 LINE SMOOTH",
"386 70 OFFCURVE",
"326 13 OFFCURVE",
"236 13 CURVE SMOOTH",
"146 13 OFFCURVE",
"85 70 OFFCURVE",
"85 155 CURVE SMOOTH",
"85 201 LINE",
"63 201 LINE",
"63 158 LINE SMOOTH",
"63 58 OFFCURVE",
"132 -8 OFFCURVE",
"236 -8 CURVE SMOOTH",
"340 -8 OFFCURVE",
"408 58 OFFCURVE",
"408 158 CURVE SMOOTH",
"408 262 LINE SMOOTH",
"408 364 OFFCURVE",
"335 446 OFFCURVE",
"222 426 CURVE",
"224 419 LINE",
"411 679 LINE",
"411 700 LINE"
);
}
);
width = 483;
},
{
layerId = "4E2227F3-52E4-4048-A8EE-327B486EF0A4";
paths = (
{
closed = 1;
nodes = (
"30 700 LINE",
"30 530 LINE",
"213 530 LINE",
"84 417 LINE",
"185 312 LINE",
"201 333 OFFCURVE",
"211 340 OFFCURVE",
"227 340 CURVE SMOOTH",
"243 340 OFFCURVE",
"253 327 OFFCURVE",
"253 308 CURVE SMOOTH",
"253 185 LINE SMOOTH",
"253 166 OFFCURVE",
"243 153 OFFCURVE",
"227 153 CURVE SMOOTH",
"212 153 OFFCURVE",
"202 166 OFFCURVE",
"202 185 CURVE SMOOTH",
"202 232 LINE",
"14 232 LINE",
"14 172 LINE SMOOTH",
"14 59 OFFCURVE",
"99 -7 OFFCURVE",
"227 -7 CURVE SMOOTH",
"346 -7 OFFCURVE",
"431 59 OFFCURVE",
"431 172 CURVE SMOOTH",
"431 276 LINE SMOOTH",
"431 373 OFFCURVE",
"354 447 OFFCURVE",
"265 405 CURVE",
"263 363 LINE",
"431 530 LINE",
"431 700 LINE"
);
}
);
width = 447;
},
{
layerId = "FFFA8D72-12AC-4CE0-B2CA-57A29829F4DA";
paths = (
{
closed = 1;
nodes = (
"30 700 LINE",
"30 530 LINE",
"279 530 LINE",
"111 417 LINE",
"211 312 LINE",
"225 329 OFFCURVE",
"245 340 OFFCURVE",
"259 340 CURVE SMOOTH",
"294 340 OFFCURVE",
"318 322 OFFCURVE",
"318 295 CURVE SMOOTH",
"318 198 LINE SMOOTH",
"318 171 OFFCURVE",
"294 153 OFFCURVE",
"259 153 CURVE SMOOTH",
"225 153 OFFCURVE",
"202 171 OFFCURVE",
"202 198 CURVE SMOOTH",
"202 232 LINE",
"14 232 LINE",
"14 172 LINE SMOOTH",
"14 59 OFFCURVE",
"112 -7 OFFCURVE",
"259 -7 CURVE SMOOTH",
"398 -7 OFFCURVE",
"496 59 OFFCURVE",
"496 172 CURVE SMOOTH",
"496 276 LINE SMOOTH",
"496 373 OFFCURVE",
"405 447 OFFCURVE",
"293 405 CURVE",
"292 363 LINE",
"496 530 LINE",
"496 700 LINE"
);
}
);
width = 512;
},
{
layerId = "DCBE1F7B-116A-43E0-B7B4-8657BA77D8B5";
paths = (
{
closed = 1;
nodes = (
"49 700 LINE",
"49 679 LINE",
"292 679 LINE",
"147 416 LINE",
"158 404 LINE",
"166 406 OFFCURVE",
"174 407 OFFCURVE",
"183 407 CURVE SMOOTH",
"250 407 OFFCURVE",
"294 350 OFFCURVE",
"294 265 CURVE SMOOTH",
"294 155 LINE SMOOTH",
"294 70 OFFCURVE",
"250 13 OFFCURVE",
"183 13 CURVE SMOOTH",
"116 13 OFFCURVE",
"71 70 OFFCURVE",
"71 155 CURVE SMOOTH",
"71 201 LINE",
"49 201 LINE",
"49 158 LINE SMOOTH",
"49 58 OFFCURVE",
"102 -8 OFFCURVE",
"183 -8 CURVE SMOOTH",
"263 -8 OFFCURVE",
"316 58 OFFCURVE",
"316 158 CURVE SMOOTH",
"316 262 LINE SMOOTH",
"316 364 OFFCURVE",
"260 446 OFFCURVE",
"174 426 CURVE",
"176 419 LINE",
"318 679 LINE",
"318 700 LINE"
);
}
);
width = 374;
}
);
unicode = 0033;
},
{
glyphname = four;
lastChange = "2017-01-20 08:50:04 +0000";
layers = (
{
layerId = "262880E7-CFE1-4BDA-902E-E24798F3240A";
paths = (
{
closed = 1;
nodes = (
"333 -7 LINE",
"355 -7 LINE",
"355 415 LINE",
"333 415 LINE"
);
},
{
closed = 1;
nodes = (
"58 223 LINE",
"278 700 LINE",
"256 700 LINE",
"36 223 LINE",
"36 202 LINE",
"409 202 LINE",
"409 223 LINE"
);
}
);
width = 445;
},
{
layerId = "4E2227F3-52E4-4048-A8EE-327B486EF0A4";
paths = (
{
closed = 1;
nodes = (
"283 0 LINE",
"471 0 LINE",
"471 426 LINE",
"283 426 LINE"
);
},
{
closed = 1;
nodes = (
"226 337 LINE",
"333 700 LINE",
"136 700 LINE",
"8 302 LINE",
"8 167 LINE",
"522 167 LINE",
"522 337 LINE"
);
}
);
width = 530;
},
{
layerId = "FFFA8D72-12AC-4CE0-B2CA-57A29829F4DA";
paths = (
{
closed = 1;
nodes = (
"341 0 LINE",
"529 0 LINE",
"529 426 LINE",
"341 426 LINE"
);
},
{
closed = 1;
nodes = (
"225 337 LINE",
"378 700 LINE",
"181 700 LINE",
"8 302 LINE",
"8 167 LINE",
"590 167 LINE",
"590 337 LINE"
);
}
);
width = 598;
},
{
layerId = "DCBE1F7B-116A-43E0-B7B4-8657BA77D8B5";
paths = (
{
closed = 1;
nodes = (
"255 -7 LINE",
"277 -7 LINE",
"277 415 LINE",
"255 415 LINE"
);
},
{
closed = 1;
nodes = (
"52 222 LINE",
"218 700 LINE",
"194 700 LINE",
"28 222 LINE",
"28 202 LINE",
"319 202 LINE",
"319 222 LINE"
);
}
);
width = 347;
}
);
unicode = 0034;
},
{
glyphname = five;
lastChange = "2017-01-20 08:55:14 +0000";
layers = (
{
layerId = "262880E7-CFE1-4BDA-902E-E24798F3240A";
paths = (
{
closed = 1;
nodes = (
"327 -9 OFFCURVE",
"393 57 OFFCURVE",
"393 157 CURVE SMOOTH",
"393 262 LINE SMOOTH",
"393 362 OFFCURVE",
"327 428 OFFCURVE",
"228 428 CURVE SMOOTH",
"128 428 OFFCURVE",
"67 381 OFFCURVE",
"67 311 CURVE",
"67 307 LINE",
"87 307 LINE",
"87 311 LINE SMOOTH",
"87 369 OFFCURVE",
"141 407 OFFCURVE",
"229 407 CURVE SMOOTH",
"314 407 OFFCURVE",
"371 350 OFFCURVE",
"371 265 CURVE SMOOTH",
"371 154 LINE SMOOTH",
"371 69 OFFCURVE",
"314 12 OFFCURVE",
"229 12 CURVE SMOOTH",
"144 12 OFFCURVE",
"87 69 OFFCURVE",
"87 154 CURVE SMOOTH",
"87 158 LINE",
"65 158 LINE",
"65 157 LINE SMOOTH",
"65 57 OFFCURVE",
"131 -9 OFFCURVE",
"229 -9 CURVE SMOOTH"
);
},
{
closed = 1;
nodes = (
"87 307 LINE",
"87 679 LINE",
"379 679 LINE",
"379 700 LINE",
"65 700 LINE",
"65 307 LINE"
);
}
);
width = 442;
},
{
layerId = "4E2227F3-52E4-4048-A8EE-327B486EF0A4";
paths = (
{
closed = 1;
nodes = (
"350 -8 OFFCURVE",
"435 58 OFFCURVE",
"435 171 CURVE SMOOTH",
"435 260 LINE SMOOTH",
"435 374 OFFCURVE",
"376 444 OFFCURVE",
"281 444 CURVE SMOOTH",
"170 444 OFFCURVE",
"138 344 OFFCURVE",
"138 260 CURVE",
"138 256 LINE",
"195 256 LINE",
"195 257 LINE SMOOTH",
"195 272 OFFCURVE",
"205 282 OFFCURVE",
"221 282 CURVE SMOOTH",
"237 282 OFFCURVE",
"247 269 OFFCURVE",
"247 250 CURVE SMOOTH",
"247 184 LINE SMOOTH",
"247 165 OFFCURVE",
"237 152 OFFCURVE",
"221 152 CURVE SMOOTH",
"206 152 OFFCURVE",
"196 165 OFFCURVE",
"196 184 CURVE SMOOTH",
"196 185 LINE",
"8 185 LINE",
"8 171 LINE SMOOTH",
"8 58 OFFCURVE",
"91 -8 OFFCURVE",
"221 -8 CURVE SMOOTH"
);
},
{
closed = 1;
nodes = (
"195 254 LINE",
"195 530 LINE",
"433 530 LINE",
"433 700 LINE",
"7 700 LINE",
"7 254 LINE"
);
}
);
width = 443;
},
{
layerId = "FFFA8D72-12AC-4CE0-B2CA-57A29829F4DA";
paths = (
{
closed = 1;
nodes = (
"412 -8 OFFCURVE",
"510 64 OFFCURVE",
"510 171 CURVE SMOOTH",
"510 260 LINE SMOOTH",
"510 370 OFFCURVE",
"436 444 OFFCURVE",
"324 444 CURVE SMOOTH",
"221 444 OFFCURVE",
"152 370 OFFCURVE",
"152 260 CURVE",
"152 256 LINE",
"211 256 LINE",
"211 257 LINE SMOOTH",
"211 272 OFFCURVE",
"233 282 OFFCURVE",
"265 282 CURVE SMOOTH",
"299 282 OFFCURVE",
"322 263 OFFCURVE",
"322 235 CURVE SMOOTH",
"322 199 LINE SMOOTH",
"322 171 OFFCURVE",
"299 152 OFFCURVE",
"265 152 CURVE SMOOTH",
"232 152 OFFCURVE",
"210 165 OFFCURVE",
"210 184 CURVE SMOOTH",
"210 185 LINE",
"22 185 LINE",
"22 171 LINE SMOOTH",
"22 64 OFFCURVE",
"119 -8 OFFCURVE",
"265 -8 CURVE SMOOTH"
);
},
{
closed = 1;
nodes = (
"211 254 LINE",
"212 530 LINE",
"507 530 LINE",
"507 700 LINE",
"24 700 LINE",
"24 254 LINE"
);
}
);
width = 528;
},
{
layerId = "DCBE1F7B-116A-43E0-B7B4-8657BA77D8B5";
paths = (
{
closed = 1;
nodes = (
"252 -9 OFFCURVE",
"303 57 OFFCURVE",
"303 157 CURVE SMOOTH",
"303 262 LINE SMOOTH",
"303 362 OFFCURVE",
"253 428 OFFCURVE",
"177 428 CURVE SMOOTH",
"110 428 OFFCURVE",
"62 381 OFFCURVE",
"62 311 CURVE",
"62 307 LINE",
"79 307 LINE",
"79 311 LINE SMOOTH",
"79 369 OFFCURVE",
"121 407 OFFCURVE",
"175 407 CURVE SMOOTH",
"239 407 OFFCURVE",
"281 350 OFFCURVE",
"281 265 CURVE SMOOTH",
"281 154 LINE SMOOTH",
"281 69 OFFCURVE",
"239 12 OFFCURVE",
"175 12 CURVE SMOOTH",
"112 12 OFFCURVE",
"70 69 OFFCURVE",
"70 154 CURVE SMOOTH",
"70 158 LINE",
"48 158 LINE",
"48 157 LINE SMOOTH",
"48 57 OFFCURVE",
"99 -9 OFFCURVE",
"175 -9 CURVE SMOOTH"
);
},
{
closed = 1;
nodes = (
"79 310 LINE",
"80 679 LINE",
"301 679 LINE",
"301 700 LINE",
"58 700 LINE",
"59 310 LINE"
);
}
);
width = 339;
}
);
unicode = 0035;
},
{
glyphname = six;
lastChange = "2017-01-20 08:41:53 +0000";
layers = (
{
layerId = "262880E7-CFE1-4BDA-902E-E24798F3240A";
paths = (
{
closed = 1;
nodes = (
"360 -8 OFFCURVE",
"428 58 OFFCURVE",
"428 158 CURVE SMOOTH",
"428 262 LINE SMOOTH",
"428 362 OFFCURVE",
"360 428 OFFCURVE",
"255 428 CURVE SMOOTH",
"183 428 OFFCURVE",
"127 395 OFFCURVE",
"100 340 CURVE",
"103 340 LINE",
"103 545 LINE SMOOTH",
"103 630 OFFCURVE",
"164 687 OFFCURVE",
"255 687 CURVE SMOOTH",
"346 687 OFFCURVE",
"406 630 OFFCURVE",
"406 545 CURVE SMOOTH",
"406 500 LINE",
"428 500 LINE",
"428 542 LINE SMOOTH",
"428 642 OFFCURVE",
"360 708 OFFCURVE",
"255 708 CURVE SMOOTH",
"150 708 OFFCURVE",
"81 642 OFFCURVE",
"81 542 CURVE SMOOTH",
"81 158 LINE SMOOTH",
"81 58 OFFCURVE",
"150 -8 OFFCURVE",
"255 -8 CURVE SMOOTH"
);
},
{
closed = 1;
nodes = (
"164 13 OFFCURVE",
"103 70 OFFCURVE",
"103 155 CURVE SMOOTH",
"103 265 LINE SMOOTH",
"103 350 OFFCURVE",
"164 407 OFFCURVE",
"255 407 CURVE SMOOTH",
"346 407 OFFCURVE",
"406 350 OFFCURVE",
"406 265 CURVE SMOOTH",
"406 155 LINE SMOOTH",
"406 70 OFFCURVE",
"346 13 OFFCURVE",
"255 13 CURVE SMOOTH"
);
}
);
width = 491;
},
{
layerId = "4E2227F3-52E4-4048-A8EE-327B486EF0A4";
paths = (
{
closed = 1;
nodes = (
"357 -8 OFFCURVE",
"442 58 OFFCURVE",
"442 171 CURVE SMOOTH",
"442 260 LINE SMOOTH",
"442 390 OFFCURVE",
"366 444 OFFCURVE",
"286 444 CURVE SMOOTH",
"172 444 OFFCURVE",
"166 339 OFFCURVE",
"167 327 CURVE",
"206 327 LINE",
"206 511 LINE SMOOTH",
"206 530 OFFCURVE",
"216 543 OFFCURVE",
"230 543 CURVE SMOOTH",
"244 543 OFFCURVE",
"254 530 OFFCURVE",
"254 511 CURVE SMOOTH",
"254 470 LINE",
"442 470 LINE",
"442 524 LINE SMOOTH",
"442 638 OFFCURVE",
"357 708 OFFCURVE",
"230 708 CURVE SMOOTH",
"103 708 OFFCURVE",
"18 638 OFFCURVE",
"18 524 CURVE SMOOTH",
"18 171 LINE SMOOTH",
"18 58 OFFCURVE",
"103 -8 OFFCURVE",
"230 -8 CURVE SMOOTH"
);
},
{
closed = 1;
nodes = (
"216 152 OFFCURVE",
"206 165 OFFCURVE",
"206 184 CURVE SMOOTH",
"206 252 LINE SMOOTH",
"206 271 OFFCURVE",
"216 284 OFFCURVE",
"230 284 CURVE SMOOTH",
"244 284 OFFCURVE",
"254 271 OFFCURVE",
"254 252 CURVE SMOOTH",
"254 184 LINE SMOOTH",
"254 165 OFFCURVE",
"244 152 OFFCURVE",
"230 152 CURVE SMOOTH"
);
}
);
width = 456;
},
{
layerId = "FFFA8D72-12AC-4CE0-B2CA-57A29829F4DA";
paths = (
{
closed = 1;
nodes = (
"409 -8 OFFCURVE",
"507 58 OFFCURVE",
"507 171 CURVE SMOOTH",
"507 260 LINE SMOOTH",
"507 390 OFFCURVE",
"418 444 OFFCURVE",
"317 444 CURVE SMOOTH",
"190 444 OFFCURVE",
"172 339 OFFCURVE",
"167 327 CURVE",
"206 327 LINE",
"206 511 LINE SMOOTH",
"206 530 OFFCURVE",
"229 543 OFFCURVE",
"263 543 CURVE SMOOTH",
"296 543 OFFCURVE",
"319 530 OFFCURVE",
"319 511 CURVE SMOOTH",
"319 470 LINE",
"507 470 LINE",
"507 524 LINE SMOOTH",
"507 638 OFFCURVE",
"409 708 OFFCURVE",
"263 708 CURVE SMOOTH",
"116 708 OFFCURVE",
"18 638 OFFCURVE",
"18 524 CURVE SMOOTH",
"18 171 LINE SMOOTH",
"18 58 OFFCURVE",
"116 -8 OFFCURVE",
"263 -8 CURVE SMOOTH"
);
},
{
closed = 1;
nodes = (
"229 152 OFFCURVE",
"206 170 OFFCURVE",
"206 196 CURVE SMOOTH",
"206 240 LINE SMOOTH",
"206 266 OFFCURVE",
"229 284 OFFCURVE",
"263 284 CURVE SMOOTH",
"297 284 OFFCURVE",
"319 266 OFFCURVE",
"319 240 CURVE SMOOTH",
"319 196 LINE SMOOTH",
"319 170 OFFCURVE",
"297 152 OFFCURVE",
"263 152 CURVE SMOOTH"
);
}
);
width = 521;
},
{
layerId = "DCBE1F7B-116A-43E0-B7B4-8657BA77D8B5";
paths = (
{
closed = 1;
nodes = (
"279 -8 OFFCURVE",
"332 58 OFFCURVE",
"332 158 CURVE SMOOTH",
"332 262 LINE SMOOTH",
"332 362 OFFCURVE",
"279 428 OFFCURVE",
"199 428 CURVE SMOOTH",
"143 428 OFFCURVE",
"102 395 OFFCURVE",
"82 340 CURVE",
"85 340 LINE",
"85 545 LINE SMOOTH",
"85 630 OFFCURVE",
"130 687 OFFCURVE",
"198 687 CURVE SMOOTH",
"265 687 OFFCURVE",
"310 630 OFFCURVE",
"310 545 CURVE SMOOTH",
"310 500 LINE",
"332 500 LINE",
"332 542 LINE SMOOTH",
"332 642 OFFCURVE",
"279 708 OFFCURVE",
"198 708 CURVE SMOOTH",
"116 708 OFFCURVE",
"63 642 OFFCURVE",
"63 542 CURVE SMOOTH",
"63 158 LINE SMOOTH",
"63 58 OFFCURVE",
"116 -8 OFFCURVE",
"198 -8 CURVE SMOOTH"
);
},
{
closed = 1;
nodes = (
"130 13 OFFCURVE",
"85 70 OFFCURVE",
"85 155 CURVE SMOOTH",
"85 265 LINE SMOOTH",
"85 350 OFFCURVE",
"130 407 OFFCURVE",
"198 407 CURVE SMOOTH",
"265 407 OFFCURVE",
"310 350 OFFCURVE",
"310 265 CURVE SMOOTH",
"310 155 LINE SMOOTH",
"310 70 OFFCURVE",
"265 13 OFFCURVE",
"198 13 CURVE SMOOTH"
);
}
);
width = 381;
}
);
unicode = 0036;
},
{
glyphname = seven;
lastChange = "2017-01-20 08:41:53 +0000";
layers = (
{
layerId = "262880E7-CFE1-4BDA-902E-E24798F3240A";
paths = (
{
closed = 1;
nodes = (
"162 0 LINE",
"398 679 LINE",
"398 700 LINE",
"27 700 LINE",
"27 642 LINE",
"49 642 LINE",
"49 679 LINE",
"374 679 LINE",
"137 0 LINE"
);
}
);
width = 425;
},
{
layerId = "4E2227F3-52E4-4048-A8EE-327B486EF0A4";
paths = (
{
closed = 1;
nodes = (
"262 0 LINE",
"429 530 LINE",
"429 700 LINE",
"7 700 LINE",
"6 481 LINE",
"157 481 LINE",
"157 530 LINE",
"231 530 LINE",
"66 0 LINE"
);
}
);
width = 435;
},
{
layerId = "FFFA8D72-12AC-4CE0-B2CA-57A29829F4DA";
paths = (
{
closed = 1;
nodes = (
"285 0 LINE",
"499 530 LINE",
"499 700 LINE",
"7 700 LINE",
"6 481 LINE",
"158 481 LINE",
"158 530 LINE",
"301 530 LINE",
"89 0 LINE"
);
}
);
width = 505;
},
{
layerId = "DCBE1F7B-116A-43E0-B7B4-8657BA77D8B5";
paths = (
{
closed = 1;
nodes = (
"129 0 LINE",
"307 679 LINE",
"307 700 LINE",
"21 700 LINE",
"21 642 LINE",
"42 642 LINE",
"42 679 LINE",
"283 679 LINE",
"104 0 LINE"
);
}
);
width = 328;
}
);
unicode = 0037;
},
{
glyphname = eight;
lastChange = "2017-01-20 08:41:53 +0000";
layers = (
{
layerId = "262880E7-CFE1-4BDA-902E-E24798F3240A";
paths = (
{
closed = 1;
nodes = (
"353 -18 OFFCURVE",
"422 54 OFFCURVE",
"422 161 CURVE SMOOTH",
"422 215 LINE SMOOTH",
"422 322 OFFCURVE",
"353 394 OFFCURVE",
"248 394 CURVE SMOOTH",
"143 394 OFFCURVE",
"72 322 OFFCURVE",
"72 215 CURVE SMOOTH",
"72 161 LINE SMOOTH",
"72 54 OFFCURVE",
"143 -18 OFFCURVE",
"248 -18 CURVE SMOOTH"
);
},
{
closed = 1;
nodes = (
"156 2 OFFCURVE",
"94 66 OFFCURVE",
"94 161 CURVE SMOOTH",
"94 215 LINE SMOOTH",
"94 311 OFFCURVE",
"156 375 OFFCURVE",
"248 375 CURVE SMOOTH",
"340 375 OFFCURVE",
"400 311 OFFCURVE",
"400 215 CURVE SMOOTH",
"400 161 LINE SMOOTH",
"400 66 OFFCURVE",
"340 2 OFFCURVE",
"248 2 CURVE SMOOTH"
);
},
{
closed = 1;
nodes = (
"353 375 OFFCURVE",
"420 439 OFFCURVE",
"420 534 CURVE SMOOTH",
"420 549 LINE SMOOTH",
"420 644 OFFCURVE",
"353 708 OFFCURVE",
"248 708 CURVE SMOOTH",
"143 708 OFFCURVE",
"74 644 OFFCURVE",
"74 549 CURVE SMOOTH",
"74 534 LINE SMOOTH",
"74 439 OFFCURVE",
"143 375 OFFCURVE",
"248 375 CURVE SMOOTH"
);
},
{
closed = 1;
nodes = (
"156 395 OFFCURVE",
"96 451 OFFCURVE",
"96 534 CURVE SMOOTH",
"96 549 LINE SMOOTH",
"96 633 OFFCURVE",
"156 689 OFFCURVE",
"248 689 CURVE SMOOTH",
"340 689 OFFCURVE",
"398 633 OFFCURVE",
"398 549 CURVE SMOOTH",
"398 534 LINE SMOOTH",
"398 451 OFFCURVE",
"340 395 OFFCURVE",
"248 395 CURVE SMOOTH"
);
}
);
width = 494;
},
{
layerId = "4E2227F3-52E4-4048-A8EE-327B486EF0A4";
paths = (
{
closed = 1;
nodes = (
"370 -8 OFFCURVE",
"443 69 OFFCURVE",
"443 194 CURVE SMOOTH",
"443 231 LINE SMOOTH",
"443 387 OFFCURVE",
"282 398 OFFCURVE",
"230 403 CURVE",
"178 398 OFFCURVE",
"17 387 OFFCURVE",
"17 231 CURVE SMOOTH",
"17 195 LINE SMOOTH",
"17 69 OFFCURVE",
"103 -8 OFFCURVE",
"230 -8 CURVE SMOOTH"
);
},
{
closed = 1;
nodes = (
"215 153 OFFCURVE",
"205 169 OFFCURVE",
"205 192 CURVE SMOOTH",
"205 248 LINE SMOOTH",
"205 272 OFFCURVE",
"215 288 OFFCURVE",
"230 288 CURVE",
"245 288 OFFCURVE",
"255 272 OFFCURVE",
"255 248 CURVE SMOOTH",
"255 192 LINE SMOOTH",
"255 169 OFFCURVE",
"245 153 OFFCURVE",
"230 153 CURVE SMOOTH"
);
},
{
closed = 1;
nodes = (
"330 316 OFFCURVE",
"444 359 OFFCURVE",
"444 486 CURVE SMOOTH",
"444 525 LINE SMOOTH",
"444 650 OFFCURVE",
"371 708 OFFCURVE",
"230 708 CURVE SMOOTH",
"103 708 OFFCURVE",
"16 651 OFFCURVE",
"16 525 CURVE SMOOTH",
"16 487 LINE SMOOTH",
"16 359 OFFCURVE",
"133 316 OFFCURVE",
"230 294 CURVE"
);
},
{
closed = 1;
nodes = (
"214 422 OFFCURVE",
"205 438 OFFCURVE",
"205 462 CURVE SMOOTH",
"205 508 LINE SMOOTH",
"205 531 OFFCURVE",
"214 547 OFFCURVE",
"230 547 CURVE SMOOTH",
"245 547 OFFCURVE",
"255 531 OFFCURVE",
"255 508 CURVE SMOOTH",
"255 462 LINE SMOOTH",
"255 438 OFFCURVE",
"245 422 OFFCURVE",
"230 422 CURVE SMOOTH"
);
}
);
width = 460;
},
{
layerId = "FFFA8D72-12AC-4CE0-B2CA-57A29829F4DA";
paths = (
{
closed = 1;
nodes = (
"422 -8 OFFCURVE",
"508 69 OFFCURVE",
"508 194 CURVE SMOOTH",
"508 231 LINE SMOOTH",
"508 387 OFFCURVE",
"336 398 OFFCURVE",
"263 403 CURVE",
"189 398 OFFCURVE",
"17 387 OFFCURVE",
"17 231 CURVE SMOOTH",
"17 195 LINE SMOOTH",
"17 69 OFFCURVE",
"116 -8 OFFCURVE",
"263 -8 CURVE SMOOTH"
);
},
{
closed = 1;
nodes = (
"228 153 OFFCURVE",
"204 173 OFFCURVE",
"204 204 CURVE SMOOTH",
"204 236 LINE SMOOTH",
"204 267 OFFCURVE",
"228 288 OFFCURVE",
"263 288 CURVE",
"297 288 OFFCURVE",
"320 267 OFFCURVE",
"320 236 CURVE SMOOTH",
"320 204 LINE SMOOTH",
"320 173 OFFCURVE",
"297 153 OFFCURVE",
"263 153 CURVE SMOOTH"
);
},
{
closed = 1;
nodes = (
"383 316 OFFCURVE",
"509 359 OFFCURVE",
"509 486 CURVE SMOOTH",
"509 525 LINE SMOOTH",
"509 650 OFFCURVE",
"423 708 OFFCURVE",
"263 708 CURVE SMOOTH",
"116 708 OFFCURVE",
"16 651 OFFCURVE",
"16 525 CURVE SMOOTH",
"16 487 LINE SMOOTH",
"16 359 OFFCURVE",
"145 316 OFFCURVE",
"263 294 CURVE"
);
},
{
closed = 1;
nodes = (
"228 422 OFFCURVE",
"205 443 OFFCURVE",
"205 474 CURVE SMOOTH",
"205 496 LINE SMOOTH",
"205 527 OFFCURVE",
"228 547 OFFCURVE",
"263 547 CURVE SMOOTH",
"297 547 OFFCURVE",
"320 527 OFFCURVE",
"320 496 CURVE SMOOTH",
"320 474 LINE SMOOTH",
"320 443 OFFCURVE",
"297 422 OFFCURVE",
"263 422 CURVE SMOOTH"
);
}
);
width = 525;
},
{
layerId = "DCBE1F7B-116A-43E0-B7B4-8657BA77D8B5";
paths = (
{
closed = 1;
nodes = (
"274 -18 OFFCURVE",
"327 54 OFFCURVE",
"327 161 CURVE SMOOTH",
"327 215 LINE SMOOTH",
"327 322 OFFCURVE",
"271 394 OFFCURVE",
"192 394 CURVE SMOOTH",
"113 394 OFFCURVE",
"56 322 OFFCURVE",
"56 215 CURVE SMOOTH",
"56 161 LINE SMOOTH",
"56 54 OFFCURVE",
"111 -18 OFFCURVE",
"192 -18 CURVE SMOOTH"
);
},
{
closed = 1;
nodes = (
"124 2 OFFCURVE",
"78 66 OFFCURVE",
"78 161 CURVE SMOOTH",
"78 215 LINE SMOOTH",
"78 311 OFFCURVE",
"124 375 OFFCURVE",
"192 375 CURVE SMOOTH",
"260 375 OFFCURVE",
"305 311 OFFCURVE",
"305 215 CURVE SMOOTH",
"305 161 LINE SMOOTH",
"305 66 OFFCURVE",
"260 2 OFFCURVE",
"192 2 CURVE SMOOTH"
);
},
{
closed = 1;
nodes = (
"273 375 OFFCURVE",
"326 439 OFFCURVE",
"326 534 CURVE SMOOTH",
"326 549 LINE SMOOTH",
"326 644 OFFCURVE",
"274 708 OFFCURVE",
"192 708 CURVE SMOOTH",
"111 708 OFFCURVE",
"57 644 OFFCURVE",
"57 549 CURVE SMOOTH",
"57 534 LINE SMOOTH",
"57 439 OFFCURVE",
"112 375 OFFCURVE",
"192 375 CURVE SMOOTH"
);
},
{
closed = 1;
nodes = (
"124 395 OFFCURVE",
"80 451 OFFCURVE",
"80 534 CURVE SMOOTH",
"80 549 LINE SMOOTH",
"80 633 OFFCURVE",
"124 689 OFFCURVE",
"192 689 CURVE SMOOTH",
"260 689 OFFCURVE",
"303 633 OFFCURVE",
"303 549 CURVE SMOOTH",
"303 534 LINE SMOOTH",
"303 451 OFFCURVE",
"260 395 OFFCURVE",
"192 395 CURVE SMOOTH"
);
}
);
width = 383;
}
);
unicode = 0038;
},
{
glyphname = colon;
lastChange = "2017-01-20 08:41:53 +0000";
layers = (
{
layerId = "262880E7-CFE1-4BDA-902E-E24798F3240A";
paths = (
{
closed = 1;
nodes = (
"182 363 OFFCURVE",
"202 381 OFFCURVE",
"202 404 CURVE SMOOTH",
"202 426 OFFCURVE",
"182 444 OFFCURVE",
"160 444 CURVE SMOOTH",
"138 444 OFFCURVE",
"119 426 OFFCURVE",
"119 404 CURVE SMOOTH",
"119 381 OFFCURVE",
"137 363 OFFCURVE",
"160 363 CURVE SMOOTH"
);
},
{
closed = 1;
nodes = (
"182 20 OFFCURVE",
"202 38 OFFCURVE",
"202 61 CURVE SMOOTH",
"202 83 OFFCURVE",
"182 101 OFFCURVE",
"160 101 CURVE SMOOTH",
"138 101 OFFCURVE",
"119 83 OFFCURVE",
"119 61 CURVE SMOOTH",
"119 38 OFFCURVE",
"137 20 OFFCURVE",
"160 20 CURVE SMOOTH"
);
}
);
width = 321;
},
{
layerId = "4E2227F3-52E4-4048-A8EE-327B486EF0A4";
paths = (
{
closed = 1;
nodes = (
"223 321 OFFCURVE",
"266 368 OFFCURVE",
"266 426 CURVE SMOOTH",
"266 484 OFFCURVE",
"214 530 OFFCURVE",
"161 530 CURVE SMOOTH",
"108 530 OFFCURVE",
"56 484 OFFCURVE",
"56 426 CURVE SMOOTH",
"56 368 OFFCURVE",
"99 321 OFFCURVE",
"161 321 CURVE SMOOTH"
);
},
{
closed = 1;
nodes = (
"223 0 OFFCURVE",
"266 47 OFFCURVE",
"266 105 CURVE SMOOTH",
"266 163 OFFCURVE",
"214 209 OFFCURVE",
"161 209 CURVE SMOOTH",
"108 209 OFFCURVE",
"56 163 OFFCURVE",
"56 105 CURVE SMOOTH",
"56 47 OFFCURVE",
"99 0 OFFCURVE",
"161 0 CURVE SMOOTH"
);
}
);
width = 318;
},
{
layerId = "FFFA8D72-12AC-4CE0-B2CA-57A29829F4DA";
paths = (
{
closed = 1;
nodes = (
"257 321 OFFCURVE",
"304 368 OFFCURVE",
"304 426 CURVE SMOOTH",
"304 484 OFFCURVE",
"249 530 OFFCURVE",
"192 530 CURVE SMOOTH",
"136 530 OFFCURVE",
"81 484 OFFCURVE",
"81 426 CURVE SMOOTH",
"81 368 OFFCURVE",
"127 321 OFFCURVE",
"192 321 CURVE SMOOTH"
);
},
{
closed = 1;
nodes = (
"257 0 OFFCURVE",
"304 47 OFFCURVE",
"304 105 CURVE SMOOTH",
"304 163 OFFCURVE",
"249 209 OFFCURVE",
"192 209 CURVE SMOOTH",
"136 209 OFFCURVE",
"81 163 OFFCURVE",
"81 105 CURVE SMOOTH",
"81 47 OFFCURVE",
"127 0 OFFCURVE",
"192 0 CURVE SMOOTH"
);
}
);
width = 381;
},
{
layerId = "DCBE1F7B-116A-43E0-B7B4-8657BA77D8B5";
paths = (
{
closed = 1;
nodes = (
"101 350 OFFCURVE",
"117 368 OFFCURVE",
"117 391 CURVE SMOOTH",
"117 413 OFFCURVE",
"101 431 OFFCURVE",
"83 431 CURVE SMOOTH",
"65 431 OFFCURVE",
"49 413 OFFCURVE",
"49 391 CURVE SMOOTH",
"49 368 OFFCURVE",
"64 350 OFFCURVE",
"83 350 CURVE SMOOTH"
);
},
{
closed = 1;
nodes = (
"101 7 OFFCURVE",
"117 25 OFFCURVE",
"117 48 CURVE SMOOTH",
"117 70 OFFCURVE",
"101 88 OFFCURVE",
"83 88 CURVE SMOOTH",
"65 88 OFFCURVE",
"49 70 OFFCURVE",
"49 48 CURVE SMOOTH",
"49 25 OFFCURVE",
"64 7 OFFCURVE",
"83 7 CURVE SMOOTH"
);
}
);
width = 166;
}
);
leftKerningGroup = colon;
unicode = 003A;
},
{
glyphname = comma;
lastChange = "2017-01-20 08:41:53 +0000";
layers = (
{
layerId = "262880E7-CFE1-4BDA-902E-E24798F3240A";
paths = (
{
closed = 1;
nodes = (
"105 -66 LINE",
"161 153 LINE",
"139 153 LINE",
"83 -66 LINE"
);
}
);
width = 264;
},
{
layerId = "4E2227F3-52E4-4048-A8EE-327B486EF0A4";
paths = (
{
closed = 1;
nodes = (
"146 -111 LINE",
"209 160 LINE",
"41 160 LINE",
"24 -111 LINE"
);
}
);
width = 233;
},
{
layerId = "FFFA8D72-12AC-4CE0-B2CA-57A29829F4DA";
paths = (
{
closed = 1;
nodes = (
"166 -111 LINE",
"239 160 LINE",
"71 160 LINE",
"42 -111 LINE"
);
}
);
width = 285;
},
{
layerId = "DCBE1F7B-116A-43E0-B7B4-8657BA77D8B5";
paths = (
{
closed = 1;
nodes = (
"62 -66 LINE",
"105 153 LINE",
"84 153 LINE",
"42 -66 LINE"
);
}
);
width = 154;
}
);
leftKerningGroup = comma;
rightKerningGroup = comma;
unicode = 002C;
},
{
glyphname = exclam;
lastChange = "2017-01-20 08:41:53 +0000";
layers = (
{
layerId = "262880E7-CFE1-4BDA-902E-E24798F3240A";
paths = (
{
closed = 1;
nodes = (
"164 220 LINE",
"164 700 LINE",
"142 700 LINE",
"142 220 LINE"
);
},
{
closed = 1;
nodes = (
"172 5 OFFCURVE",
"192 23 OFFCURVE",
"192 46 CURVE SMOOTH",
"192 68 OFFCURVE",
"172 86 OFFCURVE",
"150 86 CURVE SMOOTH",
"128 86 OFFCURVE",
"109 68 OFFCURVE",
"109 46 CURVE SMOOTH",
"109 23 OFFCURVE",
"127 5 OFFCURVE",
"150 5 CURVE SMOOTH"
);
}
);
width = 306;
},
{
layerId = "4E2227F3-52E4-4048-A8EE-327B486EF0A4";
paths = (
{
closed = 1;
nodes = (
"225 248 LINE",
"245 700 LINE",
"57 700 LINE",
"77 248 LINE"
);
},
{
closed = 1;
nodes = (
"212 0 OFFCURVE",
"255 47 OFFCURVE",
"255 105 CURVE SMOOTH",
"255 163 OFFCURVE",
"203 209 OFFCURVE",
"150 209 CURVE SMOOTH",
"97 209 OFFCURVE",
"45 163 OFFCURVE",
"45 105 CURVE SMOOTH",
"45 47 OFFCURVE",
"88 0 OFFCURVE",
"150 0 CURVE SMOOTH"
);
}
);
width = 302;
},
{
layerId = "FFFA8D72-12AC-4CE0-B2CA-57A29829F4DA";
paths = (
{
closed = 1;
nodes = (
"255 248 LINE",
"275 700 LINE",
"87 700 LINE",
"106 248 LINE"
);
},
{
closed = 1;
nodes = (
"244 0 OFFCURVE",
"291 47 OFFCURVE",
"291 105 CURVE SMOOTH",
"291 163 OFFCURVE",
"236 209 OFFCURVE",
"179 209 CURVE SMOOTH",
"123 209 OFFCURVE",
"68 163 OFFCURVE",
"68 105 CURVE SMOOTH",
"68 47 OFFCURVE",
"114 0 OFFCURVE",
"179 0 CURVE SMOOTH"
);
}
);
width = 362;
},
{
layerId = "DCBE1F7B-116A-43E0-B7B4-8657BA77D8B5";
paths = (
{
closed = 1;
nodes = (
"128 220 LINE",
"129 700 LINE",
"107 700 LINE",
"107 220 LINE"
);
},
{
closed = 1;
nodes = (
"134 5 OFFCURVE",
"150 23 OFFCURVE",
"150 46 CURVE SMOOTH",
"150 68 OFFCURVE",
"134 86 OFFCURVE",
"116 86 CURVE SMOOTH",
"98 86 OFFCURVE",
"82 68 OFFCURVE",
"82 46 CURVE SMOOTH",
"82 23 OFFCURVE",
"97 5 OFFCURVE",
"116 5 CURVE SMOOTH"
);
}
);
width = 235;
}
);
unicode = 0021;
},
{
glyphname = period;
lastChange = "2017-01-20 08:41:53 +0000";
layers = (
{
layerId = "262880E7-CFE1-4BDA-902E-E24798F3240A";
paths = (
{
closed = 1;
nodes = (
"182 7 OFFCURVE",
"202 25 OFFCURVE",
"202 48 CURVE SMOOTH",
"202 70 OFFCURVE",
"182 88 OFFCURVE",
"160 88 CURVE SMOOTH",
"138 88 OFFCURVE",
"119 70 OFFCURVE",
"119 48 CURVE SMOOTH",
"119 25 OFFCURVE",
"137 7 OFFCURVE",
"160 7 CURVE SMOOTH"
);
}
);
width = 323;
},
{
layerId = "4E2227F3-52E4-4048-A8EE-327B486EF0A4";
paths = (
{
closed = 1;
nodes = (
"211 -8 OFFCURVE",
"254 39 OFFCURVE",
"254 97 CURVE SMOOTH",
"254 155 OFFCURVE",
"202 201 OFFCURVE",
"149 201 CURVE SMOOTH",
"96 201 OFFCURVE",
"44 155 OFFCURVE",
"44 97 CURVE SMOOTH",
"44 39 OFFCURVE",
"87 -8 OFFCURVE",
"149 -8 CURVE SMOOTH"
);
}
);
width = 308;
},
{
layerId = "FFFA8D72-12AC-4CE0-B2CA-57A29829F4DA";
paths = (
{
closed = 1;
nodes = (
"196 -8 OFFCURVE",
"243 39 OFFCURVE",
"243 97 CURVE SMOOTH",
"243 155 OFFCURVE",
"188 201 OFFCURVE",
"131 201 CURVE SMOOTH",
"75 201 OFFCURVE",
"20 155 OFFCURVE",
"20 97 CURVE SMOOTH",
"20 39 OFFCURVE",
"66 -8 OFFCURVE",
"131 -8 CURVE SMOOTH"
);
}
);
width = 263;
},
{
layerId = "DCBE1F7B-116A-43E0-B7B4-8657BA77D8B5";
paths = (
{
closed = 1;
nodes = (
"101 7 OFFCURVE",
"117 25 OFFCURVE",
"117 48 CURVE SMOOTH",
"117 70 OFFCURVE",
"101 88 OFFCURVE",
"83 88 CURVE SMOOTH",
"65 88 OFFCURVE",
"49 70 OFFCURVE",
"49 48 CURVE SMOOTH",
"49 25 OFFCURVE",
"64 7 OFFCURVE",
"83 7 CURVE SMOOTH"
);
}
);
width = 166;
}
);
leftKerningGroup = comma;
rightKerningGroup = comma;
unicode = 002E;
},
{
glyphname = question;
lastChange = "2017-01-20 08:41:53 +0000";
layers = (
{
layerId = "262880E7-CFE1-4BDA-902E-E24798F3240A";
paths = (
{
closed = 1;
nodes = (
"203 185 LINE",
"203 271 LINE",
"203 372 OFFCURVE",
"367 378 OFFCURVE",
"367 546 CURVE SMOOTH",
"367 645 OFFCURVE",
"303 709 OFFCURVE",
"208 709 CURVE SMOOTH",
"113 709 OFFCURVE",
"48 645 OFFCURVE",
"48 550 CURVE SMOOTH",
"48 500 LINE",
"70 500 LINE",
"70 550 LINE SMOOTH",
"70 633 OFFCURVE",
"126 688 OFFCURVE",
"208 688 CURVE SMOOTH",
"290 688 OFFCURVE",
"345 633 OFFCURVE",
"345 549 CURVE SMOOTH",
"345 395 OFFCURVE",
"179 394 OFFCURVE",
"179 271 CURVE",
"179 185 LINE"
);
},
{
closed = 1;
nodes = (
"215 5 OFFCURVE",
"235 23 OFFCURVE",
"235 46 CURVE SMOOTH",
"235 68 OFFCURVE",
"215 86 OFFCURVE",
"193 86 CURVE SMOOTH",
"171 86 OFFCURVE",
"152 68 OFFCURVE",
"152 46 CURVE SMOOTH",
"152 23 OFFCURVE",
"170 5 OFFCURVE",
"193 5 CURVE SMOOTH"
);
}
);
width = 418;
},
{
layerId = "4E2227F3-52E4-4048-A8EE-327B486EF0A4";
paths = (
{
closed = 1;
nodes = (
"321 236 LINE",
"321 252 LINE",
"321 339 OFFCURVE",
"473 338 OFFCURVE",
"473 503 CURVE SMOOTH",
"473 627 OFFCURVE",
"386 710 OFFCURVE",
"249 710 CURVE SMOOTH",
"107 710 OFFCURVE",
"10 620 OFFCURVE",
"10 488 CURVE SMOOTH",
"10 478 LINE",
"198 469 LINE",
"198 488 LINE SMOOTH",
"198 517 OFFCURVE",
"214 539 OFFCURVE",
"244 539 CURVE SMOOTH",
"268 539 OFFCURVE",
"283 522 OFFCURVE",
"283 494 CURVE SMOOTH",
"283 418 OFFCURVE",
"135 410 OFFCURVE",
"135 264 CURVE",
"135 236 LINE"
);
},
{
closed = 1;
nodes = (
"288 -5 OFFCURVE",
"332 38 OFFCURVE",
"332 91 CURVE SMOOTH",
"332 144 OFFCURVE",
"287 187 OFFCURVE",
"236 187 CURVE SMOOTH",
"184 187 OFFCURVE",
"140 144 OFFCURVE",
"140 90 CURVE SMOOTH",
"140 38 OFFCURVE",
"182 -5 OFFCURVE",
"235 -5 CURVE SMOOTH"
);
}
);
width = 483;
},
{
layerId = "FFFA8D72-12AC-4CE0-B2CA-57A29829F4DA";
paths = (
{
closed = 1;
nodes = (
"357 236 LINE",
"357 252 LINE",
"357 339 OFFCURVE",
"541 338 OFFCURVE",
"541 503 CURVE SMOOTH",
"541 627 OFFCURVE",
"442 710 OFFCURVE",
"288 710 CURVE SMOOTH",
"129 710 OFFCURVE",
"20 620 OFFCURVE",
"20 488 CURVE SMOOTH",
"20 478 LINE",
"208 469 LINE",
"208 488 LINE SMOOTH",
"208 517 OFFCURVE",
"236 539 OFFCURVE",
"283 539 CURVE SMOOTH",
"324 539 OFFCURVE",
"351 522 OFFCURVE",
"351 494 CURVE SMOOTH",
"351 418 OFFCURVE",
"170 410 OFFCURVE",
"170 264 CURVE",
"170 236 LINE"
);
},
{
closed = 1;
nodes = (
"327 -5 OFFCURVE",
"374 38 OFFCURVE",
"374 91 CURVE SMOOTH",
"374 144 OFFCURVE",
"326 187 OFFCURVE",
"272 187 CURVE SMOOTH",
"216 187 OFFCURVE",
"169 144 OFFCURVE",
"169 90 CURVE SMOOTH",
"169 38 OFFCURVE",
"214 -5 OFFCURVE",
"271 -5 CURVE SMOOTH"
);
}
);
width = 562;
},
{
layerId = "DCBE1F7B-116A-43E0-B7B4-8657BA77D8B5";
paths = (
{
closed = 1;
nodes = (
"159 185 LINE",
"159 271 LINE",
"159 372 OFFCURVE",
"284 378 OFFCURVE",
"284 546 CURVE SMOOTH",
"284 645 OFFCURVE",
"235 709 OFFCURVE",
"161 709 CURVE SMOOTH",
"86 709 OFFCURVE",
"35 645 OFFCURVE",
"35 550 CURVE SMOOTH",
"35 500 LINE",
"57 500 LINE",
"57 550 LINE SMOOTH",
"57 633 OFFCURVE",
"99 688 OFFCURVE",
"161 688 CURVE SMOOTH",
"221 688 OFFCURVE",
"262 633 OFFCURVE",
"262 549 CURVE SMOOTH",
"262 395 OFFCURVE",
"135 394 OFFCURVE",
"135 271 CURVE",
"135 185 LINE"
);
},
{
closed = 1;
nodes = (
"167 5 OFFCURVE",
"183 23 OFFCURVE",
"183 46 CURVE SMOOTH",
"183 68 OFFCURVE",
"167 86 OFFCURVE",
"149 86 CURVE SMOOTH",
"131 86 OFFCURVE",
"116 68 OFFCURVE",
"116 46 CURVE SMOOTH",
"116 23 OFFCURVE",
"131 5 OFFCURVE",
"149 5 CURVE SMOOTH"
);
}
);
width = 322;
}
);
unicode = 003F;
},
{
glyphname = quotedbl;
lastChange = "2017-01-20 08:41:53 +0000";
layers = (
{
layerId = "262880E7-CFE1-4BDA-902E-E24798F3240A";
paths = (
{
closed = 1;
nodes = (
"113 500 LINE",
"116 692 LINE",
"90 692 LINE",
"93 500 LINE"
);
},
{
closed = 1;
nodes = (
"23 500 LINE",
"26 692 LINE",
"0 692 LINE",
"3 500 LINE"
);
}
);
width = 160;
},
{
layerId = "4E2227F3-52E4-4048-A8EE-327B486EF0A4";
paths = (
{
closed = 1;
nodes = (
"380 460 LINE",
"400 700 LINE",
"222 700 LINE",
"242 460 LINE"
);
},
{
closed = 1;
nodes = (
"154 460 LINE",
"174 700 LINE",
"-4 700 LINE",
"16 460 LINE"
);
}
);
width = 402;
},
{
layerId = "FFFA8D72-12AC-4CE0-B2CA-57A29829F4DA";
paths = (
{
closed = 1;
nodes = (
"403 460 LINE",
"423 700 LINE",
"244 700 LINE",
"264 460 LINE"
);
},
{
closed = 1;
nodes = (
"163 460 LINE",
"183 700 LINE",
"4 700 LINE",
"24 460 LINE"
);
}
);
width = 425;
},
{
layerId = "DCBE1F7B-116A-43E0-B7B4-8657BA77D8B5";
paths = (
{
closed = 1;
nodes = (
"124 500 LINE",
"127 692 LINE",
"102 692 LINE",
"104 500 LINE"
);
},
{
closed = 1;
nodes = (
"50 500 LINE",
"53 692 LINE",
"28 692 LINE",
"31 500 LINE"
);
}
);
width = 159;
}
);
leftKerningGroup = quotedbl;
leftMetricsKey = "=quotesingle";
rightKerningGroup = quotedbl;
rightMetricsKey = "=quotesingle";
unicode = 0022;
},
{
glyphname = quotesingle;
lastChange = "2017-01-20 08:41:53 +0000";
layers = (
{
layerId = "262880E7-CFE1-4BDA-902E-E24798F3240A";
paths = (
{
closed = 1;
nodes = (
"23 507 LINE",
"26 697 LINE",
"0 697 LINE",
"3 507 LINE"
);
}
);
width = 70;
},
{
layerId = "4E2227F3-52E4-4048-A8EE-327B486EF0A4";
paths = (
{
closed = 1;
nodes = (
"164 460 LINE",
"184 700 LINE",
"-4 700 LINE",
"16 460 LINE"
);
}
);
width = 186;
},
{
layerId = "FFFA8D72-12AC-4CE0-B2CA-57A29829F4DA";
paths = (
{
closed = 1;
nodes = (
"173 460 LINE",
"193 700 LINE",
"4 700 LINE",
"24 460 LINE"
);
}
);
width = 195;
},
{
layerId = "DCBE1F7B-116A-43E0-B7B4-8657BA77D8B5";
paths = (
{
closed = 1;
nodes = (
"50 507 LINE",
"53 697 LINE",
"28 697 LINE",
"31 507 LINE"
);
}
);
width = 85;
}
);
leftKerningGroup = quotedbl;
rightKerningGroup = quotedbl;
rightMetricsKey = "=o-10";
unicode = 0027;
},
{
glyphname = semicolon;
lastChange = "2017-01-20 08:41:53 +0000";
layers = (
{
layerId = "262880E7-CFE1-4BDA-902E-E24798F3240A";
paths = (
{
closed = 1;
nodes = (
"137 -60 LINE",
"173 147 LINE",
"149 147 LINE",
"116 -60 LINE"
);
},
{
closed = 1;
nodes = (
"179 370 OFFCURVE",
"199 388 OFFCURVE",
"199 411 CURVE",
"199 433 OFFCURVE",
"179 451 OFFCURVE",
"157 451 CURVE SMOOTH",
"135 451 OFFCURVE",
"116 433 OFFCURVE",
"116 411 CURVE SMOOTH",
"116 388 OFFCURVE",
"134 370 OFFCURVE",
"157 370 CURVE SMOOTH"
);
}
);
width = 307;
},
{
layerId = "4E2227F3-52E4-4048-A8EE-327B486EF0A4";
paths = (
{
closed = 1;
nodes = (
"154 -111 LINE",
"217 160 LINE",
"49 160 LINE",
"32 -111 LINE"
);
},
{
closed = 1;
nodes = (
"191 291 OFFCURVE",
"234 338 OFFCURVE",
"234 396 CURVE SMOOTH",
"234 454 OFFCURVE",
"182 500 OFFCURVE",
"129 500 CURVE SMOOTH",
"76 500 OFFCURVE",
"24 454 OFFCURVE",
"24 396 CURVE SMOOTH",
"24 338 OFFCURVE",
"67 291 OFFCURVE",
"129 291 CURVE SMOOTH"
);
}
);
width = 258;
},
{
layerId = "FFFA8D72-12AC-4CE0-B2CA-57A29829F4DA";
paths = (
{
closed = 1;
nodes = (
"180 -111 LINE",
"249 160 LINE",
"81 160 LINE",
"57 -111 LINE"
);
},
{
closed = 1;
nodes = (
"225 291 OFFCURVE",
"272 338 OFFCURVE",
"272 396 CURVE SMOOTH",
"272 454 OFFCURVE",
"217 500 OFFCURVE",
"160 500 CURVE SMOOTH",
"104 500 OFFCURVE",
"49 454 OFFCURVE",
"49 396 CURVE SMOOTH",
"49 338 OFFCURVE",
"95 291 OFFCURVE",
"160 291 CURVE SMOOTH"
);
}
);
width = 319;
},
{
layerId = "DCBE1F7B-116A-43E0-B7B4-8657BA77D8B5";
paths = (
{
closed = 1;
nodes = (
"69 -60 LINE",
"97 147 LINE",
"74 147 LINE",
"49 -60 LINE"
);
},
{
closed = 1;
nodes = (
"101 370 OFFCURVE",
"117 388 OFFCURVE",
"117 411 CURVE",
"117 433 OFFCURVE",
"101 451 OFFCURVE",
"83 451 CURVE SMOOTH",
"65 451 OFFCURVE",
"49 433 OFFCURVE",
"49 411 CURVE SMOOTH",
"49 388 OFFCURVE",
"64 370 OFFCURVE",
"83 370 CURVE SMOOTH"
);
}
);
width = 166;
}
);
leftKerningGroup = colon;
unicode = 003B;
},
{
glyphname = slash;
lastChange = "2017-01-20 08:41:53 +0000";
layers = (
{
layerId = "262880E7-CFE1-4BDA-902E-E24798F3240A";
paths = (
{
closed = 1;
nodes = (
"22 0 LINE",
"224 700 LINE",
"202 700 LINE",
"0 0 LINE"
);
}
);
width = 224;
},
{
layerId = "4E2227F3-52E4-4048-A8EE-327B486EF0A4";
paths = (
{
closed = 1;
nodes = (
"188 0 LINE",
"442 700 LINE",
"254 700 LINE",
"0 0 LINE"
);
}
);
width = 442;
},
{
layerId = "FFFA8D72-12AC-4CE0-B2CA-57A29829F4DA";
paths = (
{
closed = 1;
nodes = (
"188 0 LINE",
"479 700 LINE",
"292 700 LINE",
"0 0 LINE"
);
}
);
width = 479;
},
{
layerId = "DCBE1F7B-116A-43E0-B7B4-8657BA77D8B5";
paths = (
{
closed = 1;
nodes = (
"22 0 LINE",
"179 700 LINE",
"157 700 LINE",
"0 0 LINE"
);
}
);
width = 179;
}
);
unicode = 002F;
},
{
glyphname = bracketleft;
lastChange = "2017-01-20 08:41:53 +0000";
layers = (
{
layerId = "262880E7-CFE1-4BDA-902E-E24798F3240A";
paths = (
{
closed = 1;
nodes = (
"210 -103 LINE",
"210 -82 LINE",
"53 -82 LINE",
"53 735 LINE",
"209 735 LINE",
"209 756 LINE",
"31 756 LINE",
"31 -103 LINE"
);
}
);
width = 354;
},
{
layerId = "4E2227F3-52E4-4048-A8EE-327B486EF0A4";
paths = (
{
closed = 1;
nodes = (
"293 -164 LINE",
"293 6 LINE",
"218 6 LINE",
"218 648 LINE",
"293 648 LINE",
"293 818 LINE",
"30 818 LINE",
"30 -164 LINE"
);
}
);
width = 373;
},
{
layerId = "FFFA8D72-12AC-4CE0-B2CA-57A29829F4DA";
paths = (
{
closed = 1;
nodes = (
"331 -164 LINE",
"331 6 LINE",
"224 6 LINE",
"224 648 LINE",
"331 648 LINE",
"331 818 LINE",
"36 818 LINE",
"36 -164 LINE"
);
}
);
width = 441;
},
{
layerId = "DCBE1F7B-116A-43E0-B7B4-8657BA77D8B5";
paths = (
{
closed = 1;
nodes = (
"164 -103 LINE",
"164 -82 LINE",
"46 -82 LINE",
"46 735 LINE",
"163 735 LINE",
"163 756 LINE",
"24 756 LINE",
"24 -103 LINE"
);
}
);
width = 273;
}
);
unicode = 005B;
},
{
glyphname = parenleft;
lastChange = "2017-01-20 08:41:53 +0000";
layers = (
{
layerId = "262880E7-CFE1-4BDA-902E-E24798F3240A";
paths = (
{
closed = 1;
nodes = (
"114 -113 LINE",
"57 -17 OFFCURVE",
"19 157 OFFCURVE",
"19 322 CURVE SMOOTH",
"19 490 OFFCURVE",
"57 668 OFFCURVE",
"114 766 CURVE",
"93 766 LINE",
"33 667 OFFCURVE",
"-7 489 OFFCURVE",
"-7 320 CURVE SMOOTH",
"-7 156 OFFCURVE",
"32 -17 OFFCURVE",
"90 -113 CURVE"
);
}
);
width = 200;
},
{
layerId = "4E2227F3-52E4-4048-A8EE-327B486EF0A4";
paths = (
{
closed = 1;
nodes = (
"321 -83 LINE",
"275 10 OFFCURVE",
"213 137 OFFCURVE",
"213 337 CURVE SMOOTH",
"213 536 OFFCURVE",
"275 664 OFFCURVE",
"321 756 CURVE",
"135 756 LINE",
"65 665 OFFCURVE",
"3 536 OFFCURVE",
"3 337 CURVE SMOOTH",
"3 137 OFFCURVE",
"65 9 OFFCURVE",
"135 -83 CURVE"
);
}
);
width = 371;
},
{
layerId = "FFFA8D72-12AC-4CE0-B2CA-57A29829F4DA";
paths = (
{
closed = 1;
nodes = (
"337 -83 LINE",
"280 10 OFFCURVE",
"211 137 OFFCURVE",
"211 337 CURVE SMOOTH",
"211 536 OFFCURVE",
"280 664 OFFCURVE",
"337 756 CURVE",
"151 756 LINE",
"70 665 OFFCURVE",
"1 536 OFFCURVE",
"1 337 CURVE SMOOTH",
"1 137 OFFCURVE",
"70 9 OFFCURVE",
"151 -83 CURVE"
);
}
);
width = 405;
},
{
layerId = "DCBE1F7B-116A-43E0-B7B4-8657BA77D8B5";
paths = (
{
closed = 1;
nodes = (
"94 -113 LINE",
"51 -17 OFFCURVE",
"21 157 OFFCURVE",
"21 322 CURVE SMOOTH",
"21 490 OFFCURVE",
"51 668 OFFCURVE",
"94 766 CURVE",
"73 766 LINE",
"26 667 OFFCURVE",
"-5 489 OFFCURVE",
"-5 320 CURVE SMOOTH",
"-5 156 OFFCURVE",
"26 -17 OFFCURVE",
"70 -113 CURVE"
);
}
);
width = 159;
}
);
unicode = 0028;
},
{
glyphname = emdash;
lastChange = "2017-01-20 08:41:53 +0000";
layers = (
{
layerId = "262880E7-CFE1-4BDA-902E-E24798F3240A";
paths = (
{
closed = 1;
nodes = (
"436 251 LINE",
"436 272 LINE",
"24 272 LINE",
"24 251 LINE"
);
}
);
width = 460;
},
{
layerId = "4E2227F3-52E4-4048-A8EE-327B486EF0A4";
paths = (
{
closed = 1;
nodes = (
"419 165 LINE",
"419 325 LINE",
"12 325 LINE",
"12 165 LINE"
);
}
);
width = 431;
},
{
layerId = "FFFA8D72-12AC-4CE0-B2CA-57A29829F4DA";
paths = (
{
closed = 1;
nodes = (
"504 165 LINE",
"504 325 LINE",
"17 325 LINE",
"17 165 LINE"
);
}
);
width = 521;
},
{
layerId = "DCBE1F7B-116A-43E0-B7B4-8657BA77D8B5";
paths = (
{
closed = 1;
nodes = (
"334 251 LINE",
"334 272 LINE",
"18 272 LINE",
"18 251 LINE"
);
}
);
width = 352;
}
);
leftKerningGroup = hyphen;
rightKerningGroup = hyphen;
unicode = 2014;
},
{
glyphname = hyphen;
lastChange = "2017-01-20 08:41:53 +0000";
layers = (
{
layerId = "262880E7-CFE1-4BDA-902E-E24798F3240A";
paths = (
{
closed = 1;
nodes = (
"275 251 LINE",
"275 272 LINE",
"23 272 LINE",
"23 251 LINE"
);
}
);
width = 298;
},
{
layerId = "4E2227F3-52E4-4048-A8EE-327B486EF0A4";
paths = (
{
closed = 1;
nodes = (
"299 165 LINE",
"299 325 LINE",
"12 325 LINE",
"12 165 LINE"
);
}
);
width = 311;
},
{
layerId = "FFFA8D72-12AC-4CE0-B2CA-57A29829F4DA";
paths = (
{
closed = 1;
nodes = (
"352 165 LINE",
"352 325 LINE",
"17 325 LINE",
"17 165 LINE"
);
}
);
width = 369;
},
{
layerId = "DCBE1F7B-116A-43E0-B7B4-8657BA77D8B5";
paths = (
{
closed = 1;
nodes = (
"212 251 LINE",
"212 272 LINE",
"17 272 LINE",
"17 251 LINE"
);
}
);
width = 229;
}
);
leftKerningGroup = hyphen;
rightKerningGroup = hyphen;
unicode = 002D;
},
{
glyphname = quotedblleft;
lastChange = "2017-01-20 08:41:53 +0000";
layers = (
{
layerId = "262880E7-CFE1-4BDA-902E-E24798F3240A";
paths = (
{
closed = 1;
nodes = (
"96 507 LINE",
"26 697 LINE",
"0 697 LINE",
"76 507 LINE"
);
},
{
closed = 1;
nodes = (
"199 507 LINE",
"129 697 LINE",
"103 697 LINE",
"179 507 LINE"
);
}
);
width = 199;
},
{
layerId = "4E2227F3-52E4-4048-A8EE-327B486EF0A4";
paths = (
{
closed = 1;
nodes = (
"253 460 LINE",
"187 700 LINE",
"0 700 LINE",
"111 460 LINE"
);
},
{
closed = 1;
nodes = (
"423 460 LINE",
"404 700 LINE",
"219 700 LINE",
"293 460 LINE"
);
}
);
width = 423;
},
{
layerId = "FFFA8D72-12AC-4CE0-B2CA-57A29829F4DA";
paths = (
{
closed = 1;
nodes = (
"267 460 LINE",
"188 700 LINE",
"0 700 LINE",
"125 460 LINE"
);
},
{
closed = 1;
nodes = (
"455 460 LINE",
"421 700 LINE",
"236 700 LINE",
"324 460 LINE"
);
}
);
width = 455;
},
{
layerId = "DCBE1F7B-116A-43E0-B7B4-8657BA77D8B5";
paths = (
{
closed = 1;
nodes = (
"79 507 LINE",
"25 697 LINE",
"0 697 LINE",
"60 507 LINE"
);
},
{
closed = 1;
nodes = (
"160 507 LINE",
"108 697 LINE",
"82 697 LINE",
"141 507 LINE"
);
}
);
width = 160;
}
);
leftMetricsKey = "=quoteleft";
rightMetricsKey = "=quoteleft";
unicode = 201C;
},
{
glyphname = quoteleft;
lastChange = "2017-01-20 08:41:53 +0000";
layers = (
{
layerId = "262880E7-CFE1-4BDA-902E-E24798F3240A";
paths = (
{
closed = 1;
nodes = (
"26 697 LINE",
"0 697 LINE",
"76 507 LINE",
"96 507 LINE"
);
}
);
width = 96;
},
{
layerId = "4E2227F3-52E4-4048-A8EE-327B486EF0A4";
paths = (
{
closed = 1;
nodes = (
"188 700 LINE",
"0 700 LINE",
"83 460 LINE",
"231 460 LINE"
);
}
);
width = 231;
},
{
layerId = "FFFA8D72-12AC-4CE0-B2CA-57A29829F4DA";
paths = (
{
closed = 1;
nodes = (
"189 700 LINE",
"0 700 LINE",
"98 460 LINE",
"246 460 LINE"
);
}
);
width = 246;
},
{
layerId = "DCBE1F7B-116A-43E0-B7B4-8657BA77D8B5";
paths = (
{
closed = 1;
nodes = (
"25 697 LINE",
"0 697 LINE",
"59 507 LINE",
"78 507 LINE"
);
}
);
width = 78;
}
);
unicode = 2018;
},
{
glyphname = dollar;
lastChange = "2017-01-20 08:41:53 +0000";
layers = (
{
components = (
{
name = S;
}
);
layerId = "262880E7-CFE1-4BDA-902E-E24798F3240A";
paths = (
{
closed = 1;
nodes = (
"262 -88 LINE",
"262 2 LINE",
"239 2 LINE",
"239 -88 LINE"
);
},
{
closed = 1;
nodes = (
"254 702 LINE",
"254 792 LINE",
"232 792 LINE",
"232 702 LINE"
);
}
);
width = 488;
},
{
components = (
{
name = S;
}
);
layerId = "4E2227F3-52E4-4048-A8EE-327B486EF0A4";
paths = (
{
closed = 1;
nodes = (
"277 -68 LINE",
"274 53 LINE",
"161 53 LINE",
"158 -68 LINE"
);
},
{
closed = 1;
nodes = (
"274 657 LINE",
"277 778 LINE",
"160 778 LINE",
"163 657 LINE"
);
}
);
width = 451;
},
{
components = (
{
name = S;
}
);
layerId = "FFFA8D72-12AC-4CE0-B2CA-57A29829F4DA";
paths = (
{
closed = 1;
nodes = (
"317 -68 LINE",
"314 53 LINE",
"199 53 LINE",
"196 -68 LINE"
);
},
{
closed = 1;
nodes = (
"312 657 LINE",
"315 778 LINE",
"196 778 LINE",
"199 657 LINE"
);
}
);
width = 508;
},
{
components = (
{
name = S;
}
);
layerId = "DCBE1F7B-116A-43E0-B7B4-8657BA77D8B5";
paths = (
{
closed = 1;
nodes = (
"202 -88 LINE",
"202 2 LINE",
"182 2 LINE",
"182 -88 LINE"
);
},
{
closed = 1;
nodes = (
"197 702 LINE",
"197 792 LINE",
"177 792 LINE",
"177 702 LINE"
);
}
);
width = 377;
}
);
unicode = 0024;
},
{
glyphname = at;
lastChange = "2017-01-20 08:41:53 +0000";
layers = (
{
components = (
{
name = a;
transform = "{0.59, 0, 0, 0.59, 316, 138}";
}
);
layerId = "262880E7-CFE1-4BDA-902E-E24798F3240A";
paths = (
{
closed = 1;
nodes = (
"659 -71 OFFCURVE",
"826 92 OFFCURVE",
"826 290 CURVE SMOOTH",
"826 488 OFFCURVE",
"659 651 OFFCURVE",
"454 651 CURVE SMOOTH",
"249 651 OFFCURVE",
"82 488 OFFCURVE",
"82 290 CURVE SMOOTH",
"82 92 OFFCURVE",
"249 -71 OFFCURVE",
"454 -71 CURVE SMOOTH"
);
},
{
closed = 1;
nodes = (
"261 -50 OFFCURVE",
"104 102 OFFCURVE",
"104 290 CURVE SMOOTH",
"104 478 OFFCURVE",
"261 630 OFFCURVE",
"454 630 CURVE SMOOTH",
"647 630 OFFCURVE",
"803 478 OFFCURVE",
"803 290 CURVE SMOOTH",
"803 102 OFFCURVE",
"647 -50 OFFCURVE",
"454 -50 CURVE SMOOTH"
);
}
);
width = 882;
},
{
components = (
{
name = a;
transform = "{0.59, 0, 0, 0.59, 289, 131}";
}
);
layerId = "4E2227F3-52E4-4048-A8EE-327B486EF0A4";
paths = (
{
closed = 1;
nodes = (
"641 -62 OFFCURVE",
"782 80 OFFCURVE",
"782 292 CURVE SMOOTH",
"782 503 OFFCURVE",
"641 644 OFFCURVE",
"429 644 CURVE SMOOTH",
"218 644 OFFCURVE",
"77 503 OFFCURVE",
"77 292 CURVE SMOOTH",
"77 80 OFFCURVE",
"218 -62 OFFCURVE",
"429 -62 CURVE SMOOTH"
);
},
{
closed = 1;
nodes = (
"278 38 OFFCURVE",
"177 140 OFFCURVE",
"177 292 CURVE SMOOTH",
"177 443 OFFCURVE",
"278 544 OFFCURVE",
"429 544 CURVE SMOOTH",
"581 544 OFFCURVE",
"682 443 OFFCURVE",
"682 292 CURVE SMOOTH",
"682 140 OFFCURVE",
"581 38 OFFCURVE",
"429 38 CURVE SMOOTH"
);
}
);
width = 862;
},
{
components = (
{
name = a;
transform = "{0.59, 0, 0, 0.59, 263, 129}";
}
);
layerId = "FFFA8D72-12AC-4CE0-B2CA-57A29829F4DA";
paths = (
{
closed = 1;
nodes = (
"643 -82 OFFCURVE",
"793 63 OFFCURVE",
"793 272 CURVE SMOOTH",
"793 480 OFFCURVE",
"643 624 OFFCURVE",
"427 624 CURVE SMOOTH",
"212 624 OFFCURVE",
"63 480 OFFCURVE",
"63 272 CURVE SMOOTH",
"63 63 OFFCURVE",
"212 -82 OFFCURVE",
"427 -82 CURVE SMOOTH"
);
},
{
closed = 1;
nodes = (
"272 18 OFFCURVE",
"165 122 OFFCURVE",
"165 272 CURVE SMOOTH",
"165 421 OFFCURVE",
"272 524 OFFCURVE",
"427 524 CURVE SMOOTH",
"583 524 OFFCURVE",
"691 421 OFFCURVE",
"691 272 CURVE SMOOTH",
"691 122 OFFCURVE",
"583 18 OFFCURVE",
"427 18 CURVE SMOOTH"
);
}
);
width = 862;
},
{
components = (
{
name = a;
transform = "{0.59, 0, 0, 0.59, 242, 138}";
}
);
layerId = "DCBE1F7B-116A-43E0-B7B4-8657BA77D8B5";
paths = (
{
closed = 1;
nodes = (
"516 -15 OFFCURVE",
"633 102 OFFCURVE",
"633 270 CURVE SMOOTH",
"633 438 OFFCURVE",
"516 555 OFFCURVE",
"348 555 CURVE SMOOTH",
"180 555 OFFCURVE",
"63 438 OFFCURVE",
"63 270 CURVE SMOOTH",
"63 102 OFFCURVE",
"180 -15 OFFCURVE",
"348 -15 CURVE SMOOTH"
);
},
{
closed = 1;
nodes = (
"192 6 OFFCURVE",
"83 114 OFFCURVE",
"83 270 CURVE SMOOTH",
"83 426 OFFCURVE",
"192 534 OFFCURVE",
"348 534 CURVE SMOOTH",
"504 534 OFFCURVE",
"613 426 OFFCURVE",
"613 270 CURVE SMOOTH",
"613 114 OFFCURVE",
"504 6 OFFCURVE",
"348 6 CURVE SMOOTH"
);
}
);
width = 696;
}
);
unicode = 0040;
},
{
glyphname = copyright;
lastChange = "2017-01-20 08:41:53 +0000";
layers = (
{
components = (
{
name = C;
transform = "{0.5, 0, 0, 0.5, 321, 111}";
}
);
layerId = "262880E7-CFE1-4BDA-902E-E24798F3240A";
paths = (
{
closed = 1;
nodes = (
"677 -71 OFFCURVE",
"826 73 OFFCURVE",
"826 290 CURVE SMOOTH",
"826 507 OFFCURVE",
"677 651 OFFCURVE",
"454 651 CURVE SMOOTH",
"230 651 OFFCURVE",
"82 507 OFFCURVE",
"82 290 CURVE SMOOTH",
"82 73 OFFCURVE",
"230 -71 OFFCURVE",
"454 -71 CURVE SMOOTH"
);
},
{
closed = 1;
nodes = (
"245 -50 OFFCURVE",
"104 86 OFFCURVE",
"104 290 CURVE SMOOTH",
"104 494 OFFCURVE",
"245 630 OFFCURVE",
"454 630 CURVE SMOOTH",
"663 630 OFFCURVE",
"803 494 OFFCURVE",
"803 290 CURVE SMOOTH",
"803 86 OFFCURVE",
"663 -50 OFFCURVE",
"454 -50 CURVE SMOOTH"
);
}
);
width = 882;
},
{
components = (
{
name = C;
transform = "{0.5, 0, 0, 0.5, 324, 111}";
}
);
layerId = "4E2227F3-52E4-4048-A8EE-327B486EF0A4";
paths = (
{
closed = 1;
nodes = (
"641 -62 OFFCURVE",
"782 80 OFFCURVE",
"782 292 CURVE SMOOTH",
"782 503 OFFCURVE",
"641 644 OFFCURVE",
"429 644 CURVE SMOOTH",
"218 644 OFFCURVE",
"77 503 OFFCURVE",
"77 292 CURVE SMOOTH",
"77 80 OFFCURVE",
"218 -62 OFFCURVE",
"429 -62 CURVE SMOOTH"
);
},
{
closed = 1;
nodes = (
"278 38 OFFCURVE",
"177 140 OFFCURVE",
"177 292 CURVE SMOOTH",
"177 443 OFFCURVE",
"278 544 OFFCURVE",
"429 544 CURVE SMOOTH",
"581 544 OFFCURVE",
"682 443 OFFCURVE",
"682 292 CURVE SMOOTH",
"682 140 OFFCURVE",
"581 38 OFFCURVE",
"429 38 CURVE SMOOTH"
);
}
);
width = 882;
},
{
components = (
{
name = C;
transform = "{0.5, 0, 0, 0.5, 301, 111}";
}
);
layerId = "FFFA8D72-12AC-4CE0-B2CA-57A29829F4DA";
paths = (
{
closed = 1;
nodes = (
"691 -62 OFFCURVE",
"861 80 OFFCURVE",
"861 292 CURVE SMOOTH",
"861 503 OFFCURVE",
"691 644 OFFCURVE",
"435 644 CURVE SMOOTH",
"181 644 OFFCURVE",
"11 503 OFFCURVE",
"11 292 CURVE SMOOTH",
"11 80 OFFCURVE",
"181 -62 OFFCURVE",
"435 -62 CURVE SMOOTH"
);
},
{
closed = 1;
nodes = (
"242 38 OFFCURVE",
"113 140 OFFCURVE",
"113 292 CURVE SMOOTH",
"113 443 OFFCURVE",
"242 544 OFFCURVE",
"435 544 CURVE SMOOTH",
"629 544 OFFCURVE",
"759 443 OFFCURVE",
"759 292 CURVE SMOOTH",
"759 140 OFFCURVE",
"629 38 OFFCURVE",
"435 38 CURVE SMOOTH"
);
}
);
width = 882;
},
{
components = (
{
name = C;
transform = "{0.5, 0, 0, 0.5, 244, 111}";
}
);
layerId = "DCBE1F7B-116A-43E0-B7B4-8657BA77D8B5";
paths = (
{
closed = 1;
nodes = (
"519 -71 OFFCURVE",
"633 73 OFFCURVE",
"633 290 CURVE SMOOTH",
"633 507 OFFCURVE",
"519 651 OFFCURVE",
"348 651 CURVE SMOOTH",
"177 651 OFFCURVE",
"63 507 OFFCURVE",
"63 290 CURVE SMOOTH",
"63 73 OFFCURVE",
"177 -71 OFFCURVE",
"348 -71 CURVE SMOOTH"
);
},
{
closed = 1;
nodes = (
"189 -50 OFFCURVE",
"83 86 OFFCURVE",
"83 290 CURVE SMOOTH",
"83 494 OFFCURVE",
"189 630 OFFCURVE",
"348 630 CURVE SMOOTH",
"507 630 OFFCURVE",
"613 494 OFFCURVE",
"613 290 CURVE SMOOTH",
"613 86 OFFCURVE",
"507 -50 OFFCURVE",
"348 -50 CURVE SMOOTH"
);
}
);
width = 882;
}
);
unicode = 00A9;
},
